<?xml version="1.0" standalone="no"?>
<!DOCTYPE svg PUBLIC "-//W3C//DTD SVG 1.1//EN" "http://www.w3.org/Graphics/SVG/1.1/DTD/svg11.dtd" >
<svg>
<metadata>
Created by FontForge 20090914 at Sun Mar 12 17:51:08 2017
 By www-data
Copyright (c) 2014 Indian Type Foundry (info@indiantypefoundry.com)
</metadata>
<defs>
<font id="Hind-Bold" horiz-adv-x="281" >
  <font-face 
    font-family="Hind Bold"
    font-weight="700"
    font-stretch="normal"
    units-per-em="1000"
    panose-1="2 0 0 0 0 0 0 0 0 0"
    ascent="800"
    descent="-200"
    x-height="507"
    cap-height="674"
    bbox="-502 -545.998 2282 1055"
    underline-thickness="50"
    underline-position="-50"
    unicode-range="U+000D-U+FB04"
  />
<missing-glyph horiz-adv-x="518" 
d="M4 0v701h510v-701h-510zM59 649v-597h400v597h-400zM259 302h-4l-100 -209h-60l134 260l-134 255h60l105 -206h4l100 206h60l-135 -261l135 -254h-60z" />
    <glyph glyph-name=".notdef" horiz-adv-x="518" 
d="M4 0v701h510v-701h-510zM59 649v-597h400v597h-400zM259 302h-4l-100 -209h-60l134 260l-134 255h60l105 -206h4l100 206h60l-135 -261l135 -254h-60z" />
    <glyph glyph-name="NULL" horiz-adv-x="0" 
 />
    <glyph glyph-name="NULL" horiz-adv-x="0" 
 />
    <glyph glyph-name="CR" unicode="&#xd;" horiz-adv-x="0" 
 />
    <glyph glyph-name="space" unicode=" " horiz-adv-x="250" 
 />
    <glyph glyph-name="exclam" unicode="!" horiz-adv-x="289" 
d="M75 236v438h139v-438h-139zM52 83c0 25.333 8.83301 46.833 26.5 64.5s39.167 26.5 64.5 26.5s46.833 -8.83301 64.5 -26.5s26.5 -39.167 26.5 -64.5s-8.83301 -46.833 -26.5 -64.5s-39.167 -26.5 -64.5 -26.5s-46.833 8.83301 -64.5 26.5s-26.5 39.167 -26.5 64.5z" />
    <glyph glyph-name="quotedbl" unicode="&#x22;" horiz-adv-x="387" 
d="M40 420v261h122v-261h-122zM225 420v261h122v-261h-122z" />
    <glyph glyph-name="numbersign" unicode="#" horiz-adv-x="757" 
d="M429 265l28 135h-136l-29 -135h137zM712 400h-131l-29 -135h126v-111h-149l-33 -154h-123l32 154h-136l-33 -154h-123l32 154h-100v111h124l28 135h-118v116h143l33 157h124l-33 -157h136l33 157h124l-33 -157h106v-116z" />
    <glyph glyph-name="dollar" unicode="$" horiz-adv-x="514" 
d="M449 644l-0.00195312 -143.997c-54 31.333 -110 47 -168 47c-26 0 -45.833 -5.33301 -59.5 -16s-20.5 -24.334 -20.5 -41.001s8.33301 -31.5 25 -44.5s41.667 -26.833 75 -41.5c20.667 -9.33301 37.834 -17.5 51.501 -24.5s29.334 -16.667 47.001 -29
s31.667 -25.333 42 -39s19.166 -30.5 26.499 -50.5s11 -41.667 11 -65c0 -50.667 -16.167 -93.667 -48.5 -129s-76.166 -58.333 -131.499 -69v-116h-121v113c-55.333 5.33301 -101.333 18.333 -138 39v155c60.667 -44 125.334 -66 194.001 -66
c23.333 0 42.666 6.16699 57.999 18.5s23 28.5 23 48.5c0 6.66699 -1 13 -3 19s-5.66699 11.667 -11 17s-10.5 9.83301 -15.5 13.5s-12.333 8 -22 13l-24.5 12.5c-6.66699 3.33301 -16.5 8 -29.5 14s-23.5 10.667 -31.5 14c-43.333 20 -78.166 44.667 -104.499 74
s-39.5 68.333 -39.5 117c0 51.333 17 94.166 51 128.499s81.333 55.166 142 62.499v115h122v-117c35.333 -5.33301 68.666 -15 99.999 -29z" />
    <glyph glyph-name="percent" unicode="%" horiz-adv-x="973" 
d="M227 -1l379 708h132l-380 -708h-131zM548 182c0 52.667 18.5 97.5 55.5 134.5s81.833 55.5 134.5 55.5s97.5 -18.5 134.5 -55.5s55.5 -81.833 55.5 -134.5s-18.5 -97.5 -55.5 -134.5s-81.833 -55.5 -134.5 -55.5s-97.5 18.5 -134.5 55.5s-55.5 81.833 -55.5 134.5z
M45 532c0 52.667 18.5 97.5 55.5 134.5s81.833 55.5 134.5 55.5s97.5 -18.5 134.5 -55.5s55.5 -81.833 55.5 -134.5s-18.5 -97.5 -55.5 -134.5s-81.833 -55.5 -134.5 -55.5s-97.5 18.5 -134.5 55.5s-55.5 81.833 -55.5 134.5zM162 532c0 -20 7.16699 -37.167 21.5 -51.5
s31.5 -21.5 51.5 -21.5s37.167 7.16699 51.5 21.5s21.5 31.5 21.5 51.5s-7.16699 37.167 -21.5 51.5s-31.5 21.5 -51.5 21.5s-37.167 -7.16699 -51.5 -21.5s-21.5 -31.5 -21.5 -51.5zM665 182c0 -20 7.16699 -37.167 21.5 -51.5s31.5 -21.5 51.5 -21.5
s37.167 7.16699 51.5 21.5s21.5 31.5 21.5 51.5s-7.16699 37.167 -21.5 51.5s-31.5 21.5 -51.5 21.5s-37.167 -7.16699 -51.5 -21.5s-21.5 -31.5 -21.5 -51.5z" />
    <glyph glyph-name="ampersand" unicode="&#x26;" horiz-adv-x="742" 
d="M425 130l-127 124c-2 2 -5.16699 5 -9.5 9l-10.5 10c-30.667 -10.667 -51.5 -22.667 -62.5 -36s-16.5 -29.333 -16.5 -48c0 -22.667 13 -41.167 39 -55.5s58.667 -21.5 98 -21.5c31.333 0 61 6 89 18zM339 569c-19.333 0 -35.333 -5.66699 -48 -17s-19 -27.333 -19 -48
c0 -29.333 23 -67 69 -113c50 27.333 75 61 75 101c0 24.667 -6.83301 43.667 -20.5 57s-32.5 20 -56.5 20zM737 0l-179 -0.000976562l-39 39c-54 -31.333 -115.333 -47 -184 -47c-88 0 -157.5 18.667 -208.5 56s-76.5 82.666 -76.5 135.999
c0 82.667 47.333 139.334 142 170.001c-45.333 50 -68 99.333 -68 148c0 59.333 20.333 105.166 61 137.499s92 48.5 154 48.5c70 0 124.833 -16.5 164.5 -49.5s59.5 -79.167 59.5 -138.5c0 -39.333 -11.167 -74.166 -33.5 -104.499s-58.5 -58.166 -108.5 -83.499l98 -96
c12 26 18 54.333 18 85h131c0 -66.667 -18.667 -126 -56 -178z" />
    <glyph glyph-name="quotesingle" unicode="'" horiz-adv-x="202" 
d="M40 420v261h122v-261h-122z" />
    <glyph glyph-name="parenleft" unicode="(" horiz-adv-x="338" 
d="M358 -196l-155 0.000976562c-108.667 135.333 -163 287 -163 455c0 173.333 52.333 322.666 157 447.999h151c-48.667 -59.333 -86.5 -131.333 -113.5 -216s-40.5 -163.334 -40.5 -236.001c0 -70.667 14 -147.167 42 -229.5s68.667 -156.166 122 -221.499z" />
    <glyph glyph-name="parenright" unicode=")" horiz-adv-x="338" 
d="M141 707c104.667 -125.333 157 -274.667 157 -448c0 -168 -54.333 -319.667 -163 -455h-155c53.333 65.333 94 139.166 122 221.499s42 158.833 42 229.5c0 72.667 -13.5 151.334 -40.5 236.001s-64.833 156.667 -113.5 216h151z" />
    <glyph glyph-name="asterisk" unicode="*" horiz-adv-x="508" 
d="M339 428h-2c14 -10.667 26 -22.667 36 -36l58 -80l-96 -69l-57 79c-10.667 14.667 -18 29 -22 43c-5.33301 -12.667 -13.333 -26.667 -24 -42l-59 -80l-95 70l58 79c10 13.333 21.667 25 35 35c-15.333 0 -31.666 3 -48.999 9l-94 31l37 112l93 -30
c17.333 -6 32.333 -13.667 45 -23c-4.66699 16 -7 32.667 -7 50v98h118v-98c0 -17.333 -2.33301 -34 -7 -50c12 8.66699 26.667 16 44 22l94 30l36 -112l-92 -30c-16.667 -5.33301 -33.334 -8 -50.001 -8z" />
    <glyph glyph-name="plus" unicode="+" horiz-adv-x="589" 
d="M544 404v-130h-183v-180h-134v180h-182v130h182v181h134v-181h183z" />
    <glyph glyph-name="comma" unicode="," horiz-adv-x="294" 
d="M-7 -127l101 261h161l-136 -261h-126z" />
    <glyph glyph-name="hyphen" unicode="-" horiz-adv-x="357" 
d="M45 202v120h267v-120h-267z" />
    <glyph glyph-name="period" unicode="." horiz-adv-x="258" 
d="M40 81c0 24.667 8.66699 45.667 26 63s38.333 26 63 26s45.667 -8.66699 63 -26s26 -38.333 26 -63s-8.66699 -45.667 -26 -63s-38.333 -26 -63 -26s-45.667 8.66699 -63 26s-26 38.333 -26 63z" />
    <glyph glyph-name="slash" unicode="/" horiz-adv-x="464" 
d="M-2 -103l359 810h152l-360 -810h-151z" />
    <glyph glyph-name="zero" unicode="0" horiz-adv-x="547" 
d="M35 330c0 104 20 186.333 60 247s99.333 91 178 91s138.167 -30.333 178.5 -91s60.5 -143 60.5 -247c0 -102.667 -20.167 -184.667 -60.5 -246s-99.833 -92 -178.5 -92s-138 30.5 -178 91.5s-60 143.167 -60 246.5zM184 330c0 -138.667 29.667 -208 89 -208
c60 0 90 69.333 90 208s-30 208 -90 208c-59.333 0 -89 -69.333 -89 -208z" />
    <glyph glyph-name="one" unicode="1" horiz-adv-x="380" 
d="M10 398v149l184 107h126v-654h-145v497z" />
    <glyph glyph-name="two" unicode="2" horiz-adv-x="501" 
d="M234 124h232.001v-124h-436v113c72 49.333 135.5 104 190.5 164s82.5 113 82.5 159c0 28 -8.33301 50.167 -25 66.5s-42 24.5 -76 24.5c-56.667 0 -110.334 -21 -161.001 -63v141c22 16 50.667 29.667 86 41s70 17 104 17c68 0 122.167 -17.833 162.5 -53.5
s60.5 -85.5 60.5 -149.5c0 -115.333 -73.333 -227.333 -220 -336z" />
    <glyph glyph-name="three" unicode="3" horiz-adv-x="483" 
d="M56 490v136c49.333 24.667 99 37 149 37c70.667 0 126.667 -16.833 168 -50.5s62 -77.5 62 -131.5c0 -74 -33.667 -125 -101 -153c76 -18 114 -67.333 114 -148c0 -56 -21.167 -100.833 -63.5 -134.5s-101.5 -50.5 -177.5 -50.5c-71.333 0 -130.333 11.333 -177 34v140
c53.333 -29.333 108.333 -44 165 -44c32.667 0 58.167 7 76.5 21s27.5 31.667 27.5 53c0 48.667 -45 73 -135 73h-35v120h35c35.333 0 64.333 6 87 18s34 30 34 54c0 46 -30 69 -90 69c-46 0 -92.333 -14.333 -139 -43z" />
    <glyph glyph-name="four" unicode="4" horiz-adv-x="562" 
d="M173 263h144v296zM542 263v-124h-80v-139h-145v139h-287v124l200 393h232v-393h80z" />
    <glyph glyph-name="five" unicode="5" horiz-adv-x="500" 
d="M205 532l-0.000976562 -111c14.667 2 29.334 3 44.001 3c71.333 0 126 -18.333 164 -55s57 -86.667 57 -150c0 -68 -22.5 -122.5 -67.5 -163.5s-108.833 -61.5 -191.5 -61.5c-72.667 0 -131.334 11.667 -176.001 35v138c45.333 -28 96 -42 152 -42
c89.333 0 134 32 134 96c0 24 -9.16699 43 -27.5 57s-45.833 21 -82.5 21c-51.333 0 -100.666 -11 -147.999 -33v390h367v-124h-225z" />
    <glyph glyph-name="six" unicode="6" horiz-adv-x="537" 
d="M280 110c26 0 46.334 9.00098 61.001 27.001s22 42 22 72c0 27.333 -7.16699 49.166 -21.5 65.499s-34.5 24.5 -60.5 24.5c-36 0 -67.667 -14.333 -95 -43c7.33301 -97.333 38.666 -146 93.999 -146zM461.001 650.001v-135c-26 14 -56.333 21 -91 21
c-47.333 0 -86.166 -14.5 -116.499 -43.5s-50.833 -67.833 -61.5 -116.5c36 30.667 79 46 129 46c57.333 0 103.5 -19 138.5 -57s52.5 -89 52.5 -153c0 -66 -20.833 -121.167 -62.5 -165.5s-98.5 -66.5 -170.5 -66.5c-80.667 0 -141.5 28.833 -182.5 86.5
s-61.5 135.167 -61.5 232.5c0 111.333 30.5 200.333 91.5 267s138.167 100 231.5 100c35.333 0 69.666 -5.33301 102.999 -16z" />
    <glyph glyph-name="seven" unicode="7" horiz-adv-x="480" 
d="M20 655h440v-124l-254 -531h-154l255 531h-287v124z" />
    <glyph glyph-name="eight" unicode="8" horiz-adv-x="545" 
d="M271 106c30.667 0 53.833 7.50195 69.5 22.502s23.5 33.167 23.5 54.5c0 24 -8.16699 43.667 -24.5 59s-39.166 23 -68.499 23c-30 0 -52.5 -8.33301 -67.5 -25s-22.5 -36.334 -22.5 -59.001c0 -20.667 7.16699 -38.334 21.5 -53.001s37.166 -22 68.499 -22z
M269.999 550.002c-26.667 0 -46.332 -7.5 -58.999 -22.5s-19 -33.167 -19 -54.5c0 -25.333 7.66699 -45 23 -59s34.666 -21 57.999 -21c22.667 0 41.667 7 57 21s23 33.667 23 59c0 51.333 -27.667 77 -83 77zM417.001 333.002c62 -28.667 93 -78.999 93 -150.999
c0 -57.333 -22.167 -103.666 -66.5 -138.999s-102.166 -53 -173.499 -53c-72 0 -129.167 16.833 -171.5 50.5s-63.5 79.167 -63.5 136.5c0 70.667 31.667 121.667 95 153c-56.667 32.667 -85 79.667 -85 141s21.167 109.166 63.5 143.499s96.166 51.5 161.499 51.5
c68 0 123.167 -16.333 165.5 -49s63.5 -81.334 63.5 -146.001c0 -60 -27.333 -106 -82 -138z" />
    <glyph glyph-name="nine" unicode="9" horiz-adv-x="533" 
d="M254 346c40 0 72.333 15 97 45c-8 94.667 -40 142 -96 142c-26 0 -46.833 -8.33301 -62.5 -25s-23.5 -40 -23.5 -70c0 -26.667 7.66699 -48.667 23 -66s36 -26 62 -26zM67 11v137.998c34.667 -16.667 69 -25 103 -25c52 0 92.333 11.833 121 35.5
s47.334 60.834 56.001 111.501c-28.667 -28.667 -72 -43 -130 -43c-58.667 0 -106.167 18.833 -142.5 56.5s-54.5 87.834 -54.5 150.501c0 65.333 20.5 119.666 61.5 162.999s96.5 65 166.5 65c78 0 139.167 -28.167 183.5 -84.5s66.5 -133.166 66.5 -230.499
c0 -119.333 -28.333 -208.5 -85 -267.5s-132.334 -88.5 -227.001 -88.5c-45.333 0 -85 6.33301 -119 19z" />
    <glyph glyph-name="colon" unicode=":" horiz-adv-x="286" 
d="M55 419c0 24.667 8.5 45.5 25.5 62.5s37.833 25.5 62.5 25.5s45.5 -8.5 62.5 -25.5s25.5 -37.833 25.5 -62.5s-8.5 -45.5 -25.5 -62.5s-37.833 -25.5 -62.5 -25.5s-45.5 8.5 -62.5 25.5s-25.5 37.833 -25.5 62.5zM55 88c0 24.667 8.5 45.5 25.5 62.5
s37.833 25.5 62.5 25.5s45.5 -8.5 62.5 -25.5s25.5 -37.833 25.5 -62.5s-8.5 -45.5 -25.5 -62.5s-37.833 -25.5 -62.5 -25.5s-45.5 8.5 -62.5 25.5s-25.5 37.833 -25.5 62.5z" />
    <glyph glyph-name="semicolon" unicode=";" horiz-adv-x="294" 
d="M73 419c0 24.667 8.5 45.5 25.5 62.5s37.833 25.5 62.5 25.5s45.5 -8.5 62.5 -25.5s25.5 -37.833 25.5 -62.5s-8.5 -45.5 -25.5 -62.5s-37.833 -25.5 -62.5 -25.5s-45.5 8.5 -62.5 25.5s-25.5 37.833 -25.5 62.5zM-7 -127l101 261h161l-136 -261h-126z" />
    <glyph glyph-name="less" unicode="&#x3c;" horiz-adv-x="589" 
d="M45 271v138l499 178v-144l-354 -103l354 -103v-144z" />
    <glyph glyph-name="equal" unicode="=" horiz-adv-x="589" 
d="M45 394v120h499v-120h-499zM45 166v120h499v-120h-499z" />
    <glyph glyph-name="greater" unicode="&#x3e;" horiz-adv-x="589" 
d="M544 409v-138l-499 -178v144l354 103l-354 103v144z" />
    <glyph glyph-name="question" unicode="?" horiz-adv-x="458" 
d="M65 517l-0.00195312 137c40 18.667 91 28 153 28c62.667 0 113.334 -16.5 152.001 -49.5s58 -77.5 58 -133.5c0 -30 -6 -57.167 -18 -81.5s-27 -43.333 -45 -57s-35.667 -24.167 -53 -31.5s-33 -11 -47 -11l-3 -82h-133l-3 151c102.667 0 154 31.333 154 94
c0 24 -7.16699 43.167 -21.5 57.5s-35.5 21.5 -63.5 21.5c-43.333 0 -86.666 -14.333 -129.999 -43zM102.998 83c0 25.333 8.83301 46.833 26.5 64.5s39.167 26.5 64.5 26.5s46.833 -8.83301 64.5 -26.5s26.5 -39.167 26.5 -64.5s-8.83301 -46.833 -26.5 -64.5
s-39.167 -26.5 -64.5 -26.5s-46.833 8.83301 -64.5 26.5s-26.5 39.167 -26.5 64.5z" />
    <glyph glyph-name="at" unicode="@" horiz-adv-x="977" 
d="M476 105c22 0 42.5 8.50195 61.5 25.502s31.833 41.5 38.5 73.5c0 4 0.166992 10.667 0.5 20s0.5 16 0.5 20c-4 31.333 -14.333 55.166 -31 71.499s-36 24.5 -58 24.5c-28 0 -51.833 -11.667 -71.5 -35s-29.5 -56 -29.5 -98c0 -30.667 8.83301 -55.334 26.5 -74.001
s38.5 -28 62.5 -28zM668 -51.998l-4.00098 -123.001c-61.333 -27.333 -126.666 -41 -195.999 -41c-89.333 0 -167 19.5 -233 58.5s-115 89.5 -147 151.5s-48 130.667 -48 206c0 86 21.667 165.333 65 238s101.666 129.667 174.999 171s153 62 239 62
c74.667 0 143.834 -15.333 207.501 -46s115.5 -76.5 155.5 -137.5s60 -131.167 60 -210.5c0 -78.667 -19.833 -144.5 -59.5 -197.5s-87.5 -79.5 -143.5 -79.5c-78.667 0 -129.667 36.333 -153 109c-13.333 -35.333 -33.5 -62.166 -60.5 -80.499s-57.5 -27.5 -91.5 -27.5
c-54 0 -96.667 20.5 -128 61.5s-47 91.167 -47 150.5c0 69.333 20.333 125.166 61 167.499s88.667 63.5 144 63.5c54 0 94 -24.333 120 -73c2.66699 32.667 4.33398 56.334 5.00098 71.001h116l-1 -20c-8 -120 -12 -187 -12 -201c0 -72 17 -108 51 -108
c23.333 0 42.333 13.833 57 41.5s22 65.167 22 112.5c0 94.667 -28.833 166 -86.5 214s-131.5 72 -221.5 72c-68.667 0 -129.834 -17.167 -183.501 -51.5s-94.167 -78.5 -121.5 -132.5s-41 -111.667 -41 -173c0 -90 28.667 -161.5 86 -214.5s128.333 -79.5 213 -79.5
c70 0 137 15.333 201 46z" />
    <glyph glyph-name="A" unicode="A" horiz-adv-x="690" 
d="M262 262h161.999l-7 24c-19.333 65.333 -35.166 121 -47.499 167s-19.833 75.667 -22.5 89l-4 20c-5.33301 -36.667 -30 -128.667 -74 -276zM501.999 0l-41 138h-236l-41 -138h-161l225 674h194l225 -674h-165z" />
    <glyph glyph-name="B" unicode="B" horiz-adv-x="605" 
d="M219 123h81c76 0 114 26 114 78s-37.667 78 -113 78h-82v-156zM219 551v-151h57c40 0 70.167 7.33301 90.5 22s30.5 34 30.5 58c0 47.333 -32 71 -96 71h-82zM65 674l262 -0.000976562c74 0 130.333 -17.5 169 -52.5s58 -79.5 58 -133.5
c0 -35.333 -9.33301 -66.333 -28 -93s-43 -44.667 -73 -54c78 -23.333 117 -76 117 -158c0 -53.333 -19.167 -97.166 -57.5 -131.499s-90.5 -51.5 -156.5 -51.5h-291v674z" />
    <glyph glyph-name="C" unicode="C" horiz-adv-x="613" 
d="M563 645l0.000976562 -148.001c-50 30.667 -105.667 46 -167 46c-54 0 -99.333 -18.833 -136 -56.5s-55 -88.167 -55 -151.5c0 -62 18.333 -111.167 55 -147.5s84 -54.5 142 -54.5c62.667 0 116.334 16 161.001 48v-151c-40.667 -25.333 -99.334 -38 -176.001 -38
c-98.667 0 -181.167 31.833 -247.5 95.5s-99.5 146.167 -99.5 247.5c0 102.667 32.167 186.334 96.5 251.001s148.166 97 251.499 97c76 0 134.333 -12.667 175 -38z" />
    <glyph glyph-name="D" unicode="D" horiz-adv-x="683" 
d="M223 126l70 -0.000976562c62 0 109.833 19.333 143.5 58s50.5 93.334 50.5 164.001c0 60 -17 108.167 -51 144.5s-82 54.5 -144 54.5h-69v-421zM65 673.999h232.001c101.333 0 184.333 -31.167 249 -93.5s97 -139.833 97 -232.5c0 -108 -31.833 -193 -95.5 -255
s-147.834 -93 -252.501 -93h-230v674z" />
    <glyph glyph-name="E" unicode="E" horiz-adv-x="544" 
d="M220 123h264v-123h-419v674h415v-123h-260v-153h232v-122h-232v-153z" />
    <glyph glyph-name="F" unicode="F" horiz-adv-x="506" 
d="M476 551h-256v-174h223v-123h-223v-254h-155v674h411v-123z" />
    <glyph glyph-name="G" unicode="G" horiz-adv-x="706" 
d="M646 402l-0.000976562 -339.999c-64 -46.667 -144.667 -70 -242 -70c-108 0 -195.667 31 -263 93s-101 146.333 -101 253c0 105.333 35.167 189.666 105.5 252.999s159.5 95 267.5 95c76 0 141.667 -14 197 -42v-154c-64 36.667 -129.667 55 -197 55
c-63.333 0 -113.666 -18.833 -150.999 -56.5s-56 -87.834 -56 -150.501c0 -63.333 18.333 -113.666 55 -150.999s86.667 -56 150 -56c28.667 0 57 4.33301 85 13v127h-109v131h259z" />
    <glyph glyph-name="H" unicode="H" horiz-adv-x="686" 
d="M466 674h155v-674h-155v269h-247v-269h-154v674h154v-274h247v274z" />
    <glyph glyph-name="I" unicode="I" horiz-adv-x="304" 
d="M75 0v674h154v-674h-154z" />
    <glyph glyph-name="J" unicode="J" horiz-adv-x="392" 
d="M30 19l-0.00195312 136c24.667 -15.333 50.334 -23 77.001 -23c47.333 0 71 25.333 71 76v465h154v-469c0 -64.667 -17.167 -115 -51.5 -151s-82.166 -54 -143.499 -54c-46 0 -81.667 6.66699 -107 20z" />
    <glyph glyph-name="K" unicode="K" horiz-adv-x="662" 
d="M65 0v674h154v-674h-154zM406 337l239 -337h-193l-226 335l218 339h183z" />
    <glyph glyph-name="L" unicode="L" horiz-adv-x="488" 
d="M219 135h249v-135h-403v674h154v-539z" />
    <glyph glyph-name="M" unicode="M" horiz-adv-x="893" 
d="M50 0l58.001 673.999h169l94 -244c16 -40.667 29.667 -78 41 -112s18.666 -58 21.999 -72l5 -20c10.667 44 34 112 70 204l95 244h169l70 -674h-154l-25 261l-13 197c-17.333 -50 -41.333 -115.667 -72 -197l-95 -254h-91l-94 254c-15.333 41.333 -28.333 78.333 -39 111
s-17.667 55.334 -21 68.001l-5 18c0 -47.333 -3 -113 -9 -197l-21 -261h-154z" />
    <glyph glyph-name="N" unicode="N" horiz-adv-x="697" 
d="M65 0l-0.000976562 674h169l157 -279c22 -39.333 41.167 -76.166 57.5 -110.499s26.833 -58.5 31.5 -72.5l8 -22c-6.66699 49.333 -10 117.666 -10 204.999v279h154v-674h-169l-161 279c-21.333 36 -40.166 71.5 -56.499 106.5s-27.5 60.833 -33.5 77.5l-8 25
c10 -60 15 -129.667 15 -209v-279h-154z" />
    <glyph glyph-name="O" unicode="O" horiz-adv-x="736" 
d="M40 339c0 103.333 29.833 186.833 89.5 250.5s139.167 95.5 238.5 95.5c100 0 179.667 -31.667 239 -95s89 -147 89 -251c0 -103.333 -29.833 -186.833 -89.5 -250.5s-139.167 -95.5 -238.5 -95.5c-100 0 -179.667 31.667 -239 95s-89 147 -89 251zM205 339
c0 -63.333 14.667 -113.5 44 -150.5s69 -55.5 119 -55.5s89.667 18.5 119 55.5s44 87.167 44 150.5s-14.667 113.5 -44 150.5s-69 55.5 -119 55.5s-89.667 -18.5 -119 -55.5s-44 -87.167 -44 -150.5z" />
    <glyph glyph-name="P" unicode="P" horiz-adv-x="563" 
d="M219 340l76 0.000976562c31.333 4 55.333 16.167 72 36.5s25 45.166 25 74.499c0 24.667 -8.66699 47 -26 67s-41 31 -71 33h-76v-211zM65 674.001h232c74.667 0 135.167 -21 181.5 -63s69.5 -95.333 69.5 -160c0 -74 -24.167 -131.333 -72.5 -172
s-107.833 -61 -178.5 -61h-78v-218h-154v674z" />
    <glyph glyph-name="Q" unicode="Q" horiz-adv-x="741" 
d="M205 339c0 -63.333 14.667 -113.5 44 -150.5s69 -55.5 119 -55.5s89.667 18.5 119 55.5s44 87.167 44 150.5s-14.667 113.5 -44 150.5s-69 55.5 -119 55.5s-89.667 -18.5 -119 -55.5s-44 -87.167 -44 -150.5zM738 -84l-174.999 -66.999l-199 144
c-98.667 0.666992 -177.334 32.667 -236.001 96s-88 146.666 -88 249.999s29.833 186.833 89.5 250.5s139.167 95.5 238.5 95.5c100 0 179.667 -31.667 239 -95s89 -147 89 -251c0 -70.667 -14.333 -132.667 -43 -186s-69 -94 -121 -122z" />
    <glyph glyph-name="R" unicode="R" horiz-adv-x="614" 
d="M219 549v-190h73c66.667 0 100 32.667 100 98c0 28.667 -8.66699 51.167 -26 67.5s-41 24.5 -71 24.5h-76zM412 0l-146 234h-47v-234h-154v674h233c75.333 0 135.833 -20 181.5 -60s68.5 -92 68.5 -156c0 -96 -41 -162.333 -123 -199l171 -259h-184z" />
    <glyph glyph-name="S" unicode="S" horiz-adv-x="514" 
d="M454 644l-0.00195312 -143.998c-54 31.333 -110 47 -168 47c-26 0 -45.833 -5.33301 -59.5 -16s-20.5 -24.334 -20.5 -41.001s8.33301 -31.5 25 -44.5s41.667 -26.833 75 -41.5c20.667 -9.33301 37.834 -17.5 51.501 -24.5s29.334 -16.667 47.001 -29
s31.667 -25.333 42 -39s19.166 -30.5 26.499 -50.5s11 -41.667 11 -65c0 -60.667 -22.333 -109.834 -67 -147.501s-104 -56.5 -178 -56.5c-79.333 0 -144 14 -194 42v155c60.667 -44 125.334 -66 194.001 -66c23.333 0 42.666 6.16699 57.999 18.5s23 28.5 23 48.5
c0 6.66699 -1 13 -3 19s-5.66699 11.667 -11 17s-10.5 9.83301 -15.5 13.5s-12.333 8 -22 13l-24.5 12.5c-6.66699 3.33301 -16.5 8 -29.5 14s-23.5 10.667 -31.5 14c-43.333 20 -78.166 44.667 -104.499 74s-39.5 68.333 -39.5 117c0 58 21.333 104.833 64 140.5
s101.667 53.5 177 53.5c67.333 0 125.333 -11.333 174 -34z" />
    <glyph glyph-name="T" unicode="T" horiz-adv-x="544" 
d="M514 674v-124h-164v-550h-155v550h-165v124h484z" />
    <glyph glyph-name="U" unicode="U" horiz-adv-x="668" 
d="M454 260v414h154v-413c0 -88 -24.667 -155.167 -74 -201.5s-116 -69.5 -200 -69.5c-82.667 0 -149 23 -199 69s-75 111 -75 195v420h154v-419c0 -83.333 40 -125 120 -125s120 43.333 120 130z" />
    <glyph glyph-name="V" unicode="V" horiz-adv-x="659" 
d="M640 674l-227.002 -674h-170l-224 674h166l81 -269c14.667 -48 27.334 -94.167 38.001 -138.5s17.667 -76.5 21 -96.5l5 -31c10.667 69.333 32.334 158 65.001 266l81 269h164z" />
    <glyph glyph-name="W" unicode="W" horiz-adv-x="971" 
d="M431 664l113.999 0.000976562l66 -238c14 -50 26.5 -96.5 37.5 -139.5s18.5 -73.5 22.5 -91.5l6 -27c8.66699 59.333 27.334 145.666 56.001 258.999l62 247h157l-180 -674h-172l-59 213l-34.5 130c-9 35.333 -14.5 58 -16.5 68l-2 15c-2 -27.333 -20 -98.333 -54 -213
l-62 -213h-172l-181 674h162l62 -248c13.333 -53.333 24.333 -101.5 33 -144.5s14 -72.833 16 -89.5l4 -24c11.333 52 34 138 68 258z" />
    <glyph glyph-name="X" unicode="X" horiz-adv-x="663" 
d="M240 342l-203 332h179l112 -197l57 104.5l50 92.5h188l-204 -333l217 -341h-183l-122 210l-64 -114.5l-54 -95.5h-186z" />
    <glyph glyph-name="Y" unicode="Y" horiz-adv-x="643" 
d="M630 674l-233 -426v-248h-154v247l-230 427h180l41 -98l53 -130l27 -70l5 -16c6.66699 30 36 102 88 216l44 98h179z" />
    <glyph glyph-name="Z" unicode="Z" horiz-adv-x="621" 
d="M549 674v-109l-304 -441h316v-124h-501v113l302 437h-296v124h483z" />
    <glyph glyph-name="bracketleft" unicode="[" horiz-adv-x="363" 
d="M348 580h-145v-648h145v-128h-283v903h283v-127z" />
    <glyph glyph-name="backslash" unicode="\" horiz-adv-x="464" 
d="M107 707l359 -810h-151l-360 810h152z" />
    <glyph glyph-name="bracketright" unicode="]" horiz-adv-x="363" 
d="M298 707v-903h-283v128h145v648h-145v127h283z" />
    <glyph glyph-name="asciicircum" unicode="^" horiz-adv-x="491" 
d="M458 332h-135l-77 146l-78 -146h-135l151 262h123z" />
    <glyph glyph-name="underscore" unicode="_" horiz-adv-x="546" 
d="M20 -166v121h506v-121h-506z" />
    <glyph glyph-name="grave" unicode="`" horiz-adv-x="500" 
d="M280 798l86 -177h-121l-111 177h146z" />
    <glyph glyph-name="a" unicode="a" horiz-adv-x="516" 
d="M311 208l-47 0.000976562c-24.667 0 -43.667 -5.33301 -57 -16s-20 -24.334 -20 -41.001c0 -34 19.667 -51 59 -51c20.667 0 36.667 6.33301 48 19s17 30 17 52v37zM74 351.001l0.000976562 131c40 22.667 97.667 34 173 34c72 0 125.667 -15.5 161 -46.5
s53 -79.167 53 -144.5v-325h-143v62c-21.333 -43.333 -63.333 -65 -126 -65c-49.333 0 -87.833 14 -115.5 42s-41.5 63 -41.5 105c0 48.667 17.833 86.5 53.5 113.5s88.5 40.5 158.5 40.5h64v35c0 42.667 -28.333 64 -85 64c-54.667 0 -105.334 -15.333 -152.001 -46z" />
    <glyph glyph-name="b" unicode="b" horiz-adv-x="611" 
d="M318 116c30.667 0 56.667 12.5 78 37.5s32 57.833 32 98.5c0 44 -10.5 78.333 -31.5 103s-46.833 37 -77.5 37s-57.167 -11.667 -79.5 -35s-33.5 -56 -33.5 -98c0 -43.333 10.333 -78 31 -104s47.667 -39 81 -39zM206 707l0.000976562 -278.001c34.667 56 85 84 151 84
c63.333 0 115.666 -23 156.999 -69s62 -109 62 -189c0 -71.333 -19.833 -132.666 -59.5 -183.999s-92.5 -77 -158.5 -77c-67.333 0 -118 28.333 -152 85v-79h-146v707h146z" />
    <glyph glyph-name="c" unicode="c" horiz-adv-x="469" 
d="M183 252c2.66699 -44.667 15.999 -79.333 39.999 -104s55.667 -37 95 -37c42 0 82.333 11.667 121 35v-122c-39.333 -21.333 -86.666 -32 -141.999 -32c-76 0 -138.667 24.167 -188 72.5s-74 110.833 -74 187.5c1.33301 76 26 138.833 74 188.5s113.667 74.5 197 74.5
c51.333 0 95.666 -9.66699 132.999 -29v-125c-35.333 22 -74.666 33 -117.999 33c-40.667 0 -73.667 -12.167 -99 -36.5s-38.333 -59.5 -39 -105.5z" />
    <glyph glyph-name="d" unicode="d" horiz-adv-x="611" 
d="M293 116c33.333 0 60.333 13 81 39s31 60.667 31 104c0 42 -11.167 74.667 -33.5 98s-48.833 35 -79.5 35s-56.5 -12.333 -77.5 -37s-31.5 -59 -31.5 -103c0 -40.667 10.667 -73.5 32 -98.5s47.333 -37.5 78 -37.5zM405 707l146.001 0.000976562v-707h-146v79
c-34 -56.667 -84.667 -85 -152 -85c-66 0 -118.833 25.667 -158.5 77s-59.5 112.666 -59.5 183.999c0 80 20.667 143 62 189s93.666 69 156.999 69c66 0 116.333 -28 151 -84v278z" />
    <glyph glyph-name="e" unicode="e" horiz-adv-x="533" 
d="M353 300v12c-4.66699 59.333 -30.667 89 -78 89c-23.333 0 -44 -8.5 -62 -25.5s-30 -42.167 -36 -75.5h176zM458 151l-0.00195312 -122.001c-34.667 -22.667 -87.667 -34 -159 -34c-83.333 0 -148.166 24.167 -194.499 72.5s-69.5 110.5 -69.5 186.5
c0 80.667 22.5 143.834 67.5 189.501s100.5 68.5 166.5 68.5c68 0 121.667 -19.833 161 -59.5s59 -98.834 59 -177.501c0 -15.333 -2.66699 -41.666 -8 -78.999h-298c10 -28 27.333 -49.667 52 -65s54.334 -23 89.001 -23c51.333 0 96 14.333 134 43z" />
    <glyph glyph-name="f" unicode="f" horiz-adv-x="346" 
d="M366 710l0.000976562 -118c-18.667 7.33301 -36 11 -52 11c-24.667 0 -43 -5.66699 -55 -17s-18 -31.333 -18 -60v-19h95v-107h-95v-400h-145v400h-66v107h66v19c0 61.333 17.167 109 51.5 143s81.833 51 142.5 51c31.333 0 56.666 -3.33301 75.999 -10z" />
    <glyph glyph-name="g" unicode="g" horiz-adv-x="585" 
d="M285 133c31.333 0 55.833 11.833 73.5 35.5s26.5 52.167 26.5 85.5c0 90.667 -33 136 -99 136c-29.333 0 -52.333 -11.333 -69 -34s-25 -54 -25 -94c0 -42 8 -74 24 -96s39 -33 69 -33zM385 507l144.999 0.000976562v-458c0 -81.333 -24.333 -142.5 -73 -183.5
s-109.667 -61.5 -183 -61.5c-71.333 0 -133.666 12.667 -186.999 38v149c46.667 -37.333 104 -56 172 -56c44 0 76 9.33301 96 28s30 48 30 88v34c-29.333 -45.333 -76 -68 -140 -68c-56 0 -104.167 20.667 -144.5 62s-60.5 102.666 -60.5 183.999
c0 72 19.5 131.5 58.5 178.5s90.167 70.5 153.5 70.5c60 0 104.333 -24 133 -72v67z" />
    <glyph glyph-name="h" unicode="h" horiz-adv-x="580" 
d="M206 707l0.000976562 -286.001c26 60.667 76.667 91 152 91c49.333 0 89.5 -15.667 120.5 -47s46.5 -78.666 46.5 -141.999v-323h-146v300c0 29.333 -7.33301 52.333 -22 69s-33.667 25 -57 25c-10 0 -19.5 -1.5 -28.5 -4.5s-18.833 -8.33301 -29.5 -16
s-19.334 -20.667 -26.001 -39s-10 -40.5 -10 -66.5v-268h-146v707h146z" />
    <glyph glyph-name="i" unicode="i" horiz-adv-x="276" 
d="M65 0v507h146v-507h-146zM53 654c0 23.333 8.33301 43.333 25 60s36.667 25 60 25s43.333 -8.33301 60 -25s25 -36.667 25 -60s-8.33301 -43.333 -25 -60s-36.667 -25 -60 -25s-43.333 8.33301 -60 25s-25 36.667 -25 60z" />
    <glyph glyph-name="j" unicode="j" horiz-adv-x="274" 
d="M-40 -182l-0.000976562 110.999c22 -10 41 -15 57 -15c34.667 0 52 22.333 52 67v526h145v-528c0 -53.333 -15 -96.166 -45 -128.499s-73.333 -48.5 -130 -48.5c-23.333 0 -49.666 5.33301 -78.999 16zM55.999 653.999c0 23.333 8.33301 43.333 25 60s36.667 25 60 25
s43.333 -8.33301 60 -25s25 -36.667 25 -60s-8.33301 -43.333 -25 -60s-36.667 -25 -60 -25s-43.333 8.33301 -60 25s-25 36.667 -25 60z" />
    <glyph glyph-name="k" unicode="k" horiz-adv-x="548" 
d="M537 0h-169l-162 249v-249h-146v690h146v-410l160 227h168l-176 -243z" />
    <glyph glyph-name="l" unicode="l" horiz-adv-x="276" 
d="M65 0v707h146v-707h-146z" />
    <glyph glyph-name="m" unicode="m" horiz-adv-x="859" 
d="M206 507l0.000976562 -79.0039c28 56 75.667 84 143 84c71.333 0 118.666 -32 141.999 -96c11.333 30 30.333 53.5 57 70.5s58 25.5 94 25.5c50 0 89.5 -15.833 118.5 -47.5s43.5 -78.167 43.5 -139.5v-325h-146v301c0 28.667 -5.66699 51.334 -17 68.001
s-27.666 25 -48.999 25c-22.667 0 -42.834 -9.16699 -60.501 -27.5s-26.5 -51.166 -26.5 -98.499v-268h-146v301c0 28.667 -5.66699 51.334 -17 68.001s-27.666 25 -48.999 25c-22.667 0 -42.834 -9.16699 -60.501 -27.5s-26.5 -51.166 -26.5 -98.499v-268h-146v507h146z
" />
    <glyph glyph-name="n" unicode="n" horiz-adv-x="580" 
d="M206 507l0.000976562 -86c12.667 28 32.167 50.167 58.5 66.5s57.833 24.5 94.5 24.5c52 0 92.667 -15.5 122 -46.5s44 -76.5 44 -136.5v-329h-146v302c0 30 -7 52.833 -21 68.5s-33.667 23.5 -59 23.5c-26.667 0 -48.834 -10.5 -66.501 -31.5s-26.5 -52.5 -26.5 -94.5
v-268h-146v507h146z" />
    <glyph glyph-name="o" unicode="o" horiz-adv-x="567" 
d="M284 -8c-79.333 0 -140.666 23.833 -183.999 71.5s-65 108.834 -65 183.501c0 78 22.667 142.167 68 192.5s105.666 75.5 180.999 75.5c78.667 0 139.667 -24.333 183 -73s65 -110.667 65 -186c0 -76.667 -21.833 -139.834 -65.5 -189.501s-104.5 -74.5 -182.5 -74.5z
M283 400c-32 0 -56 -13.668 -72 -41.001s-24 -62.666 -24 -105.999s8.16699 -78.833 24.5 -106.5s40.833 -41.5 73.5 -41.5c32 0 55.833 13.5 71.5 40.5s23.5 62.167 23.5 105.5c0 99.333 -32.333 149 -97 149z" />
    <glyph glyph-name="p" unicode="p" horiz-adv-x="611" 
d="M320 116c32 0 58.001 12.167 78.001 36.5s30 57.5 30 99.5c0 46 -10.167 80.833 -30.5 104.5s-46.166 35.5 -77.499 35.5c-30.667 0 -57.334 -11.667 -80.001 -35s-34 -56 -34 -98c0 -43.333 10.667 -78 32 -104s48.666 -39 81.999 -39zM206.001 507v-78.002
c35.333 56 86.333 84 153 84c65.333 0 117.833 -23.167 157.5 -69.5s59.5 -109.166 59.5 -188.499c0 -75.333 -19.167 -137.666 -57.5 -186.999s-91.5 -74 -159.5 -74c-68.667 0 -119.667 27 -153 81v-262h-146v694h146z" />
    <glyph glyph-name="q" unicode="q" horiz-adv-x="611" 
d="M293 116c33.333 0 60.333 13 81 39s31 60.667 31 104c0 42 -11.167 74.667 -33.5 98s-48.833 35 -79.5 35s-56.5 -12.333 -77.5 -37s-31.5 -59 -31.5 -103c0 -40.667 10.667 -73.5 32 -98.5s47.333 -37.5 78 -37.5zM405 507l146 0.00195312v-694h-146v266
c-34 -56.667 -84.667 -85 -152 -85c-68 0 -121.333 24.667 -160 74s-58 111.666 -58 186.999c0 79.333 20 142.166 60 188.499s93 69.5 159 69.5s116.333 -28 151 -84v78z" />
    <glyph glyph-name="r" unicode="r" horiz-adv-x="370" 
d="M205 507l-0.00195312 -94c9.33301 29.333 24.833 52.833 46.5 70.5s46.834 26.5 75.501 26.5c16 0 28.667 -1.33301 38 -4v-138c-16 7.33301 -34.333 11 -55 11c-31.333 0 -56.666 -11.5 -75.999 -34.5s-29 -53.5 -29 -91.5v-253h-146l1 507h145z" />
    <glyph glyph-name="s" unicode="s" horiz-adv-x="436" 
d="M380 492l-0.00195312 -124.997c-35.333 20.667 -76.666 31 -123.999 31c-17.333 0 -30.666 -3.5 -39.999 -10.5s-14 -15.833 -14 -26.5c0 -6 1.66699 -11.667 5 -17s8.83301 -10.333 16.5 -15s15 -8.83398 22 -12.501s16.667 -8.16699 29 -13.5s22.166 -10 29.499 -14
c30.667 -16 55.334 -34.5 74.001 -55.5s28 -47.833 28 -80.5c0 -50 -18 -88.667 -54 -116s-83.667 -41 -143 -41c-61.333 0 -112.666 10.333 -153.999 31v130c46 -32 94.667 -48 146 -48c36.667 0 55 11.667 55 35c0 6 -1.66699 11.667 -5 17s-9 10.333 -17 15
s-15.333 8.5 -22 11.5l-29 12.5c-12.667 5.33301 -22.334 9.66602 -29.001 12.999c-67.333 32 -101 80 -101 144c0 49.333 18.833 87.666 56.5 114.999s84.5 41 140.5 41c52 0 95.333 -7 130 -21z" />
    <glyph glyph-name="t" unicode="t" horiz-adv-x="386" 
d="M229 400l-0.000976562 -233c0 -18 5.16699 -31.667 15.5 -41s23.833 -14 40.5 -14c26.667 0 50.334 6.66699 71.001 20v-121c-24.667 -10.667 -58 -16 -100 -16c-115.333 0 -173 57.667 -173 173v232h-73v107h73v120h146v-120h118v-107h-118z" />
    <glyph glyph-name="u" unicode="u" horiz-adv-x="580" 
d="M374 507h146v-507h-146v81c-26.667 -56.667 -78 -85 -154 -85c-52 0 -92.5 14.5 -121.5 43.5s-43.5 71.833 -43.5 128.5v339h146v-306c0 -59.333 26 -89 78 -89c63.333 0 95 42.333 95 127v268z" />
    <glyph glyph-name="v" unicode="v" horiz-adv-x="536" 
d="M192 0l-187 507.001h153l66 -216c10 -33.333 18.667 -64.833 26 -94.5s12 -51.167 14 -64.5l4 -19c6 43.333 21 102.666 45 177.999l68 216h150l-189 -507h-150z" />
    <glyph glyph-name="w" unicode="w" horiz-adv-x="806" 
d="M168 0l-163 507.006h151l44 -167c10.667 -42 19.667 -79.833 27 -113.5s11.666 -56.834 12.999 -69.501l3 -19c4.66699 40 21 107.333 49 202l49 167h126l48 -167c12 -42.667 22 -80.834 30 -114.501s13 -56.834 15 -69.501l3 -18
c4.66699 39.333 20.334 106.666 47.001 201.999l47 167h144l-162 -507h-150l-44 166c-9.33301 36 -17.5 69.667 -24.5 101s-11.5 53.666 -13.5 66.999l-3 20c-6.66699 -44.667 -20.667 -107.334 -42 -188.001l-44 -166h-150z" />
    <glyph glyph-name="x" unicode="x" horiz-adv-x="526" 
d="M340 253l169 -253h-159l-85 152l-91 -152h-158l181 254l-170 253h162l82 -151l91 151h160z" />
    <glyph glyph-name="y" unicode="y" horiz-adv-x="532" 
d="M201 8l-195.999 498.999h159l55 -158c14 -40.667 25.5 -75.667 34.5 -105s14.5 -48.666 16.5 -57.999l3 -14c7.33301 26.667 25.333 85.667 54 177l50 158h150l-183 -492c-52.667 -142 -133 -213 -241 -213c-20.667 0 -39.334 1.66699 -56.001 5v116
c10.667 -2.66699 22 -4 34 -4c55.333 0 95.333 29.667 120 89z" />
    <glyph glyph-name="z" unicode="z" horiz-adv-x="479" 
d="M427 507v-101l-222 -293h234v-113h-399v105l222 290h-213v112h378z" />
    <glyph glyph-name="braceleft" unicode="{" horiz-adv-x="380" 
d="M40 325l17 0.00195312c26 0 46.667 9.66699 62 29s23 41.666 23 66.999c0 10.667 -2 28.667 -6 54s-6 45.333 -6 60c0 52 14.833 95 44.5 129s67.834 51 114.501 51c20.667 0 42.667 -4 66 -12v-135c-10 6 -20.333 9 -31 9c-14 0 -26 -5.16699 -36 -15.5
s-15 -23.5 -15 -39.5c0 -8 2 -25.167 6 -51.5s6 -47.5 6 -63.5c0 -40.667 -11.5 -75.167 -34.5 -103.5s-50.167 -44.5 -81.5 -48.5c31.333 -4 58.5 -20.333 81.5 -49s34.5 -63.334 34.5 -104.001c0 -16 -2 -37.167 -6 -63.5s-6 -43.5 -6 -51.5c0 -16 5 -29.167 15 -39.5
s22 -15.5 36 -15.5c10.667 0 21 3 31 9v-135c-23.333 -8 -45.333 -12 -66 -12c-46.667 0 -84.834 17 -114.501 51s-44.5 77 -44.5 129c0 14.667 2 34.667 6 60s6 43.333 6 54c0 25.333 -7.66699 47.833 -23 67.5s-36 29.5 -62 29.5l-17 -1v141z" />
    <glyph glyph-name="bar" unicode="|" horiz-adv-x="280" 
d="M70 -194v889h140v-889h-140z" />
    <glyph glyph-name="braceright" unicode="}" horiz-adv-x="380" 
d="M323 325l17.001 -0.00195312v-141c-4.66699 0.666992 -10.334 1 -17.001 1c-26 0 -46.667 -9.83301 -62 -29.5s-23 -42.167 -23 -67.5c0 -10.667 2 -28.667 6 -54s6 -45.333 6 -60c0 -52 -14.833 -95 -44.5 -129s-67.834 -51 -114.501 -51c-20.667 0 -42.667 4 -66 12
v135c10 -6 20.333 -9 31 -9c14 0 26 5.16699 36 15.5s15 23.5 15 39.5c0 8 -2 25.167 -6 51.5s-6 47.5 -6 63.5c0 40.667 11.5 75.334 34.5 104.001s50.167 45 81.5 49c-31.333 4 -58.5 20.167 -81.5 48.5s-34.5 62.833 -34.5 103.5c0 16 2 37.167 6 63.5s6 43.5 6 51.5
c0 16 -5 29.167 -15 39.5s-22 15.5 -36 15.5c-10.667 0 -21 -3 -31 -9v135c23.333 8 45.333 12 66 12c46.667 0 84.834 -17 114.501 -51s44.5 -77 44.5 -129c0 -14.667 -2 -34.667 -6 -60s-6 -43.333 -6 -54c0 -25.333 7.66699 -47.666 23 -66.999s36 -29 62 -29z" />
    <glyph glyph-name="asciitilde" unicode="~" horiz-adv-x="654" 
d="M524 379l101 -81c-51.333 -72.667 -109 -109 -173 -109c-38 0 -78.5 8.16699 -121.5 24.5s-75.833 24.5 -98.5 24.5c-22 0 -40.333 -4.66699 -55 -14s-30.667 -24 -48 -44l-101 80c20.667 29.333 46 54.833 76 76.5s62 32.5 96 32.5c44 0 87.833 -8.16699 131.5 -24.5
s73.5 -24.5 89.5 -24.5c22 0 40.333 4.66699 55 14s30.667 24.333 48 45z" />
    <glyph glyph-name="uni00A0" unicode="&#xa0;" horiz-adv-x="250" 
 />
    <glyph glyph-name="exclamdown" unicode="&#xa1;" horiz-adv-x="289" 
d="M52 426c0 25.333 8.83301 46.833 26.5 64.5s39.167 26.5 64.5 26.5s46.833 -8.83301 64.5 -26.5s26.5 -39.167 26.5 -64.5s-8.83301 -46.833 -26.5 -64.5s-39.167 -26.5 -64.5 -26.5s-46.833 8.83301 -64.5 26.5s-26.5 39.167 -26.5 64.5zM75 -165v438h139v-438h-139z
" />
    <glyph glyph-name="cent" unicode="&#xa2;" horiz-adv-x="478" 
d="M438 483l-0.00195312 -122.002c-35.333 22 -74.666 33 -117.999 33c-41.333 0 -75.166 -12.333 -101.499 -37s-39.833 -59.667 -40.5 -105c2.66699 -44 16.5 -78.5 41.5 -103.5s57.5 -37.5 97.5 -37.5c42 0 82.333 11.667 121 35v-122
c-23.333 -12 -49.666 -20.667 -78.999 -26v-109h-121v108c-61.333 12 -111.333 41 -150 87s-58 102 -58 168c1.33301 64.667 20.166 120.334 56.499 167.001s86.5 76.334 150.5 89.001v112h122v-110c28.667 -5.33301 55 -14.333 79 -27z" />
    <glyph glyph-name="sterling" unicode="&#xa3;" horiz-adv-x="540" 
d="M215 123l292.001 0.00292969v-123h-462v121c48.667 25.333 73 68.666 73 129.999v16h-74v106h60c-2 16 -3 31.667 -3 47c0 75.333 19.667 134.166 59 176.499s97.666 63.5 174.999 63.5c56.667 0 102.334 -10.667 137.001 -32v-138c-30.667 22 -65.334 33 -104.001 33
c-70 0 -105 -36.333 -105 -109c0 -8.66699 0.666992 -22.334 2 -41.001h166v-106h-155v-17c0 -58.667 -20.333 -101 -61 -127z" />
    <glyph glyph-name="currency" unicode="&#xa4;" horiz-adv-x="571" 
d="M58 311c0 39.333 9.33301 75.999 28 109.999l-58 57l85 82l58 -57c34 18.667 72.333 28 115 28c41.333 0 79.333 -9 114 -27l58 56l85 -82l-58 -57c19.333 -35.333 29 -72 29 -110c0 -39.333 -10 -76.666 -30 -111.999l59 -57l-85 -82l-59 56
c-33.333 -17.333 -71 -26 -113 -26c-42.667 0 -81 9 -115 27l-58 -57l-85 82l59 57c-19.333 34.667 -29 72 -29 112zM180 310.999c0 -29.333 10 -54.5 30 -75.5s45.333 -31.5 76 -31.5s56 10.5 76 31.5s30 46.167 30 75.5s-10 54.5 -30 75.5s-45.333 31.5 -76 31.5
s-56 -10.5 -76 -31.5s-30 -46.167 -30 -75.5z" />
    <glyph glyph-name="yen" unicode="&#xa5;" horiz-adv-x="635" 
d="M626 655l-170 -294h112v-90h-164l-11 -19v-45h175v-90h-175v-117h-154v117h-173v90h173v45l-11 19h-162v90h111l-168 294h180l126 -246l132 246h179z" />
    <glyph glyph-name="brokenbar" unicode="&#xa6;" horiz-adv-x="280" 
d="M210 369h-140v338h140v-338zM210 -117h-140v338h140v-338z" />
    <glyph glyph-name="section" unicode="&#xa7;" horiz-adv-x="599" 
d="M228 322l-12 5.99707c-7.33301 -12.667 -11 -25 -11 -37c0 -18.667 8.66699 -35 26 -49s48.333 -30.667 93 -50c22 -9.33301 39 -17.333 51 -24c5.33301 10.667 8 21.334 8 32.001c0 9.33301 -1.83301 17.833 -5.5 25.5s-8 14.334 -13 20.001s-13 11.834 -24 18.501
s-20.833 12.167 -29.5 16.5l-39 19.5zM479 644.997l-0.000976562 -143.999c-55.333 32 -111.333 48 -168 48c-51.333 0 -77 -16.333 -77 -49c0 -5.33301 0.833008 -10.333 2.5 -15s5 -9.16699 10 -13.5s10 -8.33301 15 -12s12.667 -8.33398 23 -14.001l29 -15.5l37.5 -19
c16 -8 30.667 -15.667 44 -23c46 -24 80.167 -50 102.5 -78s33.5 -65.667 33.5 -113c0 -43.333 -14 -81.666 -42 -114.999c20.667 -27.333 31 -57.333 31 -90c0 -55.333 -21.5 -99 -64.5 -131s-101.5 -48 -175.5 -48c-79.333 0 -144 14 -194 42v155
c60.667 -44 125.334 -66 194.001 -66c54.667 0 82 16 82 48c0 17.333 -10 32.5 -30 45.5s-71.333 37.5 -154 73.5c-80.667 36 -121 97 -121 183c0 41.333 15.333 80.333 46 117c-20 25.333 -30 54.666 -30 87.999c0 54.667 20.5 98.5 61.5 131.5s97.833 49.5 170.5 49.5
c65.333 0 123.333 -11.667 174 -35z" />
    <glyph glyph-name="dieresis" unicode="&#xa8;" horiz-adv-x="500" 
d="M33 710c0 22.667 7.83301 41.834 23.5 57.501s35.5 23.5 59.5 23.5c23.333 0 42.833 -7.83301 58.5 -23.5s23.5 -34.834 23.5 -57.501c0 -23.333 -7.83301 -42.833 -23.5 -58.5s-35.167 -23.5 -58.5 -23.5c-24 0 -43.833 7.83301 -59.5 23.5s-23.5 35.167 -23.5 58.5z
M301 710c0 22.667 7.83301 41.834 23.5 57.501s35.5 23.5 59.5 23.5c23.333 0 43 -7.83301 59 -23.5s24 -34.834 24 -57.501c0 -23.333 -8 -42.833 -24 -58.5s-35.667 -23.5 -59 -23.5c-24 0 -43.833 7.83301 -59.5 23.5s-23.5 35.167 -23.5 58.5z" />
    <glyph glyph-name="copyright" unicode="&#xa9;" horiz-adv-x="761" 
d="M35 338c0 95.333 33.833 176.668 101.5 244.001s149.167 101 244.5 101s176.666 -33.833 243.999 -101.5s101 -148.834 101 -243.501c0 -95.333 -33.667 -176.833 -101 -244.5s-148.666 -101.5 -243.999 -101.5s-176.833 33.833 -244.5 101.5
s-101.5 149.167 -101.5 244.5zM132 337.002c0 -72.667 23.5 -132.334 70.5 -179.001s106.5 -70 178.5 -70c71.333 0 130.5 23.333 177.5 70s70.5 106.334 70.5 179.001c0 71.333 -23.5 130.5 -70.5 177.5s-106.167 70.5 -177.5 70.5c-72 0 -131.5 -23.5 -178.5 -70.5
s-70.5 -106.167 -70.5 -177.5zM334 337.002c1.33301 -23.333 8.83301 -41.499 22.5 -54.499s29.834 -19.5 48.501 -19.5c28.667 0 56 8 82 24v-95c-26 -14 -58 -21 -96 -21c-46 0 -85.833 15.333 -119.5 46s-50.5 70.667 -50.5 120c0.666992 50 16.834 90.667 48.501 122
s74.167 47 127.5 47c32.667 0 62.667 -7.33301 90 -22v-94c-23.333 14.667 -50 22 -80 22c-18.667 0 -35.334 -6.33301 -50.001 -19s-22.334 -31.334 -23.001 -56.001z" />
    <glyph glyph-name="ordfeminine" unicode="&#xaa;" horiz-adv-x="400" 
d="M244 568h-41c-20.667 0 -36.667 -4.5 -48 -13.5s-17 -20.833 -17 -35.5c0 -28.667 17 -43 51 -43c16.667 0 30 5.5 40 16.5s15 25.5 15 43.5v32zM42 689l-0.000976562 111c34.667 18.667 83.667 28 147 28c61.333 0 106.833 -13 136.5 -39s44.5 -66.333 44.5 -121v-276
h-120v52c-17.333 -36.667 -53.333 -55 -108 -55c-41.333 0 -73.666 11.667 -96.999 35s-35 53.333 -35 90c0 40.667 15 72.667 45 96s74.667 35 134 35h55v28c0 36 -24.333 54 -73 54c-46 0 -89 -12.667 -129 -38z" />
    <glyph glyph-name="guillemotleft" unicode="&#xab;" horiz-adv-x="592" 
d="M330 415l-146 -162l146 -162h-152l-152 162l152 162h152zM550 415l-146 -162l146 -162h-152l-152 162l152 162h152z" />
    <glyph glyph-name="logicalnot" unicode="&#xac;" horiz-adv-x="603" 
d="M558 136h-120v165h-393v116h513v-281z" />
    <glyph glyph-name="uni00AD" unicode="&#xad;" horiz-adv-x="357" 
d="M45 202v120h267v-120h-267z" />
    <glyph glyph-name="registered" unicode="&#xae;" horiz-adv-x="492" 
d="M228 632v-61h22c8.66699 0 15.5 3 20.5 9s7.5 13.333 7.5 22c0 20 -10.667 30 -32 30h-18zM174 677h70c60.667 0 91 -25 91 -75c0 -32 -12.667 -54 -38 -66l60 -96h-66l-50 86h-13v-86h-54v237zM247 376c52.667 0 94.834 16 126.501 48s47.5 74.333 47.5 127
s-15.833 95.334 -47.5 128.001s-73.834 49 -126.501 49c-53.333 0 -95.833 -16.333 -127.5 -49s-47.5 -75.334 -47.5 -128.001s15.833 -95 47.5 -127s74.167 -48 127.5 -48zM246 786c68 0 124.333 -22.168 169 -66.501s67 -100.5 67 -168.5s-22.333 -124 -67 -168
s-101 -66 -169 -66c-68.667 0 -125.167 21.833 -169.5 65.5s-66.5 99.834 -66.5 168.501s22.167 125 66.5 169s100.833 66 169.5 66z" />
    <glyph glyph-name="macron" unicode="&#xaf;" horiz-adv-x="500" 
d="M428 651h-356v99h356v-99z" />
    <glyph glyph-name="degree" unicode="&#xb0;" horiz-adv-x="440" 
d="M30 495c0 52.667 18.5 97.5 55.5 134.5s81.833 55.5 134.5 55.5s97.5 -18.5 134.5 -55.5s55.5 -81.833 55.5 -134.5s-18.5 -97.5 -55.5 -134.5s-81.833 -55.5 -134.5 -55.5s-97.5 18.5 -134.5 55.5s-55.5 81.833 -55.5 134.5zM132 495c0 -24 8.66699 -44.667 26 -62
s38 -26 62 -26s44.667 8.66699 62 26s26 38 26 62s-8.66699 44.667 -26 62s-38 26 -62 26s-44.667 -8.66699 -62 -26s-26 -38 -26 -62z" />
    <glyph glyph-name="plusminus" unicode="&#xb1;" horiz-adv-x="589" 
d="M45 28v120h499v-120h-499zM361 446h183v-120h-183v-140h-134v140h-182v120h182v139h134v-139z" />
    <glyph glyph-name="twosuperior" unicode="&#xb2;" horiz-adv-x="365" 
d="M35 392v77.001c48 34.667 88.333 70.667 121 108s49 70.666 49 99.999c0 34 -20.333 51 -61 51c-31.333 0 -64.333 -12.333 -99 -37v105c34.667 22 73.667 33 117 33c46 0 83.167 -12.167 111.5 -36.5s42.5 -57.833 42.5 -100.5c0 -76.667 -49.333 -146.667 -148 -210
h162v-90h-295z" />
    <glyph glyph-name="threesuperior" unicode="&#xb3;" horiz-adv-x="353" 
d="M109 654l14 -0.00195312c51.333 0 77 13.667 77 41s-17.333 41 -52 41c-34 0 -66.333 -11.667 -97 -35v101c31.333 18 67 27 107 27c47.333 0 84.666 -11.167 111.999 -33.5s41 -51.5 41 -87.5c0 -26 -7.16699 -47.5 -21.5 -64.5s-34.166 -28.167 -59.499 -33.5
c25.333 -2.66699 46.333 -12.667 63 -30s25 -40.666 25 -69.999c0 -36.667 -13.833 -66.167 -41.5 -88.5s-64.834 -33.5 -111.501 -33.5c-53.333 0 -96.666 9 -129.999 27v94c38 -20 75.667 -30 113 -30c18.667 0 33.5 4.33301 44.5 13s16.5 19.334 16.5 32.001
c0 27.333 -28.333 41 -85 41h-15v89z" />
    <glyph glyph-name="acute" unicode="&#xb4;" horiz-adv-x="500" 
d="M134 621l86 177h146l-111 -177h-121z" />
    <glyph glyph-name="uni00B5" unicode="&#xb5;" horiz-adv-x="585" 
d="M379 507h146.001v-507h-146v60c-22.667 -42.667 -57.334 -64 -104.001 -64c-24 0 -47 4.66699 -69 14v-190h-146v687h146v-306c0 -28.667 8.33301 -50.667 25 -66s37.667 -23 63 -23c29.333 0 50.833 9.5 64.5 28.5s20.5 51.833 20.5 98.5v268z" />
    <glyph glyph-name="paragraph" unicode="&#xb6;" horiz-adv-x="592" 
d="M324 674l0.000976562 -821.999h-111v465c-64.667 0 -114.667 17.5 -150 52.5s-53 77.5 -53 127.5c0 49.333 18.167 91.166 54.5 125.499s92.166 51.5 167.499 51.5h92zM416.001 -147.999l1 822h110v-822h-111z" />
    <glyph glyph-name="periodcentered" unicode="&#xb7;" horiz-adv-x="268" 
d="M45 252c0 24.667 8.66699 45.667 26 63s38.333 26 63 26s45.667 -8.66699 63 -26s26 -38.333 26 -63s-8.66699 -45.667 -26 -63s-38.333 -26 -63 -26s-45.667 8.66699 -63 26s-26 38.333 -26 63z" />
    <glyph glyph-name="cedilla" unicode="&#xb8;" horiz-adv-x="500" 
d="M339 -125c0 -42 -15.167 -76.334 -45.5 -103.001s-74.833 -40 -133.5 -40v91c24 0 42.5 5.66699 55.5 17s19.5 27 19.5 47c0 18.667 -8.66699 39.334 -26 62.001h113c11.333 -18 17 -42.667 17 -74z" />
    <glyph glyph-name="onesuperior" unicode="&#xb9;" horiz-adv-x="279" 
d="M10 651v98l134 76h85v-433h-103v321z" />
    <glyph glyph-name="ordmasculine" unicode="&#xba;" horiz-adv-x="442" 
d="M222 386c-68 0 -120.332 20.3311 -156.999 60.998s-55 92.334 -55 155.001c0 66.667 19.167 121.334 57.5 164.001s89.833 64 154.5 64c67.333 0 119.166 -20.667 155.499 -62s54.5 -94 54.5 -158c0 -65.333 -18.5 -119 -55.5 -161s-88.5 -63 -154.5 -63z
M220.001 732.998c-27.333 0 -47.667 -11.6689 -61 -35.002s-20 -53.666 -20 -90.999c0 -36.667 7 -66.667 21 -90s35 -35 63 -35c27.333 0 47.5 11.333 60.5 34s19.5 52.334 19.5 89.001c0 85.333 -27.667 128 -83 128z" />
    <glyph glyph-name="guillemotright" unicode="&#xbb;" horiz-adv-x="591" 
d="M193 415l152 -162l-152 -162h-152l146 162l-146 162h152zM413 415l152 -162l-152 -162h-152l146 162l-146 162h152z" />
    <glyph glyph-name="questiondown" unicode="&#xbf;" horiz-adv-x="458" 
d="M428 -7l0.00195312 -137c-40 -18.667 -91 -28 -153 -28c-62.667 0 -113.334 16.5 -152.001 49.5s-58 77.5 -58 133.5c0 30 6 57.167 18 81.5s27 43.333 45 57s35.667 24.167 53 31.5s33 11 47 11l3 82h133l3 -151c-102.667 0 -154 -31.333 -154 -94
c0 -24 7.16699 -43.167 21.5 -57.5s35.5 -21.5 63.5 -21.5c43.333 0 86.666 14.333 129.999 43zM390.002 427c0 -25.333 -8.83301 -46.833 -26.5 -64.5s-39.167 -26.5 -64.5 -26.5s-46.833 8.83301 -64.5 26.5s-26.5 39.167 -26.5 64.5s8.83301 46.833 26.5 64.5
s39.167 26.5 64.5 26.5s46.833 -8.83301 64.5 -26.5s26.5 -39.167 26.5 -64.5z" />
    <glyph glyph-name="Agrave" unicode="&#xc0;" horiz-adv-x="690" 
d="M406 721h-121l-111 177h146zM262 262h161.999l-7 24c-19.333 65.333 -35.166 121 -47.499 167s-19.833 75.667 -22.5 89l-4 20c-5.33301 -36.667 -30 -128.667 -74 -276zM501.999 0l-41 138h-236l-41 -138h-161l225 674h194l225 -674h-165z" />
    <glyph glyph-name="Aacute" unicode="&#xc1;" horiz-adv-x="690" 
d="M527 898l-111 -177h-121l86 177h146zM262 262h161.999l-7 24c-19.333 65.333 -35.166 121 -47.499 167s-19.833 75.667 -22.5 89l-4 20c-5.33301 -36.667 -30 -128.667 -74 -276zM501.999 0l-41 138h-236l-41 -138h-161l225 674h194l225 -674h-165z" />
    <glyph glyph-name="Acircumflex" unicode="&#xc2;" horiz-adv-x="690" 
d="M346 817l-79 -96h-139l156 177h124l156 -177h-139zM262 262h161.999l-7 24c-19.333 65.333 -35.166 121 -47.499 167s-19.833 75.667 -22.5 89l-4 20c-5.33301 -36.667 -30 -128.667 -74 -276zM501.999 0l-41 138h-236l-41 -138h-161l225 674h194l225 -674h-165z" />
    <glyph glyph-name="Atilde" unicode="&#xc3;" horiz-adv-x="690" 
d="M471 887l74 -61c-28.667 -56.667 -74 -85 -136 -85c-22 0 -45 5.83301 -69 17.5s-41 17.5 -51 17.5c-16.667 0 -29.667 -2.83301 -39 -8.5s-21.333 -17.167 -36 -34.5l-65 64c10.667 22.667 26.5 42 47.5 58s43.833 24 68.5 24c24 0 49.5 -5.83301 76.5 -17.5
s46.833 -17.5 59.5 -17.5c32.667 0 56 14.333 70 43zM262 262h161.999l-7 24c-19.333 65.333 -35.166 121 -47.499 167s-19.833 75.667 -22.5 89l-4 20c-5.33301 -36.667 -30 -128.667 -74 -276zM501.999 0l-41 138h-236l-41 -138h-161l225 674h194l225 -674h-165z" />
    <glyph glyph-name="Adieresis" unicode="&#xc4;" horiz-adv-x="690" 
d="M486 728c-24 0 -43.833 7.83301 -59.5 23.5s-23.5 35.167 -23.5 58.5c0 22.667 7.83301 41.834 23.5 57.501s35.5 23.5 59.5 23.5c23.333 0 43 -7.83301 59 -23.5s24 -34.834 24 -57.501c0 -23.333 -8 -42.833 -24 -58.5s-35.667 -23.5 -59 -23.5zM218 728
c-24 0 -43.833 7.83301 -59.5 23.5s-23.5 35.167 -23.5 58.5c0 22.667 7.83301 41.834 23.5 57.501s35.5 23.5 59.5 23.5c23.333 0 42.833 -7.83301 58.5 -23.5s23.5 -34.834 23.5 -57.501c0 -23.333 -7.83301 -42.833 -23.5 -58.5s-35.167 -23.5 -58.5 -23.5zM262 262
h161.999l-7 24c-19.333 65.333 -35.166 121 -47.499 167s-19.833 75.667 -22.5 89l-4 20c-5.33301 -36.667 -30 -128.667 -74 -276zM501.999 0l-41 138h-236l-41 -138h-161l225 674h194l225 -674h-165z" />
    <glyph glyph-name="Aring" unicode="&#xc5;" horiz-adv-x="690" 
d="M349 905c-15.333 0 -28 -5.5 -38 -16.5s-15 -24.167 -15 -39.5s5 -28.5 15 -39.5s22.667 -16.5 38 -16.5s28 5.5 38 16.5s15 24.167 15 39.5s-5 28.5 -15 39.5s-22.667 16.5 -38 16.5zM349 710c-37.333 0 -69.333 13.333 -96 40s-40 58.667 -40 96s13.333 69.333 40 96
s58.667 40 96 40s69.333 -13.333 96 -40s40 -58.667 40 -96s-13.333 -69.333 -40 -96s-58.667 -40 -96 -40zM262 262h161.999l-7 24c-19.333 65.333 -35.166 121 -47.499 167s-19.833 75.667 -22.5 89l-4 20c-5.33301 -36.667 -30 -128.667 -74 -276zM501.999 0l-41 138
h-236l-41 -138h-161l225 674h194l225 -674h-165z" />
    <glyph glyph-name="AE" unicode="&#xc6;" horiz-adv-x="940" 
d="M301 262h165.999v352c-27.333 -70.667 -78.666 -180 -153.999 -328zM615.999 123h264v-123h-413v138h-229l-69 -138h-161l325 674h543v-123h-260v-153h232v-122h-232v-153z" />
    <glyph glyph-name="Ccedilla" unicode="&#xc7;" horiz-adv-x="613" 
d="M318 -51l113 -0.000976562c11.333 -18 17 -42.667 17 -74c0 -42 -15.167 -76.333 -45.5 -103s-74.833 -40 -133.5 -40v91c24 0 42.5 5.66699 55.5 17s19.5 27 19.5 47c0 18.667 -8.66699 39.334 -26 62.001zM563 644.999l0.000976562 -148.001
c-50 30.667 -105.667 46 -167 46c-54 0 -99.333 -18.833 -136 -56.5s-55 -88.167 -55 -151.5c0 -62 18.333 -111.167 55 -147.5s84 -54.5 142 -54.5c62.667 0 116.334 16 161.001 48v-151c-40.667 -25.333 -99.334 -38 -176.001 -38c-98.667 0 -181.167 31.833 -247.5 95.5
s-99.5 146.167 -99.5 247.5c0 102.667 32.167 186.334 96.5 251.001s148.166 97 251.499 97c76 0 134.333 -12.667 175 -38z" />
    <glyph glyph-name="Egrave" unicode="&#xc8;" horiz-adv-x="544" 
d="M346 721h-121l-111 177h146zM220 123h264v-123h-419v674h415v-123h-260v-153h232v-122h-232v-153z" />
    <glyph glyph-name="Eacute" unicode="&#xc9;" horiz-adv-x="544" 
d="M454 898l-111 -177h-121l86 177h146zM220 123h264v-123h-419v674h415v-123h-260v-153h232v-122h-232v-153z" />
    <glyph glyph-name="Ecircumflex" unicode="&#xca;" horiz-adv-x="544" 
d="M272 817l-79 -96h-139l156 177h124l156 -177h-139zM220 276v-153h264v-123h-419v674h415v-123h-260v-153h232v-122h-232z" />
    <glyph glyph-name="Edieresis" unicode="&#xcb;" horiz-adv-x="544" 
d="M406 727c-24 0 -43.833 7.83301 -59.5 23.5s-23.5 35.167 -23.5 58.5c0 22.667 7.83301 41.834 23.5 57.501s35.5 23.5 59.5 23.5c23.333 0 43 -7.83301 59 -23.5s24 -34.834 24 -57.501c0 -23.333 -8 -42.833 -24 -58.5s-35.667 -23.5 -59 -23.5zM138 727
c-24 0 -43.833 7.83301 -59.5 23.5s-23.5 35.167 -23.5 58.5c0 22.667 7.83301 41.834 23.5 57.501s35.5 23.5 59.5 23.5c23.333 0 42.833 -7.83301 58.5 -23.5s23.5 -34.834 23.5 -57.501c0 -23.333 -7.83301 -42.833 -23.5 -58.5s-35.167 -23.5 -58.5 -23.5zM220 276v-153
h264v-123h-419v674h415v-123h-260v-153h232v-122h-232z" />
    <glyph glyph-name="Igrave" unicode="&#xcc;" horiz-adv-x="304" 
d="M75 0v674h154v-674h-154zM122 898l86 -177h-121l-111 177h146z" />
    <glyph glyph-name="Iacute" unicode="&#xcd;" horiz-adv-x="304" 
d="M75 0v674h154v-674h-154zM94 721l86 177h146l-111 -177h-121z" />
    <glyph glyph-name="Icircumflex" unicode="&#xce;" horiz-adv-x="304" 
d="M92 898h124l156 -177h-139l-79 96l-79 -96h-139zM75 0v674h154v-674h-154z" />
    <glyph glyph-name="Idieresis" unicode="&#xcf;" horiz-adv-x="304" 
d="M75 0v674h154v-674h-154zM-59 810c0 22.667 7.83301 41.834 23.5 57.501s35.5 23.5 59.5 23.5c23.333 0 42.833 -7.83301 58.5 -23.5s23.5 -34.834 23.5 -57.501c0 -23.333 -7.83301 -42.833 -23.5 -58.5s-35.167 -23.5 -58.5 -23.5c-24 0 -43.833 7.83301 -59.5 23.5
s-23.5 35.167 -23.5 58.5zM209 810c0 22.667 7.83301 41.834 23.5 57.501s35.5 23.5 59.5 23.5c23.333 0 43 -7.83301 59 -23.5s24 -34.834 24 -57.501c0 -23.333 -8 -42.833 -24 -58.5s-35.667 -23.5 -59 -23.5c-24 0 -43.833 7.83301 -59.5 23.5s-23.5 35.167 -23.5 58.5z
" />
    <glyph glyph-name="Eth" unicode="&#xd0;" horiz-adv-x="749" 
d="M289 126l70 -0.000976562c62 0 109.833 19.333 143.5 58s50.5 93.334 50.5 164.001c0 60 -17 108.167 -51 144.5s-82 54.5 -144 54.5h-69v-154h138v-124h-138v-143zM131 673.999h232.001c101.333 0 184.333 -31.167 249 -93.5s97 -139.833 97 -232.5
c0 -108 -31.833 -193 -95.5 -255s-147.834 -93 -252.501 -93h-230v269h-66v124h66v281z" />
    <glyph glyph-name="Ntilde" unicode="&#xd1;" horiz-adv-x="697" 
d="M65 0l-0.000976562 674h169l157 -279c22 -39.333 41.167 -76.166 57.5 -110.499s26.833 -58.5 31.5 -72.5l8 -22c-6.66699 49.333 -10 117.666 -10 204.999v279h154v-674h-169l-161 279c-21.333 36 -40.166 71.5 -56.499 106.5s-27.5 60.833 -33.5 77.5l-8 25
c10 -60 15 -129.667 15 -209v-279h-154zM477.999 887l74 -61c-28 -56.667 -73.333 -85 -136 -85c-22 0 -45 5.83301 -69 17.5s-41 17.5 -51 17.5c-16.667 0 -29.667 -2.83301 -39 -8.5s-21.333 -17.167 -36 -34.5l-65 64c10.667 22.667 26.5 42 47.5 58s43.833 24 68.5 24
c24 0 49.5 -5.83301 76.5 -17.5s46.833 -17.5 59.5 -17.5c32 0 55.333 14.333 70 43z" />
    <glyph glyph-name="Ograve" unicode="&#xd2;" horiz-adv-x="736" 
d="M40 339c0 103.333 29.833 186.833 89.5 250.5s139.167 95.5 238.5 95.5c100 0 179.667 -31.667 239 -95s89 -147 89 -251c0 -103.333 -29.833 -186.833 -89.5 -250.5s-139.167 -95.5 -238.5 -95.5c-100 0 -179.667 31.667 -239 95s-89 147 -89 251zM205 339
c0 -63.333 14.667 -113.5 44 -150.5s69 -55.5 119 -55.5s89.667 18.5 119 55.5s44 87.167 44 150.5s-14.667 113.5 -44 150.5s-69 55.5 -119 55.5s-89.667 -18.5 -119 -55.5s-44 -87.167 -44 -150.5zM352 898l86 -177h-121l-111 177h146z" />
    <glyph glyph-name="Oacute" unicode="&#xd3;" horiz-adv-x="736" 
d="M311 721l86 177h146l-111 -177h-121zM40 339c0 103.333 29.833 186.833 89.5 250.5s139.167 95.5 238.5 95.5c100 0 179.667 -31.667 239 -95s89 -147 89 -251c0 -103.333 -29.833 -186.833 -89.5 -250.5s-139.167 -95.5 -238.5 -95.5c-100 0 -179.667 31.667 -239 95
s-89 147 -89 251zM205 339c0 -63.333 14.667 -113.5 44 -150.5s69 -55.5 119 -55.5s89.667 18.5 119 55.5s44 87.167 44 150.5s-14.667 113.5 -44 150.5s-69 55.5 -119 55.5s-89.667 -18.5 -119 -55.5s-44 -87.167 -44 -150.5z" />
    <glyph glyph-name="Ocircumflex" unicode="&#xd4;" horiz-adv-x="736" 
d="M205 339c0 -63.333 14.667 -113.5 44 -150.5s69 -55.5 119 -55.5s89.667 18.5 119 55.5s44 87.167 44 150.5s-14.667 113.5 -44 150.5s-69 55.5 -119 55.5s-89.667 -18.5 -119 -55.5s-44 -87.167 -44 -150.5zM40 339c0 103.333 29.833 186.833 89.5 250.5
s139.167 95.5 238.5 95.5c100 0 179.667 -31.667 239 -95s89 -147 89 -251c0 -103.333 -29.833 -186.833 -89.5 -250.5s-139.167 -95.5 -238.5 -95.5c-100 0 -179.667 31.667 -239 95s-89 147 -89 251zM310 898h124l156 -177h-139l-79 96l-79 -96h-139z" />
    <glyph glyph-name="Otilde" unicode="&#xd5;" horiz-adv-x="736" 
d="M40 339c0 103.333 29.833 186.833 89.5 250.5s139.167 95.5 238.5 95.5c100 0 179.667 -31.667 239 -95s89 -147 89 -251c0 -103.333 -29.833 -186.833 -89.5 -250.5s-139.167 -95.5 -238.5 -95.5c-100 0 -179.667 31.667 -239 95s-89 147 -89 251zM205 339
c0 -63.333 14.667 -113.5 44 -150.5s69 -55.5 119 -55.5s89.667 18.5 119 55.5s44 87.167 44 150.5s-14.667 113.5 -44 150.5s-69 55.5 -119 55.5s-89.667 -18.5 -119 -55.5s-44 -87.167 -44 -150.5zM492 886l74 -61c-28 -56.667 -73.333 -85 -136 -85
c-22 0 -45 5.83301 -69 17.5s-41 17.5 -51 17.5c-16.667 0 -29.667 -2.83301 -39 -8.5s-21.333 -17.167 -36 -34.5l-65 64c10.667 22.667 26.5 42 47.5 58s43.833 24 68.5 24c24 0 49.5 -5.83301 76.5 -17.5s46.833 -17.5 59.5 -17.5c32 0 55.333 14.333 70 43z" />
    <glyph glyph-name="Odieresis" unicode="&#xd6;" horiz-adv-x="736" 
d="M160 810c0 22.667 7.83301 41.834 23.5 57.501s35.5 23.5 59.5 23.5c23.333 0 42.833 -7.83301 58.5 -23.5s23.5 -34.834 23.5 -57.501c0 -23.333 -7.83301 -42.833 -23.5 -58.5s-35.167 -23.5 -58.5 -23.5c-24 0 -43.833 7.83301 -59.5 23.5s-23.5 35.167 -23.5 58.5z
M428 810c0 22.667 7.83301 41.834 23.5 57.501s35.5 23.5 59.5 23.5c23.333 0 43 -7.83301 59 -23.5s24 -34.834 24 -57.501c0 -23.333 -8 -42.833 -24 -58.5s-35.667 -23.5 -59 -23.5c-24 0 -43.833 7.83301 -59.5 23.5s-23.5 35.167 -23.5 58.5zM40 339
c0 103.333 29.833 186.833 89.5 250.5s139.167 95.5 238.5 95.5c100 0 179.667 -31.667 239 -95s89 -147 89 -251c0 -103.333 -29.833 -186.833 -89.5 -250.5s-139.167 -95.5 -238.5 -95.5c-100 0 -179.667 31.667 -239 95s-89 147 -89 251zM205 339
c0 -63.333 14.667 -113.5 44 -150.5s69 -55.5 119 -55.5s89.667 18.5 119 55.5s44 87.167 44 150.5s-14.667 113.5 -44 150.5s-69 55.5 -119 55.5s-89.667 -18.5 -119 -55.5s-44 -87.167 -44 -150.5z" />
    <glyph glyph-name="multiply" unicode="&#xd7;" horiz-adv-x="530" 
d="M487 209l-92 -92l-130 129l-127 -127l-95 94l128 128l-129 128l92 92l129 -128l127 127l95 -94l-128 -128z" />
    <glyph glyph-name="Oslash" unicode="&#xd8;" horiz-adv-x="714" 
d="M519 445l-225 -305c21.333 -10 45.333 -15 72 -15c52 0 93.333 19.333 124 58s46 90.667 46 156c0 40.667 -5.66699 76 -17 106zM214 230l227 307c-23.333 10.667 -48.333 16 -75 16c-52 0 -93.333 -19.333 -124 -58s-46 -90.667 -46 -156c0 -42.667 6 -79 18 -109z
M695 684l-79 -107.001c52 -61.333 78 -140.666 78 -237.999c0 -103.333 -29.833 -186.833 -89.5 -250.5s-139.167 -95.5 -238.5 -95.5c-57.333 0 -109.333 11.333 -156 34l-25 -34h-146l78 106c-52.667 62 -79 142 -79 240c0 103.333 29.833 186.833 89.5 250.5
s139.167 95.5 238.5 95.5c59.333 0 112.333 -11.667 159 -35l25 34h145z" />
    <glyph glyph-name="Ugrave" unicode="&#xd9;" horiz-adv-x="668" 
d="M454 260v414h154v-413c0 -88 -24.667 -155.167 -74 -201.5s-116 -69.5 -200 -69.5c-82.667 0 -149 23 -199 69s-75 111 -75 195v420h154v-419c0 -83.333 40 -125 120 -125s120 43.333 120 130zM316 898l86 -177h-121l-111 177h146z" />
    <glyph glyph-name="Uacute" unicode="&#xda;" horiz-adv-x="668" 
d="M287 721l86 177h146l-111 -177h-121zM454 260v414h154v-413c0 -88 -24.667 -155.167 -74 -201.5s-116 -69.5 -200 -69.5c-82.667 0 -149 23 -199 69s-75 111 -75 195v420h154v-419c0 -83.333 40 -125 120 -125s120 43.333 120 130z" />
    <glyph glyph-name="Ucircumflex" unicode="&#xdb;" horiz-adv-x="668" 
d="M454 260v414h154v-413c0 -88 -24.667 -155.167 -74 -201.5s-116 -69.5 -200 -69.5c-82.667 0 -149 23 -199 69s-75 111 -75 195v420h154v-419c0 -83.333 40 -125 120 -125s120 43.333 120 130zM270 898h124l156 -177h-139l-79 96l-79 -96h-139z" />
    <glyph glyph-name="Udieresis" unicode="&#xdc;" horiz-adv-x="668" 
d="M122 809c0 22.667 7.83301 41.834 23.5 57.501s35.5 23.5 59.5 23.5c23.333 0 42.833 -7.83301 58.5 -23.5s23.5 -34.834 23.5 -57.501c0 -23.333 -7.83301 -42.833 -23.5 -58.5s-35.167 -23.5 -58.5 -23.5c-24 0 -43.833 7.83301 -59.5 23.5s-23.5 35.167 -23.5 58.5z
M390 809c0 22.667 7.83301 41.834 23.5 57.501s35.5 23.5 59.5 23.5c23.333 0 43 -7.83301 59 -23.5s24 -34.834 24 -57.501c0 -23.333 -8 -42.833 -24 -58.5s-35.667 -23.5 -59 -23.5c-24 0 -43.833 7.83301 -59.5 23.5s-23.5 35.167 -23.5 58.5zM454 260v414h154v-413
c0 -88 -24.667 -155.167 -74 -201.5s-116 -69.5 -200 -69.5c-82.667 0 -149 23 -199 69s-75 111 -75 195v420h154v-419c0 -83.333 40 -125 120 -125s120 43.333 120 130z" />
    <glyph glyph-name="Yacute" unicode="&#xdd;" horiz-adv-x="643" 
d="M507 898l-111 -177h-121l86 177h146zM630 674l-233 -426v-248h-154v247l-230 427h180l41 -98l53 -130l27 -70l5 -16c6.66699 30 36 102 88 216l44 98h179z" />
    <glyph glyph-name="Thorn" unicode="&#xde;" horiz-adv-x="563" 
d="M219 232l66 -0.000976562c35.333 0 62 9.66699 80 29s27 44.333 27 75c0 28.667 -8.33301 53.334 -25 74.001s-44 31 -82 31h-66v-209zM219 563.999l78 0.000976562c75.333 0 136 -20.833 182 -62.5s69 -94.834 69 -159.501c0 -74 -24.167 -131.167 -72.5 -171.5
s-107.833 -60.5 -178.5 -60.5h-78v-110h-154v674h154v-110z" />
    <glyph glyph-name="germandbls" unicode="&#xdf;" horiz-adv-x="598" 
d="M280 15l0.000976562 123.001c34 -22 67.667 -33 101 -33c18 0 32.667 4.66699 44 14s17 22 17 38c0 13.333 -5 26 -15 38s-22 23 -36 33l-42.5 31c-14.333 10.667 -26.5 23.834 -36.5 39.501s-15 33.167 -15 52.5c0 25.333 9.5 53.5 28.5 84.5s28.5 54.5 28.5 70.5
c0 38 -20.667 57 -62 57c-60 0 -90 -31 -90 -93v-470h-142v461c0 72.667 19.333 129 58 169s93.667 60 165 60c65.333 0 118.166 -16.833 158.499 -50.5s60.5 -73.834 60.5 -120.501c0 -25.333 -4.66699 -48 -14 -68s-18.5 -36.667 -27.5 -50s-13.5 -25 -13.5 -35
c0 -7.33301 6.83301 -16.666 20.5 -27.999s28.667 -23 45 -35s31.333 -30.833 45 -56.5s20.5 -54.834 20.5 -87.501c0 -50.667 -16.5 -91.334 -49.5 -122.001s-76.833 -46 -131.5 -46c-54 0 -93 8 -117 24z" />
    <glyph glyph-name="agrave" unicode="&#xe0;" horiz-adv-x="516" 
d="M326 554h-121l-111 177h146zM311 208l-47 0.000976562c-24.667 0 -43.667 -5.33301 -57 -16s-20 -24.334 -20 -41.001c0 -34 19.667 -51 59 -51c20.667 0 36.667 6.33301 48 19s17 30 17 52v37zM74 351.001l0.000976562 131c40 22.667 97.667 34 173 34
c72 0 125.667 -15.5 161 -46.5s53 -79.167 53 -144.5v-325h-143v62c-21.333 -43.333 -63.333 -65 -126 -65c-49.333 0 -87.833 14 -115.5 42s-41.5 63 -41.5 105c0 48.667 17.833 86.5 53.5 113.5s88.5 40.5 158.5 40.5h64v35c0 42.667 -28.333 64 -85 64
c-54.667 0 -105.334 -15.333 -152.001 -46z" />
    <glyph glyph-name="aacute" unicode="&#xe1;" horiz-adv-x="516" 
d="M426 731l-111 -177h-121l86 177h146zM311 208l-47 0.000976562c-24.667 0 -43.667 -5.33301 -57 -16s-20 -24.334 -20 -41.001c0 -34 19.667 -51 59 -51c20.667 0 36.667 6.33301 48 19s17 30 17 52v37zM74 351.001l0.000976562 131c40 22.667 97.667 34 173 34
c72 0 125.667 -15.5 161 -46.5s53 -79.167 53 -144.5v-325h-143v62c-21.333 -43.333 -63.333 -65 -126 -65c-49.333 0 -87.833 14 -115.5 42s-41.5 63 -41.5 105c0 48.667 17.833 86.5 53.5 113.5s88.5 40.5 158.5 40.5h64v35c0 42.667 -28.333 64 -85 64
c-54.667 0 -105.334 -15.333 -152.001 -46z" />
    <glyph glyph-name="acircumflex" unicode="&#xe2;" horiz-adv-x="516" 
d="M256 650l-79 -96h-139l156 177h124l156 -177h-139zM311 208l-47 0.000976562c-24.667 0 -43.667 -5.33301 -57 -16s-20 -24.334 -20 -41.001c0 -34 19.667 -51 59 -51c20.667 0 36.667 6.33301 48 19s17 30 17 52v37zM74 351.001l0.000976562 131
c40 22.667 97.667 34 173 34c72 0 125.667 -15.5 161 -46.5s53 -79.167 53 -144.5v-325h-143v62c-21.333 -43.333 -63.333 -65 -126 -65c-49.333 0 -87.833 14 -115.5 42s-41.5 63 -41.5 105c0 48.667 17.833 86.5 53.5 113.5s88.5 40.5 158.5 40.5h64v35
c0 42.667 -28.333 64 -85 64c-54.667 0 -105.334 -15.333 -152.001 -46z" />
    <glyph glyph-name="atilde" unicode="&#xe3;" horiz-adv-x="516" 
d="M380 720l74 -61c-28 -56.667 -73.333 -85 -136 -85c-22 0 -45 5.83301 -69 17.5s-41 17.5 -51 17.5c-16.667 0 -29.667 -2.83301 -39 -8.5s-21.333 -17.167 -36 -34.5l-65 64c10.667 22.667 26.5 42 47.5 58s43.833 24 68.5 24c24 0 49.5 -5.83301 76.5 -17.5
s46.833 -17.5 59.5 -17.5c32 0 55.333 14.333 70 43zM311 208l-47 0.000976562c-24.667 0 -43.667 -5.33301 -57 -16s-20 -24.334 -20 -41.001c0 -34 19.667 -51 59 -51c20.667 0 36.667 6.33301 48 19s17 30 17 52v37zM74 351.001l0.000976562 131
c40 22.667 97.667 34 173 34c72 0 125.667 -15.5 161 -46.5s53 -79.167 53 -144.5v-325h-143v62c-21.333 -43.333 -63.333 -65 -126 -65c-49.333 0 -87.833 14 -115.5 42s-41.5 63 -41.5 105c0 48.667 17.833 86.5 53.5 113.5s88.5 40.5 158.5 40.5h64v35
c0 42.667 -28.333 64 -85 64c-54.667 0 -105.334 -15.333 -152.001 -46z" />
    <glyph glyph-name="adieresis" unicode="&#xe4;" horiz-adv-x="516" 
d="M399 561c-24 0 -43.833 7.83301 -59.5 23.5s-23.5 35.167 -23.5 58.5c0 22.667 7.83301 41.834 23.5 57.501s35.5 23.5 59.5 23.5c23.333 0 43 -7.83301 59 -23.5s24 -34.834 24 -57.501c0 -23.333 -8 -42.833 -24 -58.5s-35.667 -23.5 -59 -23.5zM131 561
c-24 0 -43.833 7.83301 -59.5 23.5s-23.5 35.167 -23.5 58.5c0 22.667 7.83301 41.834 23.5 57.501s35.5 23.5 59.5 23.5c23.333 0 42.833 -7.83301 58.5 -23.5s23.5 -34.834 23.5 -57.501c0 -23.333 -7.83301 -42.833 -23.5 -58.5s-35.167 -23.5 -58.5 -23.5zM311 208
l-47 0.000976562c-24.667 0 -43.667 -5.33301 -57 -16s-20 -24.334 -20 -41.001c0 -34 19.667 -51 59 -51c20.667 0 36.667 6.33301 48 19s17 30 17 52v37zM74 351.001l0.000976562 131c40 22.667 97.667 34 173 34c72 0 125.667 -15.5 161 -46.5s53 -79.167 53 -144.5v-325
h-143v62c-21.333 -43.333 -63.333 -65 -126 -65c-49.333 0 -87.833 14 -115.5 42s-41.5 63 -41.5 105c0 48.667 17.833 86.5 53.5 113.5s88.5 40.5 158.5 40.5h64v35c0 42.667 -28.333 64 -85 64c-54.667 0 -105.334 -15.333 -152.001 -46z" />
    <glyph glyph-name="aring" unicode="&#xe5;" horiz-adv-x="516" 
d="M260 738c-15.333 0 -28 -5.5 -38 -16.5s-15 -24.167 -15 -39.5s5 -28.5 15 -39.5s22.667 -16.5 38 -16.5s28 5.5 38 16.5s15 24.167 15 39.5s-5 28.5 -15 39.5s-22.667 16.5 -38 16.5zM260 543c-37.333 0 -69.333 13.333 -96 40s-40 58.667 -40 96s13.333 69.333 40 96
s58.667 40 96 40s69.333 -13.333 96 -40s40 -58.667 40 -96s-13.333 -69.333 -40 -96s-58.667 -40 -96 -40zM311 208l-47 0.000976562c-24.667 0 -43.667 -5.33301 -57 -16s-20 -24.334 -20 -41.001c0 -34 19.667 -51 59 -51c20.667 0 36.667 6.33301 48 19s17 30 17 52v37z
M74 351.001l0.000976562 131c40 22.667 97.667 34 173 34c72 0 125.667 -15.5 161 -46.5s53 -79.167 53 -144.5v-325h-143v62c-21.333 -43.333 -63.333 -65 -126 -65c-49.333 0 -87.833 14 -115.5 42s-41.5 63 -41.5 105c0 48.667 17.833 86.5 53.5 113.5
s88.5 40.5 158.5 40.5h64v35c0 42.667 -28.333 64 -85 64c-54.667 0 -105.334 -15.333 -152.001 -46z" />
    <glyph glyph-name="ae" unicode="&#xe6;" horiz-adv-x="808" 
d="M316 171v37.001h-47c-24.667 0 -43.667 -5.33301 -57 -16s-20 -24.334 -20 -41.001c0 -34 19.667 -51 59 -51c20.667 0 36.667 6.33301 48 19s17 30 17 52zM632 300.001v11c-4.66699 60 -30.667 90 -78 90c-22.667 0 -43.167 -8.66699 -61.5 -26s-30.5 -42.333 -36.5 -75
h176zM760 196.001l-299 0.000976562c10.667 -28 28.334 -49.667 53.001 -65s54.334 -23 89.001 -23c51.333 0 96 14.333 134 43v-122c-35.333 -22.667 -86 -34 -152 -34c-38 0 -75 7.66699 -111 23s-63.333 38.666 -82 69.999c-10.667 -25.333 -30.334 -47 -59.001 -65
s-67 -27 -115 -27c-56.667 0 -100.5 13.333 -131.5 40s-46.5 62.667 -46.5 108c0 48.667 17.833 86.5 53.5 113.5s88.5 40.5 158.5 40.5h64v35c0 42.667 -28.333 64 -85 64c-54.667 0 -105.334 -15.333 -152.001 -46v131c40 22.667 94.333 34 163 34
c36 0 67.167 -6.66699 93.5 -20s44.833 -31.333 55.5 -54c15.333 22 37 39.167 65 51.5s58.667 18.5 92 18.5c68 0 121.667 -19.833 161 -59.5s59 -98.834 59 -177.501c0 -15.333 -2.66699 -41.666 -8 -78.999z" />
    <glyph glyph-name="ccedilla" unicode="&#xe7;" horiz-adv-x="469" 
d="M183 252c2.66699 -44.667 15.999 -79.333 39.999 -104s55.667 -37 95 -37c42 0 82.333 11.667 121 35v-122c-39.333 -21.333 -86.666 -32 -141.999 -32c-76 0 -138.667 24.167 -188 72.5s-74 110.833 -74 187.5c1.33301 76 26 138.833 74 188.5s113.667 74.5 197 74.5
c51.333 0 95.666 -9.66699 132.999 -29v-125c-35.333 22 -74.666 33 -117.999 33c-40.667 0 -73.667 -12.167 -99 -36.5s-38.333 -59.5 -39 -105.5zM368.999 -124.999c0 -42 -15.167 -76.334 -45.5 -103.001s-74.833 -40 -133.5 -40v91c24 0 42.5 5.66699 55.5 17
s19.5 27 19.5 47c0 18.667 -8.66699 39.334 -26 62.001h113c11.333 -18 17 -42.667 17 -74z" />
    <glyph glyph-name="egrave" unicode="&#xe8;" horiz-adv-x="533" 
d="M336 554h-121l-111 177h146zM353 300v12c-4.66699 59.333 -30.667 89 -78 89c-23.333 0 -44 -8.5 -62 -25.5s-30 -42.167 -36 -75.5h176zM458 151l-0.00195312 -122.001c-34.667 -22.667 -87.667 -34 -159 -34c-83.333 0 -148.166 24.167 -194.499 72.5
s-69.5 110.5 -69.5 186.5c0 80.667 22.5 143.834 67.5 189.501s100.5 68.5 166.5 68.5c68 0 121.667 -19.833 161 -59.5s59 -98.834 59 -177.501c0 -15.333 -2.66699 -41.666 -8 -78.999h-298c10 -28 27.333 -49.667 52 -65s54.334 -23 89.001 -23
c51.333 0 96 14.333 134 43z" />
    <glyph glyph-name="eacute" unicode="&#xe9;" horiz-adv-x="533" 
d="M457 730l-111 -177h-121l86 177h146zM353 300v12c-4.66699 59.333 -30.667 89 -78 89c-23.333 0 -44 -8.5 -62 -25.5s-30 -42.167 -36 -75.5h176zM458 151l-0.00195312 -122.001c-34.667 -22.667 -87.667 -34 -159 -34c-83.333 0 -148.166 24.167 -194.499 72.5
s-69.5 110.5 -69.5 186.5c0 80.667 22.5 143.834 67.5 189.501s100.5 68.5 166.5 68.5c68 0 121.667 -19.833 161 -59.5s59 -98.834 59 -177.501c0 -15.333 -2.66699 -41.666 -8 -78.999h-298c10 -28 27.333 -49.667 52 -65s54.334 -23 89.001 -23
c51.333 0 96 14.333 134 43z" />
    <glyph glyph-name="ecircumflex" unicode="&#xea;" horiz-adv-x="533" 
d="M269 650l-79 -96h-139l156 177h124l156 -177h-139zM353 300v12c-4.66699 59.333 -30.667 89 -78 89c-23.333 0 -44 -8.5 -62 -25.5s-30 -42.167 -36 -75.5h176zM458 151l-0.00195312 -122.001c-34.667 -22.667 -87.667 -34 -159 -34
c-83.333 0 -148.166 24.167 -194.499 72.5s-69.5 110.5 -69.5 186.5c0 80.667 22.5 143.834 67.5 189.501s100.5 68.5 166.5 68.5c68 0 121.667 -19.833 161 -59.5s59 -98.834 59 -177.501c0 -15.333 -2.66699 -41.666 -8 -78.999h-298c10 -28 27.333 -49.667 52 -65
s54.334 -23 89.001 -23c51.333 0 96 14.333 134 43z" />
    <glyph glyph-name="edieresis" unicode="&#xeb;" horiz-adv-x="533" 
d="M418 561c-24 0 -43.833 7.83301 -59.5 23.5s-23.5 35.167 -23.5 58.5c0 22.667 7.83301 41.834 23.5 57.501s35.5 23.5 59.5 23.5c23.333 0 43 -7.83301 59 -23.5s24 -34.834 24 -57.501c0 -23.333 -8 -42.833 -24 -58.5s-35.667 -23.5 -59 -23.5zM150 561
c-24 0 -43.833 7.83301 -59.5 23.5s-23.5 35.167 -23.5 58.5c0 22.667 7.83301 41.834 23.5 57.501s35.5 23.5 59.5 23.5c23.333 0 42.833 -7.83301 58.5 -23.5s23.5 -34.834 23.5 -57.501c0 -23.333 -7.83301 -42.833 -23.5 -58.5s-35.167 -23.5 -58.5 -23.5zM353 300v12
c-4.66699 59.333 -30.667 89 -78 89c-23.333 0 -44 -8.5 -62 -25.5s-30 -42.167 -36 -75.5h176zM458 151l-0.00195312 -122.001c-34.667 -22.667 -87.667 -34 -159 -34c-83.333 0 -148.166 24.167 -194.499 72.5s-69.5 110.5 -69.5 186.5
c0 80.667 22.5 143.834 67.5 189.501s100.5 68.5 166.5 68.5c68 0 121.667 -19.833 161 -59.5s59 -98.834 59 -177.501c0 -15.333 -2.66699 -41.666 -8 -78.999h-298c10 -28 27.333 -49.667 52 -65s54.334 -23 89.001 -23c51.333 0 96 14.333 134 43z" />
    <glyph glyph-name="igrave" unicode="&#xec;" horiz-adv-x="276" 
d="M65 0v507h146v-507h-146zM103 731l86 -177h-121l-111 177h146z" />
    <glyph glyph-name="iacute" unicode="&#xed;" horiz-adv-x="276" 
d="M65 0v507h146v-507h-146zM85 554l86 177h146l-111 -177h-121z" />
    <glyph glyph-name="icircumflex" unicode="&#xee;" horiz-adv-x="276" 
d="M77 731h124l156 -177h-139l-79 96l-79 -96h-139zM65 0v507h146v-507h-146z" />
    <glyph glyph-name="idieresis" unicode="&#xef;" horiz-adv-x="276" 
d="M65 0v507h146v-507h-146zM-78 643c0 22.667 7.83301 41.834 23.5 57.501s35.5 23.5 59.5 23.5c23.333 0 42.833 -7.83301 58.5 -23.5s23.5 -34.834 23.5 -57.501c0 -23.333 -7.83301 -42.833 -23.5 -58.5s-35.167 -23.5 -58.5 -23.5c-24 0 -43.833 7.83301 -59.5 23.5
s-23.5 35.167 -23.5 58.5zM190 643c0 22.667 7.83301 41.834 23.5 57.501s35.5 23.5 59.5 23.5c23.333 0 43 -7.83301 59 -23.5s24 -34.834 24 -57.501c0 -23.333 -8 -42.833 -24 -58.5s-35.667 -23.5 -59 -23.5c-24 0 -43.833 7.83301 -59.5 23.5s-23.5 35.167 -23.5 58.5z
" />
    <glyph glyph-name="eth" unicode="&#xf0;" horiz-adv-x="557" 
d="M267 120c25.333 0 46.333 8.33301 63 25s27.667 46.667 33 90c-28 29.333 -60.333 44 -97 44c-26 0 -46.167 -7.5 -60.5 -22.5s-21.5 -35.833 -21.5 -62.5c0 -22 7.5 -39.833 22.5 -53.5s35.167 -20.5 60.5 -20.5zM482 601l-64.999 -31.999c30 -42 53 -87.833 69 -137.5
s24 -97.167 24 -142.5c0 -90 -20.667 -162.333 -62 -217s-101.333 -82 -180 -82c-72.667 0 -129.667 20.667 -171 62s-62 92 -62 152c0 59.333 17.833 107.166 53.5 143.499s81.5 54.5 137.5 54.5c54.667 0 100 -17 136 -51c-8.66699 57.333 -29.334 111 -62.001 161
l-143 -70v81l97 47c-33.333 36 -75.333 70.667 -126 104h184c18.667 -13.333 37.667 -29 57 -47l113 55v-81z" />
    <glyph glyph-name="ntilde" unicode="&#xf1;" horiz-adv-x="580" 
d="M416 720l74 -61c-28 -56.667 -73.333 -85 -136 -85c-22 0 -45 5.83301 -69 17.5s-41 17.5 -51 17.5c-16.667 0 -29.667 -2.83301 -39 -8.5s-21.333 -17.167 -36 -34.5l-65 64c10.667 22.667 26.5 42 47.5 58s43.833 24 68.5 24c24 0 49.5 -5.83301 76.5 -17.5
s46.833 -17.5 59.5 -17.5c32 0 55.333 14.333 70 43zM206 507l0.000976562 -86c12.667 28 32.167 50.167 58.5 66.5s57.833 24.5 94.5 24.5c52 0 92.667 -15.5 122 -46.5s44 -76.5 44 -136.5v-329h-146v302c0 30 -7 52.833 -21 68.5s-33.667 23.5 -59 23.5
c-26.667 0 -48.834 -10.5 -66.501 -31.5s-26.5 -52.5 -26.5 -94.5v-268h-146v507h146z" />
    <glyph glyph-name="ograve" unicode="&#xf2;" horiz-adv-x="567" 
d="M284 -8c-79.333 0 -140.666 23.833 -183.999 71.5s-65 108.834 -65 183.501c0 78 22.667 142.167 68 192.5s105.666 75.5 180.999 75.5c78.667 0 139.667 -24.333 183 -73s65 -110.667 65 -186c0 -76.667 -21.833 -139.834 -65.5 -189.501s-104.5 -74.5 -182.5 -74.5z
M283 400c-32 0 -56 -13.668 -72 -41.001s-24 -62.666 -24 -105.999s8.16699 -78.833 24.5 -106.5s40.833 -41.5 73.5 -41.5c32 0 55.833 13.5 71.5 40.5s23.5 62.167 23.5 105.5c0 99.333 -32.333 149 -97 149zM268 729.999l86 -177h-121l-111 177h146z" />
    <glyph glyph-name="oacute" unicode="&#xf3;" horiz-adv-x="567" 
d="M235 553l86 177h146l-111 -177h-121zM284 -8c-79.333 0 -140.666 23.833 -183.999 71.5s-65 108.834 -65 183.501c0 78 22.667 142.167 68 192.5s105.666 75.5 180.999 75.5c78.667 0 139.667 -24.333 183 -73s65 -110.667 65 -186
c0 -76.667 -21.833 -139.834 -65.5 -189.501s-104.5 -74.5 -182.5 -74.5zM283 400c-32 0 -56 -13.668 -72 -41.001s-24 -62.666 -24 -105.999s8.16699 -78.833 24.5 -106.5s40.833 -41.5 73.5 -41.5c32 0 55.833 13.5 71.5 40.5s23.5 62.167 23.5 105.5
c0 99.333 -32.333 149 -97 149z" />
    <glyph glyph-name="ocircumflex" unicode="&#xf4;" horiz-adv-x="567" 
d="M283 400c-32 0 -56 -13.668 -72 -41.001s-24 -62.666 -24 -105.999s8.16699 -78.833 24.5 -106.5s40.833 -41.5 73.5 -41.5c32 0 55.833 13.5 71.5 40.5s23.5 62.167 23.5 105.5c0 99.333 -32.333 149 -97 149zM284 -8.00098c-79.333 0 -140.666 23.833 -183.999 71.5
s-65 108.834 -65 183.501c0 78 22.667 142.167 68 192.5s105.666 75.5 180.999 75.5c78.667 0 139.667 -24.333 183 -73s65 -110.667 65 -186c0 -76.667 -21.833 -139.834 -65.5 -189.501s-104.5 -74.5 -182.5 -74.5zM225 729.999h124l156 -177h-139l-79 96l-79 -96h-139z
" />
    <glyph glyph-name="otilde" unicode="&#xf5;" horiz-adv-x="567" 
d="M284 -8c-79.333 0 -140.666 23.833 -183.999 71.5s-65 108.834 -65 183.501c0 78 22.667 142.167 68 192.5s105.666 75.5 180.999 75.5c78.667 0 139.667 -24.333 183 -73s65 -110.667 65 -186c0 -76.667 -21.833 -139.834 -65.5 -189.501s-104.5 -74.5 -182.5 -74.5z
M283 400c-32 0 -56 -13.668 -72 -41.001s-24 -62.666 -24 -105.999s8.16699 -78.833 24.5 -106.5s40.833 -41.5 73.5 -41.5c32 0 55.833 13.5 71.5 40.5s23.5 62.167 23.5 105.5c0 99.333 -32.333 149 -97 149zM411 719.999l74 -61c-28.667 -56.667 -74 -85 -136 -85
c-22 0 -45 5.83301 -69 17.5s-41 17.5 -51 17.5c-16.667 0 -29.667 -2.83301 -39 -8.5s-21.333 -17.167 -36 -34.5l-65 64c10.667 22.667 26.5 42 47.5 58s43.833 24 68.5 24c24 0 49.5 -5.83301 76.5 -17.5s46.833 -17.5 59.5 -17.5c32.667 0 56 14.333 70 43z" />
    <glyph glyph-name="odieresis" unicode="&#xf6;" horiz-adv-x="567" 
d="M78 644c0 22.667 7.83301 41.834 23.5 57.501s35.5 23.5 59.5 23.5c23.333 0 42.833 -7.83301 58.5 -23.5s23.5 -34.834 23.5 -57.501c0 -23.333 -7.83301 -42.833 -23.5 -58.5s-35.167 -23.5 -58.5 -23.5c-24 0 -43.833 7.83301 -59.5 23.5s-23.5 35.167 -23.5 58.5z
M346 644c0 22.667 7.83301 41.834 23.5 57.501s35.5 23.5 59.5 23.5c23.333 0 43 -7.83301 59 -23.5s24 -34.834 24 -57.501c0 -23.333 -8 -42.833 -24 -58.5s-35.667 -23.5 -59 -23.5c-24 0 -43.833 7.83301 -59.5 23.5s-23.5 35.167 -23.5 58.5zM284 -8
c-79.333 0 -140.666 23.833 -183.999 71.5s-65 108.834 -65 183.501c0 78 22.667 142.167 68 192.5s105.666 75.5 180.999 75.5c78.667 0 139.667 -24.333 183 -73s65 -110.667 65 -186c0 -76.667 -21.833 -139.834 -65.5 -189.501s-104.5 -74.5 -182.5 -74.5zM283 400
c-32 0 -56 -13.668 -72 -41.001s-24 -62.666 -24 -105.999s8.16699 -78.833 24.5 -106.5s40.833 -41.5 73.5 -41.5c32 0 55.833 13.5 71.5 40.5s23.5 62.167 23.5 105.5c0 99.333 -32.333 149 -97 149z" />
    <glyph glyph-name="divide" unicode="&#xf7;" horiz-adv-x="589" 
d="M214 516c0 20.667 7.5 38.5 22.5 53.5s32.833 22.5 53.5 22.5s38.5 -7.5 53.5 -22.5s22.5 -32.833 22.5 -53.5s-7.5 -38.5 -22.5 -53.5s-32.833 -22.5 -53.5 -22.5s-38.5 7.5 -53.5 22.5s-22.5 32.833 -22.5 53.5zM45 275v130h499v-130h-499zM214 164
c0 20.667 7.5 38.5 22.5 53.5s32.833 22.5 53.5 22.5s38.5 -7.5 53.5 -22.5s22.5 -32.833 22.5 -53.5s-7.5 -38.5 -22.5 -53.5s-32.833 -22.5 -53.5 -22.5s-38.5 7.5 -53.5 22.5s-22.5 32.833 -22.5 53.5z" />
    <glyph glyph-name="oslash" unicode="&#xf8;" horiz-adv-x="562" 
d="M391 319l-156 -218c14 -8 30.667 -12 50 -12c38 0 66.333 15 85 45s28 69 28 117c0 26 -2.33301 48.667 -7 68zM176 189l155.998 217c-15.333 6.66699 -31.666 10 -48.999 10c-37.333 0 -65.666 -15.167 -84.999 -45.5s-29 -69.5 -29 -117.5c0 -24 2.33301 -45.333 7 -64
zM531.998 515l-57.999 -81c38.667 -45.333 58 -104.666 58 -177.999c0 -76.667 -21.833 -139.834 -65.5 -189.501s-104.5 -74.5 -182.5 -74.5c-42 0 -79.333 7.33301 -112 22l-16 -22h-121l57 80c-38 46 -57 104.333 -57 175c0 78 22.667 142.167 68 192.5
s105.666 75.5 180.999 75.5c39.333 0 76.333 -7 111 -21l15 21h122z" />
    <glyph glyph-name="ugrave" unicode="&#xf9;" horiz-adv-x="580" 
d="M351 553h-121l-111 177h146zM374 507h146v-507h-146v81c-26.667 -56.667 -78 -85 -154 -85c-52 0 -92.5 14.5 -121.5 43.5s-43.5 71.833 -43.5 128.5v339h146v-306c0 -59.333 26 -89 78 -89c63.333 0 95 42.333 95 127v268z" />
    <glyph glyph-name="uacute" unicode="&#xfa;" horiz-adv-x="580" 
d="M470 730l-111 -177h-121l86 177h146zM374 507h146v-507h-146v81c-26.667 -56.667 -78 -85 -154 -85c-52 0 -92.5 14.5 -121.5 43.5s-43.5 71.833 -43.5 128.5v339h146v-306c0 -59.333 26 -89 78 -89c63.333 0 95 42.333 95 127v268z" />
    <glyph glyph-name="ucircumflex" unicode="&#xfb;" horiz-adv-x="580" 
d="M288 650l-79 -96h-139l156 177h124l156 -177h-139zM374 507h146v-507h-146v81c-26.667 -56.667 -78 -85 -154 -85c-52 0 -92.5 14.5 -121.5 43.5s-43.5 71.833 -43.5 128.5v339h146v-306c0 -59.333 26 -89 78 -89c63.333 0 95 42.333 95 127v268z" />
    <glyph glyph-name="udieresis" unicode="&#xfc;" horiz-adv-x="580" 
d="M421 561c-24 0 -43.833 7.83301 -59.5 23.5s-23.5 35.167 -23.5 58.5c0 22.667 7.83301 41.834 23.5 57.501s35.5 23.5 59.5 23.5c23.333 0 43 -7.83301 59 -23.5s24 -34.834 24 -57.501c0 -23.333 -8 -42.833 -24 -58.5s-35.667 -23.5 -59 -23.5zM153 561
c-24 0 -43.833 7.83301 -59.5 23.5s-23.5 35.167 -23.5 58.5c0 22.667 7.83301 41.834 23.5 57.501s35.5 23.5 59.5 23.5c23.333 0 42.833 -7.83301 58.5 -23.5s23.5 -34.834 23.5 -57.501c0 -23.333 -7.83301 -42.833 -23.5 -58.5s-35.167 -23.5 -58.5 -23.5zM374 507h146
v-507h-146v81c-26.667 -56.667 -78 -85 -154 -85c-52 0 -92.5 14.5 -121.5 43.5s-43.5 71.833 -43.5 128.5v339h146v-306c0 -59.333 26 -89 78 -89c63.333 0 95 42.333 95 127v268z" />
    <glyph glyph-name="yacute" unicode="&#xfd;" horiz-adv-x="532" 
d="M224 554l86 177h146l-111 -177h-121zM201 8l-195.999 498.999h159l55 -158c14 -40.667 25.5 -75.667 34.5 -105s14.5 -48.666 16.5 -57.999l3 -14c7.33301 26.667 25.333 85.667 54 177l50 158h150l-183 -492c-52.667 -142 -133 -213 -241 -213
c-20.667 0 -39.334 1.66699 -56.001 5v116c10.667 -2.66699 22 -4 34 -4c55.333 0 95.333 29.667 120 89z" />
    <glyph glyph-name="thorn" unicode="&#xfe;" horiz-adv-x="611" 
d="M320 116c32 0 58.001 12.167 78.001 36.5s30 57.5 30 99.5c0 46 -10.167 80.833 -30.5 104.5s-46.166 35.5 -77.499 35.5c-30.667 0 -57.334 -11.667 -80.001 -35s-34 -56 -34 -98c0 -43.333 10.667 -78 32 -104s48.666 -39 81.999 -39zM206.001 707v-278.002
c35.333 56 86.333 84 153 84c65.333 0 117.833 -23.167 157.5 -69.5s59.5 -109.166 59.5 -188.499c0 -75.333 -19.167 -137.666 -57.5 -186.999s-91.5 -74 -159.5 -74c-68.667 0 -119.667 27 -153 81v-262h-146v894h146z" />
    <glyph glyph-name="ydieresis" unicode="&#xff;" horiz-adv-x="532" 
d="M327 643c0 22.667 7.83301 41.834 23.5 57.501s35.5 23.5 59.5 23.5c23.333 0 43 -7.83301 59 -23.5s24 -34.834 24 -57.501c0 -23.333 -8 -42.833 -24 -58.5s-35.667 -23.5 -59 -23.5c-24 0 -43.833 7.83301 -59.5 23.5s-23.5 35.167 -23.5 58.5zM59 643
c0 22.667 7.83301 41.834 23.5 57.501s35.5 23.5 59.5 23.5c23.333 0 42.833 -7.83301 58.5 -23.5s23.5 -34.834 23.5 -57.501c0 -23.333 -7.83301 -42.833 -23.5 -58.5s-35.167 -23.5 -58.5 -23.5c-24 0 -43.833 7.83301 -59.5 23.5s-23.5 35.167 -23.5 58.5zM201 8
l-195.999 498.999h159l55 -158c14 -40.667 25.5 -75.667 34.5 -105s14.5 -48.666 16.5 -57.999l3 -14c7.33301 26.667 25.333 85.667 54 177l50 158h150l-183 -492c-52.667 -142 -133 -213 -241 -213c-20.667 0 -39.334 1.66699 -56.001 5v116c10.667 -2.66699 22 -4 34 -4
c55.333 0 95.333 29.667 120 89z" />
    <glyph glyph-name="Amacron" unicode="&#x100;" horiz-adv-x="690" 
d="M527 860v-99h-356v99h356zM262 262h161.999l-7 24c-19.333 65.333 -35.166 121 -47.499 167s-19.833 75.667 -22.5 89l-4 20c-5.33301 -36.667 -30 -128.667 -74 -276zM501.999 0l-41 138h-236l-41 -138h-161l225 674h194l225 -674h-165z" />
    <glyph glyph-name="amacron" unicode="&#x101;" horiz-adv-x="516" 
d="M436 692v-99h-356v99h356zM311 208l-47 0.000976562c-24.667 0 -43.667 -5.33301 -57 -16s-20 -24.334 -20 -41.001c0 -34 19.667 -51 59 -51c20.667 0 36.667 6.33301 48 19s17 30 17 52v37zM74 351.001l0.000976562 131c40 22.667 97.667 34 173 34
c72 0 125.667 -15.5 161 -46.5s53 -79.167 53 -144.5v-325h-143v62c-21.333 -43.333 -63.333 -65 -126 -65c-49.333 0 -87.833 14 -115.5 42s-41.5 63 -41.5 105c0 48.667 17.833 86.5 53.5 113.5s88.5 40.5 158.5 40.5h64v35c0 42.667 -28.333 64 -85 64
c-54.667 0 -105.334 -15.333 -152.001 -46z" />
    <glyph glyph-name="Abreve" unicode="&#x102;" horiz-adv-x="690" 
d="M428 898h111.998c0 -62 -18.167 -107.667 -54.5 -137s-84.166 -44 -143.499 -44s-107.166 14.667 -143.499 44s-54.5 75 -54.5 137h112c0 -28 7.83301 -49.833 23.5 -65.5s36.5 -23.5 62.5 -23.5s46.833 7.83301 62.5 23.5s23.5 37.5 23.5 65.5zM261.998 262h161.999
l-7 24c-19.333 65.333 -35.166 121 -47.499 167s-19.833 75.667 -22.5 89l-4 20c-5.33301 -36.667 -30 -128.667 -74 -276zM501.997 0l-41 138h-236l-41 -138h-161l225 674h194l225 -674h-165z" />
    <glyph glyph-name="abreve" unicode="&#x103;" horiz-adv-x="516" 
d="M343 730h111.998c0 -62 -18.167 -107.667 -54.5 -137s-84.166 -44 -143.499 -44s-107.166 14.667 -143.499 44s-54.5 75 -54.5 137h112c0 -28 7.83301 -49.833 23.5 -65.5s36.5 -23.5 62.5 -23.5s46.833 7.83301 62.5 23.5s23.5 37.5 23.5 65.5zM310.998 208
l-47 0.000976562c-24.667 0 -43.667 -5.33301 -57 -16s-20 -24.334 -20 -41.001c0 -34 19.667 -51 59 -51c20.667 0 36.667 6.33301 48 19s17 30 17 52v37zM73.998 351.001l0.000976562 131c40 22.667 97.667 34 173 34c72 0 125.667 -15.5 161 -46.5s53 -79.167 53 -144.5
v-325h-143v62c-21.333 -43.333 -63.333 -65 -126 -65c-49.333 0 -87.833 14 -115.5 42s-41.5 63 -41.5 105c0 48.667 17.833 86.5 53.5 113.5s88.5 40.5 158.5 40.5h64v35c0 42.667 -28.333 64 -85 64c-54.667 0 -105.334 -15.333 -152.001 -46z" />
    <glyph glyph-name="Aogonek" unicode="&#x104;" horiz-adv-x="680" 
d="M257 262h161.999l-7 24c-19.333 65.333 -35.166 121 -47.499 167s-19.833 75.667 -22.5 89l-4 20c-5.33301 -36.667 -30 -128.667 -74 -276zM436.999 674l225 -674.001c-78.667 -48.667 -118 -92 -118 -130c0 -22.667 14.333 -34 43 -34c29.333 0 58.333 10 87 30v-101
c-32 -16.667 -68.333 -25 -109 -25c-46.667 0 -81.167 11 -103.5 33s-33.5 50 -33.5 84c0 52.667 23 100.334 69 143.001l-41 138h-236l-41 -138h-161l225 674h194z" />
    <glyph glyph-name="aogonek" unicode="&#x105;" horiz-adv-x="511" 
d="M311 208l-47 0.000976562c-24.667 0 -43.667 -5.33301 -57 -16s-20 -24.334 -20 -41.001c0 -34 19.667 -51 59 -51c20.667 0 36.667 6.33301 48 19s17 30 17 52v37zM461 325.001l0.000976562 -325c-78.667 -48.667 -118 -92 -118 -130c0 -22.667 14.333 -34 43 -34
c29.333 0 58.333 10 87 30v-101c-32 -16.667 -68.333 -25 -109 -25c-46.667 0 -81.167 11 -103.5 33s-33.5 50 -33.5 84c0 56.667 30.333 107.667 91 153v52c-21.333 -43.333 -63.333 -65 -126 -65c-49.333 0 -87.833 14 -115.5 42s-41.5 63 -41.5 105
c0 48.667 17.833 86.5 53.5 113.5s88.5 40.5 158.5 40.5h64v35c0 42.667 -28.333 64 -85 64c-54.667 0 -105.334 -15.333 -152.001 -46v131c40 22.667 97.667 34 173 34c72 0 125.667 -15.5 161 -46.5s53 -79.167 53 -144.5z" />
    <glyph glyph-name="Cacute" unicode="&#x106;" horiz-adv-x="613" 
d="M563 645l0.000976562 -148.001c-50 30.667 -105.667 46 -167 46c-54 0 -99.333 -18.833 -136 -56.5s-55 -88.167 -55 -151.5c0 -62 18.333 -111.167 55 -147.5s84 -54.5 142 -54.5c62.667 0 116.334 16 161.001 48v-151c-40.667 -25.333 -99.334 -38 -176.001 -38
c-98.667 0 -181.167 31.833 -247.5 95.5s-99.5 146.167 -99.5 247.5c0 102.667 32.167 186.334 96.5 251.001s148.166 97 251.499 97c76 0 134.333 -12.667 175 -38zM304.001 720.999l86 177h146l-111 -177h-121z" />
    <glyph glyph-name="cacute" unicode="&#x107;" horiz-adv-x="469" 
d="M237 553l86 177h146l-111 -177h-121zM183 252c2.66699 -44.667 15.999 -79.333 39.999 -104s55.667 -37 95 -37c42 0 82.333 11.667 121 35v-122c-39.333 -21.333 -86.666 -32 -141.999 -32c-76 0 -138.667 24.167 -188 72.5s-74 110.833 -74 187.5
c1.33301 76 26 138.833 74 188.5s113.667 74.5 197 74.5c51.333 0 95.666 -9.66699 132.999 -29v-125c-35.333 22 -74.666 33 -117.999 33c-40.667 0 -73.667 -12.167 -99 -36.5s-38.333 -59.5 -39 -105.5z" />
    <glyph glyph-name="Ccircumflex" unicode="&#x108;" horiz-adv-x="613" 
d="M563 645l0.000976562 -148.001c-50 30.667 -105.667 46 -167 46c-54 0 -99.333 -18.833 -136 -56.5s-55 -88.167 -55 -151.5c0 -62 18.333 -111.167 55 -147.5s84 -54.5 142 -54.5c62.667 0 116.334 16 161.001 48v-151c-40.667 -25.333 -99.334 -38 -176.001 -38
c-98.667 0 -181.167 31.833 -247.5 95.5s-99.5 146.167 -99.5 247.5c0 102.667 32.167 186.334 96.5 251.001s148.166 97 251.499 97c76 0 134.333 -12.667 175 -38zM286.001 897.999h124l156 -177h-139l-79 96l-79 -96h-139z" />
    <glyph glyph-name="ccircumflex" unicode="&#x109;" horiz-adv-x="469" 
d="M439 486l-0.000976562 -124.999c-35.333 22 -74.666 33 -117.999 33c-40.667 0 -73.667 -12.167 -99 -36.5s-38.333 -59.5 -39 -105.5c2.66699 -44.667 16 -79.334 40 -104.001s55.667 -37 95 -37c42 0 82.333 11.667 121 35v-122
c-39.333 -21.333 -86.666 -32 -141.999 -32c-76 0 -138.667 24.167 -188 72.5s-74 110.833 -74 187.5c1.33301 76 26 138.833 74 188.5s113.667 74.5 197 74.5c51.333 0 95.666 -9.66699 132.999 -29zM207.999 731.001h124l156 -177h-139l-79 96l-79 -96h-139z" />
    <glyph glyph-name="Cdotaccent" unicode="&#x10a;" horiz-adv-x="613" 
d="M292 811c0 22.667 7.83301 41.834 23.5 57.501s35.5 23.5 59.5 23.5c23.333 0 42.833 -7.83301 58.5 -23.5s23.5 -34.834 23.5 -57.501c0 -23.333 -7.83301 -42.833 -23.5 -58.5s-35.167 -23.5 -58.5 -23.5c-24 0 -43.833 7.83301 -59.5 23.5s-23.5 35.167 -23.5 58.5z
M563 645l0.000976562 -148.001c-50 30.667 -105.667 46 -167 46c-54 0 -99.333 -18.833 -136 -56.5s-55 -88.167 -55 -151.5c0 -62 18.333 -111.167 55 -147.5s84 -54.5 142 -54.5c62.667 0 116.334 16 161.001 48v-151c-40.667 -25.333 -99.334 -38 -176.001 -38
c-98.667 0 -181.167 31.833 -247.5 95.5s-99.5 146.167 -99.5 247.5c0 102.667 32.167 186.334 96.5 251.001s148.166 97 251.499 97c76 0 134.333 -12.667 175 -38z" />
    <glyph glyph-name="cdotaccent" unicode="&#x10b;" horiz-adv-x="469" 
d="M183 252c2.66699 -44.667 15.999 -79.333 39.999 -104s55.667 -37 95 -37c42 0 82.333 11.667 121 35v-122c-39.333 -21.333 -86.666 -32 -141.999 -32c-76 0 -138.667 24.167 -188 72.5s-74 110.833 -74 187.5c1.33301 76 26 138.833 74 188.5s113.667 74.5 197 74.5
c51.333 0 95.666 -9.66699 132.999 -29v-125c-35.333 22 -74.666 33 -117.999 33c-40.667 0 -73.667 -12.167 -99 -36.5s-38.333 -59.5 -39 -105.5zM204.999 643.001c0 22.667 7.83301 41.834 23.5 57.501s35.5 23.5 59.5 23.5c23.333 0 42.833 -7.83301 58.5 -23.5
s23.5 -34.834 23.5 -57.501c0 -23.333 -7.83301 -42.833 -23.5 -58.5s-35.167 -23.5 -58.5 -23.5c-24 0 -43.833 7.83301 -59.5 23.5s-23.5 35.167 -23.5 58.5z" />
    <glyph glyph-name="Ccaron" unicode="&#x10c;" horiz-adv-x="613" 
d="M563 645l0.000976562 -148.001c-50 30.667 -105.667 46 -167 46c-54 0 -99.333 -18.833 -136 -56.5s-55 -88.167 -55 -151.5c0 -62 18.333 -111.167 55 -147.5s84 -54.5 142 -54.5c62.667 0 116.334 16 161.001 48v-151c-40.667 -25.333 -99.334 -38 -176.001 -38
c-98.667 0 -181.167 31.833 -247.5 95.5s-99.5 146.167 -99.5 247.5c0 102.667 32.167 186.334 96.5 251.001s148.166 97 251.499 97c76 0 134.333 -12.667 175 -38zM422.001 720.999h-124l-156 177h139l79 -96l79 96h139z" />
    <glyph glyph-name="ccaron" unicode="&#x10d;" horiz-adv-x="469" 
d="M439 486l-0.000976562 -124.999c-35.333 22 -74.666 33 -117.999 33c-40.667 0 -73.667 -12.167 -99 -36.5s-38.333 -59.5 -39 -105.5c2.66699 -44.667 16 -79.334 40 -104.001s55.667 -37 95 -37c42 0 82.333 11.667 121 35v-122
c-39.333 -21.333 -86.666 -32 -141.999 -32c-76 0 -138.667 24.167 -188 72.5s-74 110.833 -74 187.5c1.33301 76 26 138.833 74 188.5s113.667 74.5 197 74.5c51.333 0 95.666 -9.66699 132.999 -29zM336.999 553.001h-124l-156 177h139l79 -96l79 96h139z" />
    <glyph glyph-name="Dcaron" unicode="&#x10e;" horiz-adv-x="683" 
d="M382 721h-124l-156 177h139l79 -96l79 96h139zM223 126l70 -0.000976562c62 0 109.833 19.333 143.5 58s50.5 93.334 50.5 164.001c0 60 -17 108.167 -51 144.5s-82 54.5 -144 54.5h-69v-421zM65 673.999h232.001c101.333 0 184.333 -31.167 249 -93.5
s97 -139.833 97 -232.5c0 -108 -31.833 -193 -95.5 -255s-147.834 -93 -252.501 -93h-230v674z" />
    <glyph glyph-name="dcaron" unicode="&#x10f;" horiz-adv-x="745" 
d="M293 116c33.333 0 60.333 13 81 39s31 60.667 31 104c0 42 -11.167 74.667 -33.5 98s-48.833 35 -79.5 35s-56.5 -12.333 -77.5 -37s-31.5 -59 -31.5 -103c0 -40.667 10.667 -73.5 32 -98.5s47.333 -37.5 78 -37.5zM405 429l0.000976562 278.001h146v-707h-146v79
c-34 -56.667 -84.667 -85 -152 -85c-66 0 -118.833 25.667 -158.5 77s-59.5 112.666 -59.5 183.999c0 80 20.667 143 62 189s93.666 69 156.999 69c66 0 116.333 -28 151 -84zM670.001 708.001h151l-116 -211h-106z" />
    <glyph glyph-name="Dcroat" unicode="&#x110;" horiz-adv-x="749" 
d="M289 126l70 -0.000976562c62 0 109.833 19.333 143.5 58s50.5 93.334 50.5 164.001c0 60 -17 108.167 -51 144.5s-82 54.5 -144 54.5h-69v-154h138v-124h-138v-143zM131 673.999h232.001c101.333 0 184.333 -31.167 249 -93.5s97 -139.833 97 -232.5
c0 -108 -31.833 -193 -95.5 -255s-147.834 -93 -252.501 -93h-230v269h-66v124h66v281z" />
    <glyph glyph-name="dcroat" unicode="&#x111;" horiz-adv-x="611" 
d="M293 116c33.333 0 60.333 13 81 39s31 60.667 31 104c0 42 -11.167 74.667 -33.5 98s-48.833 35 -79.5 35s-56.5 -12.333 -77.5 -37s-31.5 -59 -31.5 -103c0 -40.667 10.667 -73.5 32 -98.5s47.333 -37.5 78 -37.5zM608 646l0.000976562 -81.999h-57v-564h-146v79
c-34 -56.667 -84.667 -85 -152 -85c-66 0 -118.833 25.667 -158.5 77s-59.5 112.666 -59.5 183.999c0 80 20.667 143 62 189s93.666 69 156.999 69c66 0 116.333 -28 151 -84v135h-151v82h151v61h146v-61h57z" />
    <glyph glyph-name="Emacron" unicode="&#x112;" horiz-adv-x="544" 
d="M450 863v-99h-356v99h356zM220 123h264v-123h-419v674h415v-123h-260v-153h232v-122h-232v-153z" />
    <glyph glyph-name="emacron" unicode="&#x113;" horiz-adv-x="533" 
d="M448 692v-99h-356v99h356zM353 300v12c-4.66699 59.333 -30.667 89 -78 89c-23.333 0 -44 -8.5 -62 -25.5s-30 -42.167 -36 -75.5h176zM458 151l-0.00195312 -122.001c-34.667 -22.667 -87.667 -34 -159 -34c-83.333 0 -148.166 24.167 -194.499 72.5
s-69.5 110.5 -69.5 186.5c0 80.667 22.5 143.834 67.5 189.501s100.5 68.5 166.5 68.5c68 0 121.667 -19.833 161 -59.5s59 -98.834 59 -177.501c0 -15.333 -2.66699 -41.666 -8 -78.999h-298c10 -28 27.333 -49.667 52 -65s54.334 -23 89.001 -23
c51.333 0 96 14.333 134 43z" />
    <glyph glyph-name="Ebreve" unicode="&#x114;" horiz-adv-x="544" 
d="M370 898h111.998c0 -62 -18.167 -107.667 -54.5 -137s-84.166 -44 -143.499 -44s-107.166 14.667 -143.499 44s-54.5 75 -54.5 137h112c0 -28 7.83301 -49.833 23.5 -65.5s36.5 -23.5 62.5 -23.5s46.833 7.83301 62.5 23.5s23.5 37.5 23.5 65.5zM219.998 123h264v-123
h-419v674h415v-123h-260v-153h232v-122h-232v-153z" />
    <glyph glyph-name="ebreve" unicode="&#x115;" horiz-adv-x="533" 
d="M356 731h111.998c0 -62 -18.167 -107.667 -54.5 -137s-84.166 -44 -143.499 -44s-107.166 14.667 -143.499 44s-54.5 75 -54.5 137h112c0 -28 7.83301 -49.833 23.5 -65.5s36.5 -23.5 62.5 -23.5s46.833 7.83301 62.5 23.5s23.5 37.5 23.5 65.5zM352.998 300v12
c-4.66699 59.333 -30.667 89 -78 89c-23.333 0 -44 -8.5 -62 -25.5s-30 -42.167 -36 -75.5h176zM457.998 151l-0.00195312 -122.001c-34.667 -22.667 -87.667 -34 -159 -34c-83.333 0 -148.166 24.167 -194.499 72.5s-69.5 110.5 -69.5 186.5
c0 80.667 22.5 143.834 67.5 189.501s100.5 68.5 166.5 68.5c68 0 121.667 -19.833 161 -59.5s59 -98.834 59 -177.501c0 -15.333 -2.66699 -41.666 -8 -78.999h-298c10 -28 27.333 -49.667 52 -65s54.334 -23 89.001 -23c51.333 0 96 14.333 134 43z" />
    <glyph glyph-name="Edotaccent" unicode="&#x116;" horiz-adv-x="544" 
d="M282 728c-24 0 -43.833 7.83301 -59.5 23.5s-23.5 35.167 -23.5 58.5c0 22.667 7.83301 41.834 23.5 57.501s35.5 23.5 59.5 23.5c23.333 0 42.833 -7.83301 58.5 -23.5s23.5 -34.834 23.5 -57.501c0 -23.333 -7.83301 -42.833 -23.5 -58.5s-35.167 -23.5 -58.5 -23.5z
M220 123h264v-123h-419v674h415v-123h-260v-153h232v-122h-232v-153z" />
    <glyph glyph-name="edotaccent" unicode="&#x117;" horiz-adv-x="533" 
d="M280 561c-24 0 -43.833 7.83301 -59.5 23.5s-23.5 35.167 -23.5 58.5c0 22.667 7.83301 41.834 23.5 57.501s35.5 23.5 59.5 23.5c23.333 0 42.833 -7.83301 58.5 -23.5s23.5 -34.834 23.5 -57.501c0 -23.333 -7.83301 -42.833 -23.5 -58.5s-35.167 -23.5 -58.5 -23.5z
M353 300v12c-4.66699 59.333 -30.667 89 -78 89c-23.333 0 -44 -8.5 -62 -25.5s-30 -42.167 -36 -75.5h176zM458 151l-0.00195312 -122.001c-34.667 -22.667 -87.667 -34 -159 -34c-83.333 0 -148.166 24.167 -194.499 72.5s-69.5 110.5 -69.5 186.5
c0 80.667 22.5 143.834 67.5 189.501s100.5 68.5 166.5 68.5c68 0 121.667 -19.833 161 -59.5s59 -98.834 59 -177.501c0 -15.333 -2.66699 -41.666 -8 -78.999h-298c10 -28 27.333 -49.667 52 -65s54.334 -23 89.001 -23c51.333 0 96 14.333 134 43z" />
    <glyph glyph-name="Eogonek" unicode="&#x118;" horiz-adv-x="544" 
d="M484 123v-123.001c-78.667 -48.667 -118 -92 -118 -130c0 -22.667 14.333 -34 43 -34c29.333 0 58.333 10 87 30v-101c-32 -16.667 -68.333 -25 -109 -25c-46.667 0 -81.167 11 -103.5 33s-33.5 50 -33.5 84c0 52.667 26.333 100.334 79 143.001h-264v674h415v-123h-260
v-153h232v-122h-232v-153h264z" />
    <glyph glyph-name="eogonek" unicode="&#x119;" horiz-adv-x="533" 
d="M353 300v12c-4.66699 59.333 -30.667 89 -78 89c-23.333 0 -44 -8.5 -62 -25.5s-30 -42.167 -36 -75.5h176zM457 -112v-101.001c-32 -16.667 -68.333 -25 -109 -25c-46.667 0 -81.167 11 -103.5 33s-33.5 50 -33.5 84c0 42 17.333 81.333 52 118
c-72.667 6.66699 -128.834 33.667 -168.501 81s-59.5 106 -59.5 176c0 80.667 22.5 143.834 67.5 189.501s100.5 68.5 166.5 68.5c68 0 121.667 -19.833 161 -59.5s59 -98.834 59 -177.501c0 -15.333 -2.66699 -41.666 -8 -78.999h-298c10 -28 27.333 -49.667 52 -65
s54.334 -23 89.001 -23c51.333 0 96 14.333 134 43v-122c-4.66699 -3.33301 -9.66699 -6 -15 -8c-77.333 -48.667 -116 -91.667 -116 -129c0 -22.667 14.333 -34 43 -34c29.333 0 58.333 10 87 30z" />
    <glyph glyph-name="Ecaron" unicode="&#x11a;" horiz-adv-x="544" 
d="M341 721h-124l-156 177h139l79 -96l79 96h139zM220 276v-153h264v-123h-419v674h415v-123h-260v-153h232v-122h-232z" />
    <glyph glyph-name="ecaron" unicode="&#x11b;" horiz-adv-x="533" 
d="M334 553h-124l-156 177h139l79 -96l79 96h139zM353 300v12c-4.66699 59.333 -30.667 89 -78 89c-23.333 0 -44 -8.5 -62 -25.5s-30 -42.167 -36 -75.5h176zM458 151l-0.00195312 -122.001c-34.667 -22.667 -87.667 -34 -159 -34c-83.333 0 -148.166 24.167 -194.499 72.5
s-69.5 110.5 -69.5 186.5c0 80.667 22.5 143.834 67.5 189.501s100.5 68.5 166.5 68.5c68 0 121.667 -19.833 161 -59.5s59 -98.834 59 -177.501c0 -15.333 -2.66699 -41.666 -8 -78.999h-298c10 -28 27.333 -49.667 52 -65s54.334 -23 89.001 -23
c51.333 0 96 14.333 134 43z" />
    <glyph glyph-name="Gcircumflex" unicode="&#x11c;" horiz-adv-x="706" 
d="M385 817l-79 -96h-139l156 177h124l156 -177h-139zM646 402l-0.000976562 -339.999c-64 -46.667 -144.667 -70 -242 -70c-108 0 -195.667 31 -263 93s-101 146.333 -101 253c0 105.333 35.167 189.666 105.5 252.999s159.5 95 267.5 95c76 0 141.667 -14 197 -42v-154
c-64 36.667 -129.667 55 -197 55c-63.333 0 -113.666 -18.833 -150.999 -56.5s-56 -87.834 -56 -150.501c0 -63.333 18.333 -113.666 55 -150.999s86.667 -56 150 -56c28.667 0 57 4.33301 85 13v127h-109v131h259z" />
    <glyph glyph-name="gcircumflex" unicode="&#x11d;" horiz-adv-x="585" 
d="M309 650l-79 -96h-139l156 177h124l156 -177h-139zM285 133c31.333 0 55.833 11.833 73.5 35.5s26.5 52.167 26.5 85.5c0 90.667 -33 136 -99 136c-29.333 0 -52.333 -11.333 -69 -34s-25 -54 -25 -94c0 -42 8 -74 24 -96s39 -33 69 -33zM385 507l144.999 0.000976562
v-458c0 -81.333 -24.333 -142.5 -73 -183.5s-109.667 -61.5 -183 -61.5c-71.333 0 -133.666 12.667 -186.999 38v149c46.667 -37.333 104 -56 172 -56c44 0 76 9.33301 96 28s30 48 30 88v34c-29.333 -45.333 -76 -68 -140 -68c-56 0 -104.167 20.667 -144.5 62
s-60.5 102.666 -60.5 183.999c0 72 19.5 131.5 58.5 178.5s90.167 70.5 153.5 70.5c60 0 104.333 -24 133 -72v67z" />
    <glyph glyph-name="Gbreve" unicode="&#x11e;" horiz-adv-x="706" 
d="M464 898h111.998c0 -62 -18.167 -107.667 -54.5 -137s-84.166 -44 -143.499 -44s-107.166 14.667 -143.499 44s-54.5 75 -54.5 137h112c0 -28 7.83301 -49.833 23.5 -65.5s36.5 -23.5 62.5 -23.5s46.833 7.83301 62.5 23.5s23.5 37.5 23.5 65.5zM645.998 402
l-0.000976562 -339.999c-64 -46.667 -144.667 -70 -242 -70c-108 0 -195.667 31 -263 93s-101 146.333 -101 253c0 105.333 35.167 189.666 105.5 252.999s159.5 95 267.5 95c76 0 141.667 -14 197 -42v-154c-64 36.667 -129.667 55 -197 55
c-63.333 0 -113.666 -18.833 -150.999 -56.5s-56 -87.834 -56 -150.501c0 -63.333 18.333 -113.666 55 -150.999s86.667 -56 150 -56c28.667 0 57 4.33301 85 13v127h-109v131h259z" />
    <glyph glyph-name="gbreve" unicode="&#x11f;" horiz-adv-x="585" 
d="M397 731h111.998c0 -62 -18.167 -107.667 -54.5 -137s-84.166 -44 -143.499 -44s-107.166 14.667 -143.499 44s-54.5 75 -54.5 137h112c0 -28 7.83301 -49.833 23.5 -65.5s36.5 -23.5 62.5 -23.5s46.833 7.83301 62.5 23.5s23.5 37.5 23.5 65.5zM284.998 133
c31.333 0 55.833 11.833 73.5 35.5s26.5 52.167 26.5 85.5c0 90.667 -33 136 -99 136c-29.333 0 -52.333 -11.333 -69 -34s-25 -54 -25 -94c0 -42 8 -74 24 -96s39 -33 69 -33zM384.998 507l144.999 0.000976562v-458c0 -81.333 -24.333 -142.5 -73 -183.5
s-109.667 -61.5 -183 -61.5c-71.333 0 -133.666 12.667 -186.999 38v149c46.667 -37.333 104 -56 172 -56c44 0 76 9.33301 96 28s30 48 30 88v34c-29.333 -45.333 -76 -68 -140 -68c-56 0 -104.167 20.667 -144.5 62s-60.5 102.666 -60.5 183.999
c0 72 19.5 131.5 58.5 178.5s90.167 70.5 153.5 70.5c60 0 104.333 -24 133 -72v67z" />
    <glyph glyph-name="Gdotaccent" unicode="&#x120;" horiz-adv-x="706" 
d="M386 728c-24 0 -43.833 7.83301 -59.5 23.5s-23.5 35.167 -23.5 58.5c0 22.667 7.83301 41.834 23.5 57.501s35.5 23.5 59.5 23.5c23.333 0 42.833 -7.83301 58.5 -23.5s23.5 -34.834 23.5 -57.501c0 -23.333 -7.83301 -42.833 -23.5 -58.5s-35.167 -23.5 -58.5 -23.5z
M646 402l-0.000976562 -339.999c-64 -46.667 -144.667 -70 -242 -70c-108 0 -195.667 31 -263 93s-101 146.333 -101 253c0 105.333 35.167 189.666 105.5 252.999s159.5 95 267.5 95c76 0 141.667 -14 197 -42v-154c-64 36.667 -129.667 55 -197 55
c-63.333 0 -113.666 -18.833 -150.999 -56.5s-56 -87.834 -56 -150.501c0 -63.333 18.333 -113.666 55 -150.999s86.667 -56 150 -56c28.667 0 57 4.33301 85 13v127h-109v131h259z" />
    <glyph glyph-name="gdotaccent" unicode="&#x121;" horiz-adv-x="585" 
d="M321 561c-24 0 -43.833 7.83301 -59.5 23.5s-23.5 35.167 -23.5 58.5c0 22.667 7.83301 41.834 23.5 57.501s35.5 23.5 59.5 23.5c23.333 0 42.833 -7.83301 58.5 -23.5s23.5 -34.834 23.5 -57.501c0 -23.333 -7.83301 -42.833 -23.5 -58.5s-35.167 -23.5 -58.5 -23.5z
M285 133c31.333 0 55.833 11.833 73.5 35.5s26.5 52.167 26.5 85.5c0 90.667 -33 136 -99 136c-29.333 0 -52.333 -11.333 -69 -34s-25 -54 -25 -94c0 -42 8 -74 24 -96s39 -33 69 -33zM385 507l144.999 0.000976562v-458c0 -81.333 -24.333 -142.5 -73 -183.5
s-109.667 -61.5 -183 -61.5c-71.333 0 -133.666 12.667 -186.999 38v149c46.667 -37.333 104 -56 172 -56c44 0 76 9.33301 96 28s30 48 30 88v34c-29.333 -45.333 -76 -68 -140 -68c-56 0 -104.167 20.667 -144.5 62s-60.5 102.666 -60.5 183.999
c0 72 19.5 131.5 58.5 178.5s90.167 70.5 153.5 70.5c60 0 104.333 -24 133 -72v67z" />
    <glyph glyph-name="uni0122" unicode="&#x122;" horiz-adv-x="706" 
d="M229 -262l71 211h151l-116 -211h-106zM646 402l-0.000976562 -339.999c-64 -46.667 -144.667 -70 -242 -70c-108 0 -195.667 31 -263 93s-101 146.333 -101 253c0 105.333 35.167 189.666 105.5 252.999s159.5 95 267.5 95c76 0 141.667 -14 197 -42v-154
c-64 36.667 -129.667 55 -197 55c-63.333 0 -113.666 -18.833 -150.999 -56.5s-56 -87.834 -56 -150.501c0 -63.333 18.333 -113.666 55 -150.999s86.667 -56 150 -56c28.667 0 57 4.33301 85 13v127h-109v131h259z" />
    <glyph glyph-name="uni0123" unicode="&#x123;" horiz-adv-x="585" 
d="M471 765l-71 -211h-151l116 211h106zM285 133c31.333 0 55.833 11.833 73.5 35.5s26.5 52.167 26.5 85.5c0 90.667 -33 136 -99 136c-29.333 0 -52.333 -11.333 -69 -34s-25 -54 -25 -94c0 -42 8 -74 24 -96s39 -33 69 -33zM385 507l144.999 0.000976562v-458
c0 -81.333 -24.333 -142.5 -73 -183.5s-109.667 -61.5 -183 -61.5c-71.333 0 -133.666 12.667 -186.999 38v149c46.667 -37.333 104 -56 172 -56c44 0 76 9.33301 96 28s30 48 30 88v34c-29.333 -45.333 -76 -68 -140 -68c-56 0 -104.167 20.667 -144.5 62
s-60.5 102.666 -60.5 183.999c0 72 19.5 131.5 58.5 178.5s90.167 70.5 153.5 70.5c60 0 104.333 -24 133 -72v67z" />
    <glyph glyph-name="Hcircumflex" unicode="&#x124;" horiz-adv-x="686" 
d="M341 817l-79 -96h-139l156 177h124l156 -177h-139zM466 674h155v-674h-155v269h-247v-269h-154v674h154v-274h247v274z" />
    <glyph glyph-name="hcircumflex" unicode="&#x125;" horiz-adv-x="580" 
d="M214 754l-79 96l-79 -96h-139l156 177h124l156 -177h-139zM206 707l0.000976562 -286.001c26 60.667 76.667 91 152 91c49.333 0 89.5 -15.667 120.5 -47s46.5 -78.666 46.5 -141.999v-323h-146v300c0 29.333 -7.33301 52.333 -22 69s-33.667 25 -57 25
c-10 0 -19.5 -1.5 -28.5 -4.5s-18.833 -8.33301 -29.5 -16s-19.334 -20.667 -26.001 -39s-10 -40.5 -10 -66.5v-268h-146v707h146z" />
    <glyph glyph-name="Hbar" unicode="&#x126;" horiz-adv-x="794" 
d="M520 400v95h-247v-95h247zM749 577v-82h-74v-495h-155v269h-247v-269h-154v495h-74v82h74v97h154v-97h247v97h155v-97h74z" />
    <glyph glyph-name="hbar" unicode="&#x127;" horiz-adv-x="580" 
d="M206 564l0.000976562 -143.001c26 60.667 76.667 91 152 91c49.333 0 89.5 -15.667 120.5 -47s46.5 -78.666 46.5 -141.999v-323h-146v300c0 29.333 -7.33301 52.333 -22 69s-33.667 25 -57 25c-10 0 -19.5 -1.5 -28.5 -4.5s-18.833 -8.33301 -29.5 -16
s-19.334 -20.667 -26.001 -39s-10 -40.5 -10 -66.5v-268h-146v564h-57v82h57v61h146v-61h151v-82h-151z" />
    <glyph glyph-name="Itilde" unicode="&#x128;" horiz-adv-x="304" 
d="M75 0v674h154v-674h-154zM270 887l74 -61c-28 -56.667 -73.333 -85 -136 -85c-22 0 -45 5.83301 -69 17.5s-41 17.5 -51 17.5c-16.667 0 -29.667 -2.83301 -39 -8.5s-21.333 -17.167 -36 -34.5l-65 64c10.667 22.667 26.5 42 47.5 58s43.833 24 68.5 24
c24 0 49.5 -5.83301 76.5 -17.5s46.833 -17.5 59.5 -17.5c32 0 55.333 14.333 70 43z" />
    <glyph glyph-name="itilde" unicode="&#x129;" horiz-adv-x="276" 
d="M65 0v507h146v-507h-146zM261 719l74 -61c-28.667 -56.667 -74 -85 -136 -85c-22 0 -45 5.83301 -69 17.5s-41 17.5 -51 17.5c-16.667 0 -29.667 -2.83301 -39 -8.5s-21.333 -17.167 -36 -34.5l-65 64c10.667 22.667 26.5 42 47.5 58s43.833 24 68.5 24
c24 0 49.5 -5.83301 76.5 -17.5s46.833 -17.5 59.5 -17.5c32.667 0 56 14.333 70 43z" />
    <glyph glyph-name="Imacron" unicode="&#x12a;" horiz-adv-x="304" 
d="M75 0v674h154v-674h-154zM330 760h-356v99h356v-99z" />
    <glyph glyph-name="imacron" unicode="&#x12b;" horiz-adv-x="276" 
d="M65 0v507h146v-507h-146zM316 593h-356v99h356v-99z" />
    <glyph glyph-name="Ibreve" unicode="&#x12c;" horiz-adv-x="304" 
d="M-44 898h111.998c0 -28 7.83301 -49.833 23.5 -65.5s36.5 -23.5 62.5 -23.5s46.833 7.83301 62.5 23.5s23.5 37.5 23.5 65.5h112c0 -62 -18.167 -107.667 -54.5 -137s-84.166 -44 -143.499 -44s-107.166 14.667 -143.499 44s-54.5 75 -54.5 137zM74.998 0v674h154v-674
h-154z" />
    <glyph glyph-name="ibreve" unicode="&#x12d;" horiz-adv-x="276" 
d="M-60 730h111.998c0 -28 7.83301 -49.833 23.5 -65.5s36.5 -23.5 62.5 -23.5s46.833 7.83301 62.5 23.5s23.5 37.5 23.5 65.5h112c0 -62 -18.167 -107.667 -54.5 -137s-84.166 -44 -143.499 -44s-107.166 14.667 -143.499 44s-54.5 75 -54.5 137zM64.998 0v507h146v-507
h-146z" />
    <glyph glyph-name="Iogonek" unicode="&#x12e;" horiz-adv-x="304" 
d="M229 674v-674c-78.667 -48.667 -118 -92 -118 -130c0 -22.667 14.333 -34 43 -34c29.333 0 58.333 10 87 30v-101c-32 -16.667 -68.333 -25 -109 -25c-46.667 0 -81.167 11 -103.5 33s-33.5 50 -33.5 84c0 52.667 26.667 100.667 80 144v673h154z" />
    <glyph glyph-name="iogonek" unicode="&#x12f;" horiz-adv-x="276" 
d="M138 569c-23.333 0 -43.333 8.33301 -60 25s-25 36.667 -25 60s8.33301 43.333 25 60s36.667 25 60 25s43.333 -8.33301 60 -25s25 -36.667 25 -60s-8.33301 -43.333 -25 -60s-36.667 -25 -60 -25zM211 507v-507c-78.667 -48.667 -118 -92 -118 -130
c0 -22.667 14.333 -34 43 -34c29.333 0 58.333 10 87 30v-101c-32 -16.667 -68.333 -25 -109 -25c-46.667 0 -81.167 11 -103.5 33s-33.5 50 -33.5 84c0 54 29.333 104 88 150v500h146z" />
    <glyph glyph-name="Idotaccent" unicode="&#x130;" horiz-adv-x="304" 
d="M75 0v674h154v-674h-154zM71 810c0 22.667 7.83301 41.834 23.5 57.501s35.5 23.5 59.5 23.5c23.333 0 42.833 -7.83301 58.5 -23.5s23.5 -34.834 23.5 -57.501c0 -23.333 -7.83301 -42.833 -23.5 -58.5s-35.167 -23.5 -58.5 -23.5c-24 0 -43.833 7.83301 -59.5 23.5
s-23.5 35.167 -23.5 58.5z" />
    <glyph glyph-name="dotlessi" unicode="&#x131;" horiz-adv-x="276" 
d="M65 0v507h146v-507h-146z" />
    <glyph glyph-name="IJ" unicode="&#x132;" horiz-adv-x="672" 
d="M75 0v674h154v-674h-154zM310 19l-0.00195312 136c24.667 -15.333 50.334 -23 77.001 -23c47.333 0 71 25.333 71 76v465h154v-469c0 -64.667 -17.167 -115 -51.5 -151s-82.166 -54 -143.499 -54c-46 0 -81.667 6.66699 -107 20z" />
    <glyph glyph-name="ij" unicode="&#x133;" horiz-adv-x="534" 
d="M65 0v507h146v-507h-146zM53 654c0 23.333 8.33301 43.333 25 60s36.667 25 60 25s43.333 -8.33301 60 -25s25 -36.667 25 -60s-8.33301 -43.333 -25 -60s-36.667 -25 -60 -25s-43.333 8.33301 -60 25s-25 36.667 -25 60zM220 -182l-0.000976562 110.999
c22 -10 41 -15 57 -15c34.667 0 52 22.333 52 67v526h145v-528c0 -53.333 -15 -96.166 -45 -128.499s-73.333 -48.5 -130 -48.5c-23.333 0 -49.666 5.33301 -78.999 16zM315.999 653.999c0 23.333 8.33301 43.333 25 60s36.667 25 60 25s43.333 -8.33301 60 -25
s25 -36.667 25 -60s-8.33301 -43.333 -25 -60s-36.667 -25 -60 -25s-43.333 8.33301 -60 25s-25 36.667 -25 60z" />
    <glyph glyph-name="Jcircumflex" unicode="&#x134;" horiz-adv-x="392" 
d="M30 19l-0.00195312 136c24.667 -15.333 50.334 -23 77.001 -23c47.333 0 71 25.333 71 76v465h154v-469c0 -64.667 -17.167 -115 -51.5 -151s-82.166 -54 -143.499 -54c-46 0 -81.667 6.66699 -107 20zM194.998 898h124l156 -177h-139l-79 96l-79 -96h-139z" />
    <glyph glyph-name="jcircumflex" unicode="&#x135;" horiz-adv-x="274" 
d="M80 730h124l156 -177h-139l-79 96l-79 -96h-139zM-40 -182l-0.000976562 110.999c22 -10 41 -15 57 -15c34.667 0 52 22.333 52 67v526h145v-528c0 -53.333 -15 -96.166 -45 -128.499s-73.333 -48.5 -130 -48.5c-23.333 0 -49.666 5.33301 -78.999 16z" />
    <glyph glyph-name="uni0136" unicode="&#x136;" horiz-adv-x="662" 
d="M219 674v-674h-154v674h154zM189 -262l71 211h151l-116 -211h-106zM406 337l239 -337h-193l-226 335l218 339h183z" />
    <glyph glyph-name="uni0137" unicode="&#x137;" horiz-adv-x="548" 
d="M206 249v-249h-146v690h146v-410l160 227h168l-176 -243l179 -264h-169zM148 -262l71 211h151l-116 -211h-106z" />
    <glyph glyph-name="kgreenlandic" unicode="&#x138;" horiz-adv-x="548" 
d="M537 0h-169l-162 249v-249h-146v507h146v-227l160 227h168l-176 -243z" />
    <glyph glyph-name="Lacute" unicode="&#x139;" horiz-adv-x="488" 
d="M488 898l-111 -177h-121l86 177h146zM219 674v-539h249v-135h-403v674h154z" />
    <glyph glyph-name="lacute" unicode="&#x13a;" horiz-adv-x="276" 
d="M75 754l86 177h146l-111 -177h-121zM65 0v707h146v-707h-146z" />
    <glyph glyph-name="uni013B" unicode="&#x13b;" horiz-adv-x="488" 
d="M139 -262l71 211h151l-116 -211h-106zM219 135h249v-135h-403v674h154v-539z" />
    <glyph glyph-name="uni013C" unicode="&#x13c;" horiz-adv-x="276" 
d="M65 0v707h146v-707h-146zM-11 -262l71 211h151l-116 -211h-106z" />
    <glyph glyph-name="Lcaron" unicode="&#x13d;" horiz-adv-x="488" 
d="M501 699l-116 -211h-106l71 211h151zM219 674v-539h249v-135h-403v674h154z" />
    <glyph glyph-name="lcaron" unicode="&#x13e;" horiz-adv-x="276" 
d="M65 0v707h146v-707h-146zM269 498l71 211h151l-116 -211h-106z" />
    <glyph glyph-name="Ldot" unicode="&#x13f;" horiz-adv-x="506" 
d="M389 312c-24 0 -43.833 7.83301 -59.5 23.5s-23.5 35.167 -23.5 58.5c0 22.667 7.83301 41.834 23.5 57.501s35.5 23.5 59.5 23.5c23.333 0 42.833 -7.83301 58.5 -23.5s23.5 -34.834 23.5 -57.501c0 -23.333 -7.83301 -42.833 -23.5 -58.5s-35.167 -23.5 -58.5 -23.5z
M219 674v-539h249v-135h-403v674h154z" />
    <glyph glyph-name="ldot" unicode="&#x140;" horiz-adv-x="501" 
d="M60 0v707h146v-707h-146zM306 371c0 22.667 7.83301 41.834 23.5 57.501s35.5 23.5 59.5 23.5c23.333 0 42.833 -7.83301 58.5 -23.5s23.5 -34.834 23.5 -57.501c0 -23.333 -7.83301 -42.833 -23.5 -58.5s-35.167 -23.5 -58.5 -23.5c-24 0 -43.833 7.83301 -59.5 23.5
s-23.5 35.167 -23.5 58.5z" />
    <glyph glyph-name="Lslash" unicode="&#x141;" horiz-adv-x="563" 
d="M279 135h249v-135h-403v205l-80 -45v121l80 45v348h154v-262l164 92v-121l-164 -92v-156z" />
    <glyph glyph-name="lslash" unicode="&#x142;" horiz-adv-x="341" 
d="M331 540v-121l-83 -57v-362h-146v263l-77 -53v121l77 53v323h146v-224z" />
    <glyph glyph-name="Nacute" unicode="&#x143;" horiz-adv-x="697" 
d="M302 721l86 177h146l-111 -177h-121zM65 0l-0.000976562 674h169l157 -279c22 -39.333 41.167 -76.166 57.5 -110.499s26.833 -58.5 31.5 -72.5l8 -22c-6.66699 49.333 -10 117.666 -10 204.999v279h154v-674h-169l-161 279c-21.333 36 -40.166 71.5 -56.499 106.5
s-27.5 60.833 -33.5 77.5l-8 25c10 -60 15 -129.667 15 -209v-279h-154z" />
    <glyph glyph-name="nacute" unicode="&#x144;" horiz-adv-x="580" 
d="M490 731l-111 -177h-121l86 177h146zM206 507l0.000976562 -86c12.667 28 32.167 50.167 58.5 66.5s57.833 24.5 94.5 24.5c52 0 92.667 -15.5 122 -46.5s44 -76.5 44 -136.5v-329h-146v302c0 30 -7 52.833 -21 68.5s-33.667 23.5 -59 23.5
c-26.667 0 -48.834 -10.5 -66.501 -31.5s-26.5 -52.5 -26.5 -94.5v-268h-146v507h146z" />
    <glyph glyph-name="uni0145" unicode="&#x145;" horiz-adv-x="697" 
d="M209 -262l71 211h151l-116 -211h-106zM65 0l-0.000976562 674h169l157 -279c22 -39.333 41.167 -76.166 57.5 -110.499s26.833 -58.5 31.5 -72.5l8 -22c-6.66699 49.333 -10 117.666 -10 204.999v279h154v-674h-169l-161 279c-21.333 36 -40.166 71.5 -56.499 106.5
s-27.5 60.833 -33.5 77.5l-8 25c10 -60 15 -129.667 15 -209v-279h-154z" />
    <glyph glyph-name="uni0146" unicode="&#x146;" horiz-adv-x="580" 
d="M149 -262l71 211h151l-116 -211h-106zM206 507l0.000976562 -86c12.667 28 32.167 50.167 58.5 66.5s57.833 24.5 94.5 24.5c52 0 92.667 -15.5 122 -46.5s44 -76.5 44 -136.5v-329h-146v302c0 30 -7 52.833 -21 68.5s-33.667 23.5 -59 23.5
c-26.667 0 -48.834 -10.5 -66.501 -31.5s-26.5 -52.5 -26.5 -94.5v-268h-146v507h146z" />
    <glyph glyph-name="Ncaron" unicode="&#x147;" horiz-adv-x="697" 
d="M65 0l-0.000976562 674h169l157 -279c22 -39.333 41.167 -76.166 57.5 -110.499s26.833 -58.5 31.5 -72.5l8 -22c-6.66699 49.333 -10 117.666 -10 204.999v279h154v-674h-169l-161 279c-21.333 36 -40.166 71.5 -56.499 106.5s-27.5 60.833 -33.5 77.5l-8 25
c10 -60 15 -129.667 15 -209v-279h-154zM414.999 721h-124l-156 177h139l79 -96l79 96h139z" />
    <glyph glyph-name="ncaron" unicode="&#x148;" horiz-adv-x="580" 
d="M361 554h-124l-156 177h139l79 -96l79 96h139zM206 507l0.000976562 -86c12.667 28 32.167 50.167 58.5 66.5s57.833 24.5 94.5 24.5c52 0 92.667 -15.5 122 -46.5s44 -76.5 44 -136.5v-329h-146v302c0 30 -7 52.833 -21 68.5s-33.667 23.5 -59 23.5
c-26.667 0 -48.834 -10.5 -66.501 -31.5s-26.5 -52.5 -26.5 -94.5v-268h-146v507h146z" />
    <glyph glyph-name="napostrophe" unicode="&#x149;" horiz-adv-x="668" 
d="M61 694h129l-109 -210h-102zM294 507l0.000976562 -86c12.667 28 32.167 50.167 58.5 66.5s57.833 24.5 94.5 24.5c52 0 92.667 -15.5 122 -46.5s44 -76.5 44 -136.5v-329h-146v302c0 30 -7 52.833 -21 68.5s-33.667 23.5 -59 23.5
c-26.667 0 -48.834 -10.5 -66.501 -31.5s-26.5 -52.5 -26.5 -94.5v-268h-146v507h146z" />
    <glyph glyph-name="Eng" unicode="&#x14a;" horiz-adv-x="697" 
d="M478 674h153.997v-674c-1.33301 -62.667 -19.166 -111.167 -53.499 -145.5s-81.5 -51.5 -141.5 -51.5c-46 0 -81.667 6.66699 -107 20v136c24.667 -15.333 50.334 -23 77.001 -23c43.333 0 67 21.333 71 64h-15l-161 279c-21.333 36 -40.166 71.5 -56.499 106.5
s-27.5 60.833 -33.5 77.5l-8 25c10 -60 15 -129.667 15 -209v-279h-154v674h169l157 -279c22 -39.333 41.167 -76.166 57.5 -110.499s26.833 -58.5 31.5 -72.5l8 -22c-6.66699 49.333 -10 117.666 -10 204.999v279z" />
    <glyph glyph-name="eng" unicode="&#x14b;" horiz-adv-x="580" 
d="M206 507v-86.001c12.667 28 32.167 50.167 58.5 66.5s57.833 24.5 94.5 24.5c52 0 92.667 -15.5 122 -46.5s44 -76.5 44 -136.5v-350c0 -53.333 -15 -96.166 -45 -128.499s-73.333 -48.5 -130 -48.5c-23.333 0 -49.666 5.33301 -78.999 16v111c22 -10 41 -15 57 -15
c34 0 51 22.333 51 67v321c0 30 -7 52.833 -21 68.5s-33.667 23.5 -59 23.5c-26.667 0 -48.834 -10.5 -66.501 -31.5s-26.5 -52.5 -26.5 -94.5v-268h-146v507h146z" />
    <glyph glyph-name="Omacron" unicode="&#x14c;" horiz-adv-x="736" 
d="M545 760h-356v99h356v-99zM40 339c0 103.333 29.833 186.833 89.5 250.5s139.167 95.5 238.5 95.5c100 0 179.667 -31.667 239 -95s89 -147 89 -251c0 -103.333 -29.833 -186.833 -89.5 -250.5s-139.167 -95.5 -238.5 -95.5c-100 0 -179.667 31.667 -239 95
s-89 147 -89 251zM205 339c0 -63.333 14.667 -113.5 44 -150.5s69 -55.5 119 -55.5s89.667 18.5 119 55.5s44 87.167 44 150.5s-14.667 113.5 -44 150.5s-69 55.5 -119 55.5s-89.667 -18.5 -119 -55.5s-44 -87.167 -44 -150.5z" />
    <glyph glyph-name="omacron" unicode="&#x14d;" horiz-adv-x="567" 
d="M462 593h-356v99h356v-99zM284 -8c-79.333 0 -140.666 23.833 -183.999 71.5s-65 108.834 -65 183.501c0 78 22.667 142.167 68 192.5s105.666 75.5 180.999 75.5c78.667 0 139.667 -24.333 183 -73s65 -110.667 65 -186c0 -76.667 -21.833 -139.834 -65.5 -189.501
s-104.5 -74.5 -182.5 -74.5zM283 400c-32 0 -56 -13.668 -72 -41.001s-24 -62.666 -24 -105.999s8.16699 -78.833 24.5 -106.5s40.833 -41.5 73.5 -41.5c32 0 55.833 13.5 71.5 40.5s23.5 62.167 23.5 105.5c0 99.333 -32.333 149 -97 149z" />
    <glyph glyph-name="Obreve" unicode="&#x14e;" horiz-adv-x="736" 
d="M183 898h111.998c0 -28 7.83301 -49.833 23.5 -65.5s36.5 -23.5 62.5 -23.5s46.833 7.83301 62.5 23.5s23.5 37.5 23.5 65.5h112c0 -62 -18.167 -107.667 -54.5 -137s-84.166 -44 -143.499 -44s-107.166 14.667 -143.499 44s-54.5 75 -54.5 137zM204.998 339
c0 -63.333 14.667 -113.5 44 -150.5s69 -55.5 119 -55.5s89.667 18.5 119 55.5s44 87.167 44 150.5s-14.667 113.5 -44 150.5s-69 55.5 -119 55.5s-89.667 -18.5 -119 -55.5s-44 -87.167 -44 -150.5zM39.998 339c0 103.333 29.833 186.833 89.5 250.5
s139.167 95.5 238.5 95.5c100 0 179.667 -31.667 239 -95s89 -147 89 -251c0 -103.333 -29.833 -186.833 -89.5 -250.5s-139.167 -95.5 -238.5 -95.5c-100 0 -179.667 31.667 -239 95s-89 147 -89 251z" />
    <glyph glyph-name="obreve" unicode="&#x14f;" horiz-adv-x="567" 
d="M90 731h111.998c0 -28 7.83301 -49.833 23.5 -65.5s36.5 -23.5 62.5 -23.5s46.833 7.83301 62.5 23.5s23.5 37.5 23.5 65.5h112c0 -62 -18.167 -107.667 -54.5 -137s-84.166 -44 -143.499 -44s-107.166 14.667 -143.499 44s-54.5 75 -54.5 137zM282.998 400
c-32 0 -56 -13.668 -72 -41.001s-24 -62.666 -24 -105.999s8.16699 -78.833 24.5 -106.5s40.833 -41.5 73.5 -41.5c32 0 55.833 13.5 71.5 40.5s23.5 62.167 23.5 105.5c0 99.333 -32.333 149 -97 149zM283.998 -8.00098c-79.333 0 -140.666 23.833 -183.999 71.5
s-65 108.834 -65 183.501c0 78 22.667 142.167 68 192.5s105.666 75.5 180.999 75.5c78.667 0 139.667 -24.333 183 -73s65 -110.667 65 -186c0 -76.667 -21.833 -139.834 -65.5 -189.501s-104.5 -74.5 -182.5 -74.5z" />
    <glyph glyph-name="Ohungarumlaut" unicode="&#x150;" horiz-adv-x="736" 
d="M415 721l94 177h145l-131 -177h-108zM228 721l86 177h133l-111 -177h-108zM40 339c0 103.333 29.833 186.833 89.5 250.5s139.167 95.5 238.5 95.5c100 0 179.667 -31.667 239 -95s89 -147 89 -251c0 -103.333 -29.833 -186.833 -89.5 -250.5
s-139.167 -95.5 -238.5 -95.5c-100 0 -179.667 31.667 -239 95s-89 147 -89 251zM205 339c0 -63.333 14.667 -113.5 44 -150.5s69 -55.5 119 -55.5s89.667 18.5 119 55.5s44 87.167 44 150.5s-14.667 113.5 -44 150.5s-69 55.5 -119 55.5s-89.667 -18.5 -119 -55.5
s-44 -87.167 -44 -150.5z" />
    <glyph glyph-name="ohungarumlaut" unicode="&#x151;" horiz-adv-x="567" 
d="M338 554l94 177h145l-131 -177h-108zM151 554l86 177h133l-111 -177h-108zM284 -8c-79.333 0 -140.666 23.833 -183.999 71.5s-65 108.834 -65 183.501c0 78 22.667 142.167 68 192.5s105.666 75.5 180.999 75.5c78.667 0 139.667 -24.333 183 -73s65 -110.667 65 -186
c0 -76.667 -21.833 -139.834 -65.5 -189.501s-104.5 -74.5 -182.5 -74.5zM283 400c-32 0 -56 -13.668 -72 -41.001s-24 -62.666 -24 -105.999s8.16699 -78.833 24.5 -106.5s40.833 -41.5 73.5 -41.5c32 0 55.833 13.5 71.5 40.5s23.5 62.167 23.5 105.5
c0 99.333 -32.333 149 -97 149z" />
    <glyph glyph-name="OE" unicode="&#x152;" horiz-adv-x="1000" 
d="M363 133c49.333 0 88 18.5 116 55.5s42 87.167 42 150.5s-14 113.5 -42 150.5s-66.667 55.5 -116 55.5s-88 -18.5 -116 -55.5s-42 -87.167 -42 -150.5s14 -113.5 42 -150.5s66.667 -55.5 116 -55.5zM666 123h274v-123h-419v44c-46.667 -34 -99.334 -51 -158.001 -51
c-99.333 0 -178 31.5 -236 94.5s-87 146.833 -87 251.5c0 104 29 187.667 87 251s136.667 95 236 95c58.667 0 111.334 -16.667 158.001 -50v39h415v-123h-270v-153h242v-122h-242v-153z" />
    <glyph glyph-name="oe" unicode="&#x153;" horiz-adv-x="879" 
d="M529 300l176 -0.000976562c0 2.66699 -0.166992 6.33398 -0.5 11.001s-0.5 8 -0.5 10c-6 53.333 -31.667 80 -77 80c-23.333 0 -44 -8.5 -62 -25.5s-30 -42.167 -36 -75.5zM285 104.999c32.667 0 57.833 13.666 75.5 40.999s26.5 62.333 26.5 105
c0 43.333 -8.66699 79 -26 107s-43.333 42 -78 42c-32 0 -56 -13.667 -72 -41s-24 -62.666 -24 -105.999s8.16699 -78.833 24.5 -106.5s40.833 -41.5 73.5 -41.5zM809.999 150.998v-122.001c-34.667 -22.667 -87.667 -34 -159 -34c-78 0 -141.667 24.667 -191 74
c-44.667 -51.333 -103.334 -77 -176.001 -77c-79.333 0 -140.666 23.833 -183.999 71.5s-65 108.834 -65 183.501c0 78 22.667 142.167 68 192.5s105.666 75.5 180.999 75.5c72 0 130 -24 174 -72c46 46 100.333 69 163 69c68 0 121.667 -19.833 161 -59.5
s59 -98.834 59 -177.501c0 -15.333 -2.66699 -41.666 -8 -78.999h-298c10 -28 27.333 -49.667 52 -65s54.334 -23 89.001 -23c51.333 0 96 14.333 134 43z" />
    <glyph glyph-name="Racute" unicode="&#x154;" horiz-adv-x="614" 
d="M466 898l-111 -177h-121l86 177h146zM219 549v-190h73c66.667 0 100 32.667 100 98c0 28.667 -8.66699 51.167 -26 67.5s-41 24.5 -71 24.5h-76zM412 0l-146 234h-47v-234h-154v674h233c75.333 0 135.833 -20 181.5 -60s68.5 -92 68.5 -156c0 -96 -41 -162.333 -123 -199
l171 -259h-184z" />
    <glyph glyph-name="racute" unicode="&#x155;" horiz-adv-x="370" 
d="M391 731l-111 -177h-121l86 177h146zM205 507l-0.00195312 -94c9.33301 29.333 24.833 52.833 46.5 70.5s46.834 26.5 75.501 26.5c16 0 28.667 -1.33301 38 -4v-138c-16 7.33301 -34.333 11 -55 11c-31.333 0 -56.666 -11.5 -75.999 -34.5s-29 -53.5 -29 -91.5v-253
h-146l1 507h145z" />
    <glyph glyph-name="uni0156" unicode="&#x156;" horiz-adv-x="614" 
d="M165 -262l71 211h151l-116 -211h-106zM219 549v-190h73c66.667 0 100 32.667 100 98c0 28.667 -8.66699 51.167 -26 67.5s-41 24.5 -71 24.5h-76zM425 259l171 -259h-184l-146 234h-47v-234h-154v674h233c75.333 0 135.833 -20 181.5 -60s68.5 -92 68.5 -156
c0 -96 -41 -162.333 -123 -199z" />
    <glyph glyph-name="uni0157" unicode="&#x157;" horiz-adv-x="370" 
d="M-20 -262l71 211h151l-116 -211h-106zM205 507l-0.00195312 -94c9.33301 29.333 24.833 52.833 46.5 70.5s46.834 26.5 75.501 26.5c16 0 28.667 -1.33301 38 -4v-138c-16 7.33301 -34.333 11 -55 11c-31.333 0 -56.666 -11.5 -75.999 -34.5s-29 -53.5 -29 -91.5v-253
h-146l1 507h145z" />
    <glyph glyph-name="Rcaron" unicode="&#x158;" horiz-adv-x="614" 
d="M378 721h-124l-156 177h139l79 -96l79 96h139zM219 549v-190h73c66.667 0 100 32.667 100 98c0 28.667 -8.66699 51.167 -26 67.5s-41 24.5 -71 24.5h-76zM412 0l-146 234h-47v-234h-154v674h233c75.333 0 135.833 -20 181.5 -60s68.5 -92 68.5 -156
c0 -96 -41 -162.333 -123 -199l171 -259h-184z" />
    <glyph glyph-name="rcaron" unicode="&#x159;" horiz-adv-x="370" 
d="M274 554h-124l-156 177h139l79 -96l79 96h139zM205 507l-0.00195312 -94c9.33301 29.333 24.833 52.833 46.5 70.5s46.834 26.5 75.501 26.5c16 0 28.667 -1.33301 38 -4v-138c-16 7.33301 -34.333 11 -55 11c-31.333 0 -56.666 -11.5 -75.999 -34.5s-29 -53.5 -29 -91.5
v-253h-146l1 507h145z" />
    <glyph glyph-name="Sacute" unicode="&#x15a;" horiz-adv-x="514" 
d="M202 721l86 177h146l-111 -177h-121zM454 644l-0.00195312 -143.998c-54 31.333 -110 47 -168 47c-26 0 -45.833 -5.33301 -59.5 -16s-20.5 -24.334 -20.5 -41.001s8.33301 -31.5 25 -44.5s41.667 -26.833 75 -41.5c20.667 -9.33301 37.834 -17.5 51.501 -24.5
s29.334 -16.667 47.001 -29s31.667 -25.333 42 -39s19.166 -30.5 26.499 -50.5s11 -41.667 11 -65c0 -60.667 -22.333 -109.834 -67 -147.501s-104 -56.5 -178 -56.5c-79.333 0 -144 14 -194 42v155c60.667 -44 125.334 -66 194.001 -66
c23.333 0 42.666 6.16699 57.999 18.5s23 28.5 23 48.5c0 6.66699 -1 13 -3 19s-5.66699 11.667 -11 17s-10.5 9.83301 -15.5 13.5s-12.333 8 -22 13l-24.5 12.5c-6.66699 3.33301 -16.5 8 -29.5 14s-23.5 10.667 -31.5 14c-43.333 20 -78.166 44.667 -104.499 74
s-39.5 68.333 -39.5 117c0 58 21.333 104.833 64 140.5s101.667 53.5 177 53.5c67.333 0 125.333 -11.333 174 -34z" />
    <glyph glyph-name="sacute" unicode="&#x15b;" horiz-adv-x="436" 
d="M181 554l86 177h146l-111 -177h-121zM380 492l-0.00195312 -124.997c-35.333 20.667 -76.666 31 -123.999 31c-17.333 0 -30.666 -3.5 -39.999 -10.5s-14 -15.833 -14 -26.5c0 -6 1.66699 -11.667 5 -17s8.83301 -10.333 16.5 -15s15 -8.83398 22 -12.501
s16.667 -8.16699 29 -13.5s22.166 -10 29.499 -14c30.667 -16 55.334 -34.5 74.001 -55.5s28 -47.833 28 -80.5c0 -50 -18 -88.667 -54 -116s-83.667 -41 -143 -41c-61.333 0 -112.666 10.333 -153.999 31v130c46 -32 94.667 -48 146 -48c36.667 0 55 11.667 55 35
c0 6 -1.66699 11.667 -5 17s-9 10.333 -17 15s-15.333 8.5 -22 11.5l-29 12.5c-12.667 5.33301 -22.334 9.66602 -29.001 12.999c-67.333 32 -101 80 -101 144c0 49.333 18.833 87.666 56.5 114.999s84.5 41 140.5 41c52 0 95.333 -7 130 -21z" />
    <glyph glyph-name="Scircumflex" unicode="&#x15c;" horiz-adv-x="514" 
d="M454 644l-0.00195312 -143.998c-54 31.333 -110 47 -168 47c-26 0 -45.833 -5.33301 -59.5 -16s-20.5 -24.334 -20.5 -41.001s8.33301 -31.5 25 -44.5s41.667 -26.833 75 -41.5c20.667 -9.33301 37.834 -17.5 51.501 -24.5s29.334 -16.667 47.001 -29
s31.667 -25.333 42 -39s19.166 -30.5 26.499 -50.5s11 -41.667 11 -65c0 -60.667 -22.333 -109.834 -67 -147.501s-104 -56.5 -178 -56.5c-79.333 0 -144 14 -194 42v155c60.667 -44 125.334 -66 194.001 -66c23.333 0 42.666 6.16699 57.999 18.5s23 28.5 23 48.5
c0 6.66699 -1 13 -3 19s-5.66699 11.667 -11 17s-10.5 9.83301 -15.5 13.5s-12.333 8 -22 13l-24.5 12.5c-6.66699 3.33301 -16.5 8 -29.5 14s-23.5 10.667 -31.5 14c-43.333 20 -78.166 44.667 -104.499 74s-39.5 68.333 -39.5 117c0 58 21.333 104.833 64 140.5
s101.667 53.5 177 53.5c67.333 0 125.333 -11.333 174 -34zM208.998 898.002h124l156 -177h-139l-79 96l-79 -96h-139z" />
    <glyph glyph-name="scircumflex" unicode="&#x15d;" horiz-adv-x="436" 
d="M380 492l-0.00195312 -124.997c-35.333 20.667 -76.666 31 -123.999 31c-17.333 0 -30.666 -3.5 -39.999 -10.5s-14 -15.833 -14 -26.5c0 -6 1.66699 -11.667 5 -17s8.83301 -10.333 16.5 -15s15 -8.83398 22 -12.501s16.667 -8.16699 29 -13.5s22.166 -10 29.499 -14
c30.667 -16 55.334 -34.5 74.001 -55.5s28 -47.833 28 -80.5c0 -50 -18 -88.667 -54 -116s-83.667 -41 -143 -41c-61.333 0 -112.666 10.333 -153.999 31v130c46 -32 94.667 -48 146 -48c36.667 0 55 11.667 55 35c0 6 -1.66699 11.667 -5 17s-9 10.333 -17 15
s-15.333 8.5 -22 11.5l-29 12.5c-12.667 5.33301 -22.334 9.66602 -29.001 12.999c-67.333 32 -101 80 -101 144c0 49.333 18.833 87.666 56.5 114.999s84.5 41 140.5 41c52 0 95.333 -7 130 -21zM177.998 731.003h124l156 -177h-139l-79 96l-79 -96h-139z" />
    <glyph glyph-name="uni015E" unicode="&#x15e;" horiz-adv-x="514" 
d="M454 644l-0.00195312 -143.998c-54 31.333 -110 47 -168 47c-26 0 -45.833 -5.33301 -59.5 -16s-20.5 -24.334 -20.5 -41.001s8.33301 -31.5 25 -44.5s41.667 -26.833 75 -41.5c20.667 -9.33301 37.834 -17.5 51.501 -24.5s29.334 -16.667 47.001 -29
s31.667 -25.333 42 -39s19.166 -30.5 26.499 -50.5s11 -41.667 11 -65c0 -60.667 -22.333 -109.834 -67 -147.501s-104 -56.5 -178 -56.5c-79.333 0 -144 14 -194 42v155c60.667 -44 125.334 -66 194.001 -66c23.333 0 42.666 6.16699 57.999 18.5s23 28.5 23 48.5
c0 6.66699 -1 13 -3 19s-5.66699 11.667 -11 17s-10.5 9.83301 -15.5 13.5s-12.333 8 -22 13l-24.5 12.5c-6.66699 3.33301 -16.5 8 -29.5 14s-23.5 10.667 -31.5 14c-43.333 20 -78.166 44.667 -104.499 74s-39.5 68.333 -39.5 117c0 58 21.333 104.833 64 140.5
s101.667 53.5 177 53.5c67.333 0 125.333 -11.333 174 -34zM338.998 -124.998c0 -42 -15.167 -76.334 -45.5 -103.001s-74.833 -40 -133.5 -40v91c24 0 42.5 5.66699 55.5 17s19.5 27 19.5 47c0 18.667 -8.66699 39.334 -26 62.001h113c11.333 -18 17 -42.667 17 -74z" />
    <glyph glyph-name="uni015F" unicode="&#x15f;" horiz-adv-x="436" 
d="M380 492l-0.00195312 -124.997c-35.333 20.667 -76.666 31 -123.999 31c-17.333 0 -30.666 -3.5 -39.999 -10.5s-14 -15.833 -14 -26.5c0 -6 1.66699 -11.667 5 -17s8.83301 -10.333 16.5 -15s15 -8.83398 22 -12.501s16.667 -8.16699 29 -13.5s22.166 -10 29.499 -14
c30.667 -16 55.334 -34.5 74.001 -55.5s28 -47.833 28 -80.5c0 -50 -18 -88.667 -54 -116s-83.667 -41 -143 -41c-61.333 0 -112.666 10.333 -153.999 31v130c46 -32 94.667 -48 146 -48c36.667 0 55 11.667 55 35c0 6 -1.66699 11.667 -5 17s-9 10.333 -17 15
s-15.333 8.5 -22 11.5l-29 12.5c-12.667 5.33301 -22.334 9.66602 -29.001 12.999c-67.333 32 -101 80 -101 144c0 49.333 18.833 87.666 56.5 114.999s84.5 41 140.5 41c52 0 95.333 -7 130 -21zM298.998 -124.997c0 -42 -15.167 -76.334 -45.5 -103.001
s-74.833 -40 -133.5 -40v91c24 0 42.5 5.66699 55.5 17s19.5 27 19.5 47c0 18.667 -8.66699 39.334 -26 62.001h113c11.333 -18 17 -42.667 17 -74z" />
    <glyph glyph-name="Scaron" unicode="&#x160;" horiz-adv-x="514" 
d="M454 644l-0.00195312 -143.998c-54 31.333 -110 47 -168 47c-26 0 -45.833 -5.33301 -59.5 -16s-20.5 -24.334 -20.5 -41.001s8.33301 -31.5 25 -44.5s41.667 -26.833 75 -41.5c20.667 -9.33301 37.834 -17.5 51.501 -24.5s29.334 -16.667 47.001 -29
s31.667 -25.333 42 -39s19.166 -30.5 26.499 -50.5s11 -41.667 11 -65c0 -60.667 -22.333 -109.834 -67 -147.501s-104 -56.5 -178 -56.5c-79.333 0 -144 14 -194 42v155c60.667 -44 125.334 -66 194.001 -66c23.333 0 42.666 6.16699 57.999 18.5s23 28.5 23 48.5
c0 6.66699 -1 13 -3 19s-5.66699 11.667 -11 17s-10.5 9.83301 -15.5 13.5s-12.333 8 -22 13l-24.5 12.5c-6.66699 3.33301 -16.5 8 -29.5 14s-23.5 10.667 -31.5 14c-43.333 20 -78.166 44.667 -104.499 74s-39.5 68.333 -39.5 117c0 58 21.333 104.833 64 140.5
s101.667 53.5 177 53.5c67.333 0 125.333 -11.333 174 -34zM327.998 721.002h-124l-156 177h139l79 -96l79 96h139z" />
    <glyph glyph-name="scaron" unicode="&#x161;" horiz-adv-x="436" 
d="M380 492l-0.00195312 -124.997c-35.333 20.667 -76.666 31 -123.999 31c-17.333 0 -30.666 -3.5 -39.999 -10.5s-14 -15.833 -14 -26.5c0 -6 1.66699 -11.667 5 -17s8.83301 -10.333 16.5 -15s15 -8.83398 22 -12.501s16.667 -8.16699 29 -13.5s22.166 -10 29.499 -14
c30.667 -16 55.334 -34.5 74.001 -55.5s28 -47.833 28 -80.5c0 -50 -18 -88.667 -54 -116s-83.667 -41 -143 -41c-61.333 0 -112.666 10.333 -153.999 31v130c46 -32 94.667 -48 146 -48c36.667 0 55 11.667 55 35c0 6 -1.66699 11.667 -5 17s-9 10.333 -17 15
s-15.333 8.5 -22 11.5l-29 12.5c-12.667 5.33301 -22.334 9.66602 -29.001 12.999c-67.333 32 -101 80 -101 144c0 49.333 18.833 87.666 56.5 114.999s84.5 41 140.5 41c52 0 95.333 -7 130 -21zM300.998 553.003h-124l-156 177h139l79 -96l79 96h139z" />
    <glyph glyph-name="uni0162" unicode="&#x162;" horiz-adv-x="544" 
d="M122 -262l71 211h151l-116 -211h-106zM514 674v-124h-164v-550h-155v550h-165v124h484z" />
    <glyph glyph-name="uni0163" unicode="&#x163;" horiz-adv-x="386" 
d="M85 -262l71 211h151l-116 -211h-106zM229 400l-0.000976562 -233c0 -18 5.16699 -31.667 15.5 -41s23.833 -14 40.5 -14c26.667 0 50.334 6.66699 71.001 20v-121c-24.667 -10.667 -58 -16 -100 -16c-115.333 0 -173 57.667 -173 173v232h-73v107h73v120h146v-120h118
v-107h-118z" />
    <glyph glyph-name="Tcaron" unicode="&#x164;" horiz-adv-x="544" 
d="M334 721h-124l-156 177h139l79 -96l79 96h139zM514 674v-124h-164v-550h-155v550h-165v124h484z" />
    <glyph glyph-name="tcaron" unicode="&#x165;" horiz-adv-x="386" 
d="M229 400l-0.000976562 -233c0 -18 5.16699 -31.667 15.5 -41s23.833 -14 40.5 -14c26.667 0 50.334 6.66699 71.001 20v-121c-24.667 -10.667 -58 -16 -100 -16c-115.333 0 -173 57.667 -173 173v232h-73v107h73v120h146v-120h118v-107h-118zM350.999 799h151l-116 -211
h-106z" />
    <glyph glyph-name="Tbar" unicode="&#x166;" horiz-adv-x="544" 
d="M514 550h-164v-165h110v-113h-110v-272h-155v272h-110v113h110v165h-165v124h484v-124z" />
    <glyph glyph-name="tbar" unicode="&#x167;" horiz-adv-x="426" 
d="M249 220l-0.000976562 -53c0 -18 5.16699 -31.667 15.5 -41s23.833 -14 40.5 -14c26.667 0 50.334 6.66699 71.001 20v-121c-24.667 -10.667 -58 -16 -100 -16c-115.333 0 -173 57.667 -173 173v52h-73v102h73v83h-73v102h73v120h146v-120h118v-102h-118v-83h118v-102
h-118z" />
    <glyph glyph-name="Utilde" unicode="&#x168;" horiz-adv-x="668" 
d="M454 260v414h154v-413c0 -88 -24.667 -155.167 -74 -201.5s-116 -69.5 -200 -69.5c-82.667 0 -149 23 -199 69s-75 111 -75 195v420h154v-419c0 -83.333 40 -125 120 -125s120 43.333 120 130zM466 886l74 -61c-28 -56.667 -73.333 -85 -136 -85
c-22 0 -45 5.83301 -69 17.5s-41 17.5 -51 17.5c-16.667 0 -29.667 -2.83301 -39 -8.5s-21.333 -17.167 -36 -34.5l-65 64c10.667 22.667 26.5 42 47.5 58s43.833 24 68.5 24c24 0 49.5 -5.83301 76.5 -17.5s46.833 -17.5 59.5 -17.5c32 0 55.333 14.333 70 43z" />
    <glyph glyph-name="utilde" unicode="&#x169;" horiz-adv-x="580" 
d="M418 719l74 -61c-28 -56.667 -73.333 -85 -136 -85c-22 0 -45 5.83301 -69 17.5s-41 17.5 -51 17.5c-16.667 0 -29.667 -2.83301 -39 -8.5s-21.333 -17.167 -36 -34.5l-65 64c10.667 22.667 26.5 42 47.5 58s43.833 24 68.5 24c24 0 49.5 -5.83301 76.5 -17.5
s46.833 -17.5 59.5 -17.5c32 0 55.333 14.333 70 43zM374 507h146v-507h-146v81c-26.667 -56.667 -78 -85 -154 -85c-52 0 -92.5 14.5 -121.5 43.5s-43.5 71.833 -43.5 128.5v339h146v-306c0 -59.333 26 -89 78 -89c63.333 0 95 42.333 95 127v268z" />
    <glyph glyph-name="Umacron" unicode="&#x16a;" horiz-adv-x="668" 
d="M454 260v414h154v-413c0 -88 -24.667 -155.167 -74 -201.5s-116 -69.5 -200 -69.5c-82.667 0 -149 23 -199 69s-75 111 -75 195v420h154v-419c0 -83.333 40 -125 120 -125s120 43.333 120 130zM520 760h-356v99h356v-99z" />
    <glyph glyph-name="umacron" unicode="&#x16b;" horiz-adv-x="580" 
d="M464 692v-99h-356v99h356zM374 507h146v-507h-146v81c-26.667 -56.667 -78 -85 -154 -85c-52 0 -92.5 14.5 -121.5 43.5s-43.5 71.833 -43.5 128.5v339h146v-306c0 -59.333 26 -89 78 -89c63.333 0 95 42.333 95 127v268z" />
    <glyph glyph-name="Ubreve" unicode="&#x16c;" horiz-adv-x="668" 
d="M132 898h111.998c0 -28 7.83301 -49.833 23.5 -65.5s36.5 -23.5 62.5 -23.5s46.833 7.83301 62.5 23.5s23.5 37.5 23.5 65.5h112c0 -62 -18.167 -107.667 -54.5 -137s-84.166 -44 -143.499 -44s-107.166 14.667 -143.499 44s-54.5 75 -54.5 137zM453.998 260v414h154
v-413c0 -88 -24.667 -155.167 -74 -201.5s-116 -69.5 -200 -69.5c-82.667 0 -149 23 -199 69s-75 111 -75 195v420h154v-419c0 -83.333 40 -125 120 -125s120 43.333 120 130z" />
    <glyph glyph-name="ubreve" unicode="&#x16d;" horiz-adv-x="580" 
d="M378 731h111.998c0 -62 -18.167 -107.667 -54.5 -137s-84.166 -44 -143.499 -44s-107.166 14.667 -143.499 44s-54.5 75 -54.5 137h112c0 -28 7.83301 -49.833 23.5 -65.5s36.5 -23.5 62.5 -23.5s46.833 7.83301 62.5 23.5s23.5 37.5 23.5 65.5zM373.998 507h146v-507
h-146v81c-26.667 -56.667 -78 -85 -154 -85c-52 0 -92.5 14.5 -121.5 43.5s-43.5 71.833 -43.5 128.5v339h146v-306c0 -59.333 26 -89 78 -89c63.333 0 95 42.333 95 127v268z" />
    <glyph glyph-name="Uring" unicode="&#x16e;" horiz-adv-x="668" 
d="M200 846c0 37.333 13.333 69.333 40 96s58.667 40 96 40s69.333 -13.333 96 -40s40 -58.667 40 -96s-13.333 -69.333 -40 -96s-58.667 -40 -96 -40s-69.333 13.333 -96 40s-40 58.667 -40 96zM283 849c0 -15.333 5 -28.5 15 -39.5s22.667 -16.5 38 -16.5s28 5.5 38 16.5
s15 24.167 15 39.5s-5 28.5 -15 39.5s-22.667 16.5 -38 16.5s-28 -5.5 -38 -16.5s-15 -24.167 -15 -39.5zM454 260v414h154v-413c0 -88 -24.667 -155.167 -74 -201.5s-116 -69.5 -200 -69.5c-82.667 0 -149 23 -199 69s-75 111 -75 195v420h154v-419
c0 -83.333 40 -125 120 -125s120 43.333 120 130z" />
    <glyph glyph-name="uring" unicode="&#x16f;" horiz-adv-x="580" 
d="M291 738c-15.333 0 -28 -5.5 -38 -16.5s-15 -24.167 -15 -39.5s5 -28.5 15 -39.5s22.667 -16.5 38 -16.5s28 5.5 38 16.5s15 24.167 15 39.5s-5 28.5 -15 39.5s-22.667 16.5 -38 16.5zM291 543c-37.333 0 -69.333 13.333 -96 40s-40 58.667 -40 96s13.333 69.333 40 96
s58.667 40 96 40s69.333 -13.333 96 -40s40 -58.667 40 -96s-13.333 -69.333 -40 -96s-58.667 -40 -96 -40zM374 507h146v-507h-146v81c-26.667 -56.667 -78 -85 -154 -85c-52 0 -92.5 14.5 -121.5 43.5s-43.5 71.833 -43.5 128.5v339h146v-306c0 -59.333 26 -89 78 -89
c63.333 0 95 42.333 95 127v268z" />
    <glyph glyph-name="Uhungarumlaut" unicode="&#x170;" horiz-adv-x="668" 
d="M454 260v414h154v-413c0 -88 -24.667 -155.167 -74 -201.5s-116 -69.5 -200 -69.5c-82.667 0 -149 23 -199 69s-75 111 -75 195v420h154v-419c0 -83.333 40 -125 120 -125s120 43.333 120 130zM377 721l94 177h145l-131 -177h-108zM190 721l86 177h133l-111 -177h-108z
" />
    <glyph glyph-name="uhungarumlaut" unicode="&#x171;" horiz-adv-x="580" 
d="M445 554h-108l94 177h145zM369 731l-111 -177h-108l86 177h133zM374 239v268h146v-507h-146v81c-26.667 -56.667 -78 -85 -154 -85c-52 0 -92.5 14.5 -121.5 43.5s-43.5 71.833 -43.5 128.5v339h146v-306c0 -59.333 26 -89 78 -89c63.333 0 95 42.333 95 127z" />
    <glyph glyph-name="Uogonek" unicode="&#x172;" horiz-adv-x="668" 
d="M454 674h154v-413c0 -65.333 -14.167 -119.5 -42.5 -162.5s-67.5 -73.167 -117.5 -90.5c-78.667 -48.667 -118 -92 -118 -130c0 -22.667 14.333 -34 43 -34c29.333 0 58.333 10 87 30v-101c-32 -16.667 -68.333 -25 -109 -25c-46.667 0 -81.167 11 -103.5 33
s-33.5 50 -33.5 84c0 45.333 21 88.333 63 129c-66.667 10 -119.5 37.333 -158.5 82s-58.5 104 -58.5 178v420h154v-419c0 -83.333 40 -125 120 -125s120 43.333 120 130v414z" />
    <glyph glyph-name="uogonek" unicode="&#x173;" horiz-adv-x="580" 
d="M520 507v-507c-78.667 -48.667 -118 -92 -118 -130c0 -22.667 14.333 -34 43 -34c29.333 0 58.333 10 87 30v-101c-32 -16.667 -68.333 -25 -109 -25c-46.667 0 -81.167 11 -103.5 33s-33.5 50 -33.5 84c0 54 29.333 104 88 150v74c-26.667 -56.667 -78 -85 -154 -85
c-52 0 -92.5 14.5 -121.5 43.5s-43.5 71.833 -43.5 128.5v339h146v-306c0 -59.333 26 -89 78 -89c63.333 0 95 42.333 95 127v268h146z" />
    <glyph glyph-name="Wcircumflex" unicode="&#x174;" horiz-adv-x="971" 
d="M431 664l113.999 0.000976562l66 -238c14 -50 26.5 -96.5 37.5 -139.5s18.5 -73.5 22.5 -91.5l6 -27c8.66699 59.333 27.334 145.666 56.001 258.999l62 247h157l-180 -674h-172l-59 213l-34.5 130c-9 35.333 -14.5 58 -16.5 68l-2 15c-2 -27.333 -20 -98.333 -54 -213
l-62 -213h-172l-181 674h162l62 -248c13.333 -53.333 24.333 -101.5 33 -144.5s14 -72.833 16 -89.5l4 -24c11.333 52 34 138 68 258zM429.999 898.001h124l156 -177h-139l-79 96l-79 -96h-139z" />
    <glyph glyph-name="wcircumflex" unicode="&#x175;" horiz-adv-x="806" 
d="M168 0l-163 507.006h151l44 -167c10.667 -42 19.667 -79.833 27 -113.5s11.666 -56.834 12.999 -69.501l3 -19c4.66699 40 21 107.333 49 202l49 167h126l48 -167c12 -42.667 22 -80.834 30 -114.501s13 -56.834 15 -69.501l3 -18
c4.66699 39.333 20.334 106.666 47.001 201.999l47 167h144l-162 -507h-150l-44 166c-9.33301 36 -17.5 69.667 -24.5 101s-11.5 53.666 -13.5 66.999l-3 20c-6.66699 -44.667 -20.667 -107.334 -42 -188.001l-44 -166h-150zM345 731.006h124l156 -177h-139l-79 96l-79 -96
h-139z" />
    <glyph glyph-name="Ycircumflex" unicode="&#x176;" horiz-adv-x="643" 
d="M321 817l-79 -96h-139l156 177h124l156 -177h-139zM630 674l-233 -426v-248h-154v247l-230 427h180l41 -98l53 -130l27 -70l5 -16c6.66699 30 36 102 88 216l44 98h179z" />
    <glyph glyph-name="ycircumflex" unicode="&#x177;" horiz-adv-x="532" 
d="M207 731h124l156 -177h-139l-79 96l-79 -96h-139zM201 8l-195.999 498.999h159l55 -158c14 -40.667 25.5 -75.667 34.5 -105s14.5 -48.666 16.5 -57.999l3 -14c7.33301 26.667 25.333 85.667 54 177l50 158h150l-183 -492c-52.667 -142 -133 -213 -241 -213
c-20.667 0 -39.334 1.66699 -56.001 5v116c10.667 -2.66699 22 -4 34 -4c55.333 0 95.333 29.667 120 89z" />
    <glyph glyph-name="Ydieresis" unicode="&#x178;" horiz-adv-x="643" 
d="M463 727c-24 0 -43.833 7.83301 -59.5 23.5s-23.5 35.167 -23.5 58.5c0 22.667 7.83301 41.834 23.5 57.501s35.5 23.5 59.5 23.5c23.333 0 43 -7.83301 59 -23.5s24 -34.834 24 -57.501c0 -23.333 -8 -42.833 -24 -58.5s-35.667 -23.5 -59 -23.5zM195 727
c-24 0 -43.833 7.83301 -59.5 23.5s-23.5 35.167 -23.5 58.5c0 22.667 7.83301 41.834 23.5 57.501s35.5 23.5 59.5 23.5c23.333 0 42.833 -7.83301 58.5 -23.5s23.5 -34.834 23.5 -57.501c0 -23.333 -7.83301 -42.833 -23.5 -58.5s-35.167 -23.5 -58.5 -23.5zM630 674
l-233 -426v-248h-154v247l-230 427h180l41 -98l53 -130l27 -70l5 -16c6.66699 30 36 102 88 216l44 98h179z" />
    <glyph glyph-name="Zacute" unicode="&#x179;" horiz-adv-x="621" 
d="M272 721l86 177h146l-111 -177h-121zM549 674v-109l-304 -441h316v-124h-501v113l302 437h-296v124h483z" />
    <glyph glyph-name="zacute" unicode="&#x17a;" horiz-adv-x="479" 
d="M200 553l86 177h146l-111 -177h-121zM427 507v-101l-222 -293h234v-113h-399v105l222 290h-213v112h378z" />
    <glyph glyph-name="Zdotaccent" unicode="&#x17b;" horiz-adv-x="621" 
d="M549 674v-109l-304 -441h316v-124h-501v113l302 437h-296v124h483zM246 810c0 22.667 7.83301 41.834 23.5 57.501s35.5 23.5 59.5 23.5c23.333 0 42.833 -7.83301 58.5 -23.5s23.5 -34.834 23.5 -57.501c0 -23.333 -7.83301 -42.833 -23.5 -58.5
s-35.167 -23.5 -58.5 -23.5c-24 0 -43.833 7.83301 -59.5 23.5s-23.5 35.167 -23.5 58.5z" />
    <glyph glyph-name="zdotaccent" unicode="&#x17c;" horiz-adv-x="479" 
d="M427 507v-101l-222 -293h234v-113h-399v105l222 290h-213v112h378zM169 642c0 22.667 7.83301 41.834 23.5 57.501s35.5 23.5 59.5 23.5c23.333 0 42.833 -7.83301 58.5 -23.5s23.5 -34.834 23.5 -57.501c0 -23.333 -7.83301 -42.833 -23.5 -58.5
s-35.167 -23.5 -58.5 -23.5c-24 0 -43.833 7.83301 -59.5 23.5s-23.5 35.167 -23.5 58.5z" />
    <glyph glyph-name="Zcaron" unicode="&#x17d;" horiz-adv-x="621" 
d="M549 674v-109l-304 -441h316v-124h-501v113l302 437h-296v124h483zM382 721h-124l-156 177h139l79 -96l79 96h139z" />
    <glyph glyph-name="zcaron" unicode="&#x17e;" horiz-adv-x="479" 
d="M427 507v-101l-222 -293h234v-113h-399v105l222 290h-213v112h378zM321 554h-124l-156 177h139l79 -96l79 96h139z" />
    <glyph glyph-name="longs" unicode="&#x17f;" horiz-adv-x="305" 
d="M335 760l0.000976562 -118c-18 7.33301 -35.333 11 -52 11c-24.667 0 -43 -5.66699 -55 -17s-18 -31.333 -18 -60v-576h-145v576c0 61.333 17.167 109 51.5 143s81.833 51 142.5 51c31.333 0 56.666 -3.33301 75.999 -10z" />
    <glyph glyph-name="florin" unicode="&#x192;" horiz-adv-x="522" 
d="M190 386l12.002 79c10 65.333 32 117.333 66 156s80 58 138 58c38 0 66.667 -3.33301 86 -10v-118c-18.667 7.33301 -37.667 11 -57 11c-48 0 -77.333 -35.667 -88 -107l-11 -69h96v-107h-112l-50 -321c-10 -65.333 -32 -117.333 -66 -156s-80 -58 -138 -58
c-40.667 0 -72.667 5 -96 15v118c21.333 -10.667 45.333 -16 72 -16c25.333 0 44.166 8.83301 56.499 26.5s21.166 44.5 26.499 80.5l48 311h-87v107h104z" />
    <glyph glyph-name="uni0218" unicode="&#x218;" horiz-adv-x="514" 
d="M454 644l-0.00195312 -143.998c-54 31.333 -110 47 -168 47c-26 0 -45.833 -5.33301 -59.5 -16s-20.5 -24.334 -20.5 -41.001s8.33301 -31.5 25 -44.5s41.667 -26.833 75 -41.5c20.667 -9.33301 37.834 -17.5 51.501 -24.5s29.334 -16.667 47.001 -29
s31.667 -25.333 42 -39s19.166 -30.5 26.499 -50.5s11 -41.667 11 -65c0 -60.667 -22.333 -109.834 -67 -147.501s-104 -56.5 -178 -56.5c-79.333 0 -144 14 -194 42v155c60.667 -44 125.334 -66 194.001 -66c23.333 0 42.666 6.16699 57.999 18.5s23 28.5 23 48.5
c0 6.66699 -1 13 -3 19s-5.66699 11.667 -11 17s-10.5 9.83301 -15.5 13.5s-12.333 8 -22 13l-24.5 12.5c-6.66699 3.33301 -16.5 8 -29.5 14s-23.5 10.667 -31.5 14c-43.333 20 -78.166 44.667 -104.499 74s-39.5 68.333 -39.5 117c0 58 21.333 104.833 64 140.5
s101.667 53.5 177 53.5c67.333 0 125.333 -11.333 174 -34zM118.998 -261.998l71 211h151l-116 -211h-106z" />
    <glyph glyph-name="uni0219" unicode="&#x219;" horiz-adv-x="436" 
d="M79 -262l71 211h151l-116 -211h-106zM380 492l-0.00195312 -124.997c-35.333 20.667 -76.666 31 -123.999 31c-17.333 0 -30.666 -3.5 -39.999 -10.5s-14 -15.833 -14 -26.5c0 -6 1.66699 -11.667 5 -17s8.83301 -10.333 16.5 -15s15 -8.83398 22 -12.501
s16.667 -8.16699 29 -13.5s22.166 -10 29.499 -14c30.667 -16 55.334 -34.5 74.001 -55.5s28 -47.833 28 -80.5c0 -50 -18 -88.667 -54 -116s-83.667 -41 -143 -41c-61.333 0 -112.666 10.333 -153.999 31v130c46 -32 94.667 -48 146 -48c36.667 0 55 11.667 55 35
c0 6 -1.66699 11.667 -5 17s-9 10.333 -17 15s-15.333 8.5 -22 11.5l-29 12.5c-12.667 5.33301 -22.334 9.66602 -29.001 12.999c-67.333 32 -101 80 -101 144c0 49.333 18.833 87.666 56.5 114.999s84.5 41 140.5 41c52 0 95.333 -7 130 -21z" />
    <glyph glyph-name="uni021A" unicode="&#x21a;" horiz-adv-x="544" 
d="M125 -262l71 211h151l-116 -211h-106zM514 674v-124h-164v-550h-155v550h-165v124h484z" />
    <glyph glyph-name="uni021B" unicode="&#x21b;" horiz-adv-x="386" 
d="M108 -262l71 211h151l-116 -211h-106zM229 400l-0.000976562 -233c0 -18 5.16699 -31.667 15.5 -41s23.833 -14 40.5 -14c26.667 0 50.334 6.66699 71.001 20v-121c-24.667 -10.667 -58 -16 -100 -16c-115.333 0 -173 57.667 -173 173v232h-73v107h73v120h146v-120h118
v-107h-118z" />
    <glyph glyph-name="uni0237" unicode="&#x237;" horiz-adv-x="274" 
d="M-40 -182l-0.000976562 110.999c22 -10 41 -15 57 -15c34.667 0 52 22.333 52 67v526h145v-528c0 -53.333 -15 -96.166 -45 -128.499s-73.333 -48.5 -130 -48.5c-23.333 0 -49.666 5.33301 -78.999 16z" />
    <glyph glyph-name="uni02BC" unicode="&#x2bc;" horiz-adv-x="258" 
d="M18 433l101 261h161l-136 -261h-126z" />
    <glyph glyph-name="circumflex" unicode="&#x2c6;" horiz-adv-x="500" 
d="M188 798h124l156 -177h-139l-79 96l-79 -96h-139z" />
    <glyph glyph-name="caron" unicode="&#x2c7;" horiz-adv-x="500" 
d="M312 621h-124l-156 177h139l79 -96l79 96h139z" />
    <glyph glyph-name="uni02C9" unicode="&#x2c9;" horiz-adv-x="500" 
d="M428 651h-356v99h356v-99z" />
    <glyph glyph-name="breve" unicode="&#x2d8;" horiz-adv-x="500" 
d="M52 798h111.998c0 -28 7.83301 -49.833 23.5 -65.5s36.5 -23.5 62.5 -23.5s46.833 7.83301 62.5 23.5s23.5 37.5 23.5 65.5h112c0 -62 -18.167 -107.667 -54.5 -137s-84.166 -44 -143.499 -44s-107.166 14.667 -143.499 44s-54.5 75 -54.5 137z" />
    <glyph glyph-name="dotaccent" unicode="&#x2d9;" horiz-adv-x="500" 
d="M167 711c0 22.667 7.83301 41.834 23.5 57.501s35.5 23.5 59.5 23.5c23.333 0 42.833 -7.83301 58.5 -23.5s23.5 -34.834 23.5 -57.501c0 -23.333 -7.83301 -42.833 -23.5 -58.5s-35.167 -23.5 -58.5 -23.5c-24 0 -43.833 7.83301 -59.5 23.5s-23.5 35.167 -23.5 58.5z
" />
    <glyph glyph-name="ring" unicode="&#x2da;" horiz-adv-x="500" 
d="M114 710c0 37.333 13.333 69.333 40 96s58.667 40 96 40s69.333 -13.333 96 -40s40 -58.667 40 -96s-13.333 -69.333 -40 -96s-58.667 -40 -96 -40s-69.333 13.333 -96 40s-40 58.667 -40 96zM197 713c0 -15.333 5 -28.5 15 -39.5s22.667 -16.5 38 -16.5s28 5.5 38 16.5
s15 24.167 15 39.5s-5 28.5 -15 39.5s-22.667 16.5 -38 16.5s-28 -5.5 -38 -16.5s-15 -24.167 -15 -39.5z" />
    <glyph glyph-name="ogonek" unicode="&#x2db;" horiz-adv-x="500" 
d="M373 -221c-32 -16.667 -68.332 -25 -108.999 -25c-46.667 0 -81.167 11 -103.5 33s-33.5 50 -33.5 84c0 26 6.66699 51 20 75s30.666 44.667 51.999 62s41 31.333 59 42s36 20 54 28l49 -64c-78.667 -48.667 -118 -92 -118 -130c0 -22.667 14.333 -34 43 -34
c29.333 0 58.333 10 87 30v-101z" />
    <glyph glyph-name="tilde" unicode="&#x2dc;" horiz-adv-x="500" 
d="M374 767l74 -61c-28 -56.667 -73.333 -85 -136 -85c-22 0 -45 5.83301 -69 17.5s-41 17.5 -51 17.5c-16.667 0 -29.667 -2.83301 -39 -8.5s-21.333 -17.167 -36 -34.5l-65 64c10.667 22.667 26.5 42 47.5 58s43.833 24 68.5 24c24 0 49.5 -5.83301 76.5 -17.5
s46.833 -17.5 59.5 -17.5c32 0 55.333 14.333 70 43z" />
    <glyph glyph-name="hungarumlaut" unicode="&#x2dd;" horiz-adv-x="500" 
d="M224 621l94 177h145l-131 -177h-108zM37 621l86 177h133l-111 -177h-108z" />
    <glyph glyph-name="pi" unicode="&#x3c0;" horiz-adv-x="606" 
d="M596 507l-0.000976562 -106.999h-80v-400h-146v400h-124v-184c0 -80.667 -16.167 -136.834 -48.5 -168.501s-85.166 -47.5 -158.499 -47.5v119c22.667 0 38.5 5.5 47.5 16.5s13.5 32.833 13.5 65.5v199h-80v107h576z" />
    <glyph glyph-name="uni0901" unicode="&#x901;" horiz-adv-x="0" 
d="M-139 733c-72 0 -129.5 16.168 -172.5 48.501s-64.5 79.166 -64.5 140.499h136c0 -26 9.16699 -47.333 27.5 -64s42.833 -25 73.5 -25c29.333 0 52.833 8.33301 70.5 25s26.5 38 26.5 64h136c0 -58 -22.667 -104 -68 -138s-100.333 -51 -165 -51zM-210 977.001
c0 19.333 6.83301 35.833 20.5 49.5s30.167 20.5 49.5 20.5s35.833 -6.83301 49.5 -20.5s20.5 -30.167 20.5 -49.5s-6.83301 -35.833 -20.5 -49.5s-30.167 -20.5 -49.5 -20.5s-35.833 6.83301 -49.5 20.5s-20.5 30.167 -20.5 49.5z" />
    <glyph glyph-name="uni0902" unicode="&#x902;" horiz-adv-x="0" 
d="M-222 818c0 22.667 8 42 24 58s35.333 24 58 24s42 -8 58 -24s24 -35.333 24 -58s-8 -42 -24 -58s-35.333 -24 -58 -24s-42 8 -58 24s-24 35.333 -24 58z" />
    <glyph glyph-name="uni0903" unicode="&#x903;" horiz-adv-x="285" 
d="M88 484c0 22.667 8 42 24 58s35.333 24 58 24s42 -8 58 -24s24 -35.333 24 -58s-8 -42 -24 -58s-35.333 -24 -58 -24s-42 8 -58 24s-24 35.333 -24 58zM88 153c0 23.333 8 42.833 24 58.5s35.333 23.5 58 23.5s42 -7.83301 58 -23.5s24 -35.167 24 -58.5
s-8 -42.833 -24 -58.5s-35.333 -23.5 -58 -23.5s-42 7.83301 -58 23.5s-24 35.167 -24 58.5z" />
    <glyph glyph-name="uni0905" unicode="&#x905;" horiz-adv-x="702" 
d="M732 671l-0.000976562 -112h-100v-559h-142v232h-107v-7c0 -53.333 -18.167 -96.666 -54.5 -129.999s-90.5 -50 -162.5 -50c-48.667 0 -94 7.33301 -136 22v130c42.667 -22.667 85.667 -34 129 -34c58.667 0 88 28 88 84c0 21.333 -6.83301 38.333 -20.5 51
s-38.5 19 -74.5 19h-41v118h31c55.333 0 83 20.667 83 62c0 40 -23.333 60 -70 60c-34 0 -69 -8.33301 -105 -25v127c32.667 12.667 71.334 19 116.001 19c64 0 113.333 -14.5 148 -43.5s52 -68.833 52 -119.5c0 -34.667 -9 -64.334 -27 -89.001s-43.667 -41.667 -77 -51
c28 -4 51.667 -13.667 71 -29h157v213h-77v112h319z" />
    <glyph glyph-name="uni0906" unicode="&#x906;" horiz-adv-x="981" 
d="M1011 671l-0.000976562 -112h-100v-559h-141v559h-138v-559h-142v232h-107v-7c0 -53.333 -18.167 -96.666 -54.5 -129.999s-90.5 -50 -162.5 -50c-48.667 0 -94 7.33301 -136 22v130c42.667 -22.667 85.667 -34 129 -34c58.667 0 88 28 88 84
c0 21.333 -6.83301 38.333 -20.5 51s-38.5 19 -74.5 19h-41v118h31c55.333 0 83 20.667 83 62c0 40 -23.333 60 -70 60c-34 0 -69 -8.33301 -105 -25v127c32.667 12.667 71.334 19 116.001 19c64 0 113.333 -14.5 148 -43.5s52 -68.833 52 -119.5
c0 -34.667 -9 -64.334 -27 -89.001s-43.667 -41.667 -77 -51c28 -4 51.667 -13.667 71 -29h157v213h-77v112h598z" />
    <glyph glyph-name="uni0907" unicode="&#x907;" horiz-adv-x="529" 
d="M454 559l-0.00390625 -154h-1l1 -3h-202c-34 0 -51 -12.333 -51 -37c0 -24 24 -36 72 -36c79.333 0 136.833 -13.5 172.5 -40.5s53.5 -68.5 53.5 -124.5c0 -46 -17.5 -85.333 -52.5 -118s-80.167 -49 -135.5 -49c-45.333 0 -85.666 9.33301 -120.999 28v-96h-140v252h130
c8.66699 -23.333 23.334 -42.333 44.001 -57s44.334 -22 71.001 -22c18 0 33.333 5.5 46 16.5s19 24.833 19 41.5c0 11.333 -2.5 20.5 -7.5 27.5s-12.167 12 -21.5 15s-18.166 5 -26.499 6s-18.833 1.5 -31.5 1.5c-143.333 0 -215 49 -215 147c0 52.667 18.667 92 56 118
s85.333 39 144 39h56v45h-344v112h589v-112h-105z" />
    <glyph glyph-name="uni0908" unicode="&#x908;" horiz-adv-x="529" 
d="M444 559l-0.00292969 -153.999h-1l1 -3h-192c-34 0 -51 -12.333 -51 -37c0 -24 24 -36 72 -36c79.333 0 136.833 -13.5 172.5 -40.5s53.5 -68.5 53.5 -124.5c0 -46 -17.5 -85.333 -52.5 -118s-80.167 -49 -135.5 -49c-45.333 0 -85.666 9.33301 -120.999 28v-96h-140v252
h130c8.66699 -23.333 23.334 -42.333 44.001 -57s44.334 -22 71.001 -22c18 0 33.333 5.5 46 16.5s19 24.833 19 41.5c0 11.333 -2.5 20.5 -7.5 27.5s-12.167 12 -21.5 15s-18.166 5 -26.499 6s-18.833 1.5 -31.5 1.5c-143.333 0 -215 49 -215 147
c0 52.667 18.667 92 56 118s85.333 39 144 39h46v45h-334v112h304c-20.667 29.333 -31 61.666 -31 96.999c0 54.667 17.667 96.5 53 125.5s78.333 43.5 129 43.5c48.667 0 90 -8.33301 124 -25v-130c-28.667 20.667 -63.334 31 -104.001 31
c-18 0 -32.167 -5.66699 -42.5 -17s-15.5 -25 -15.5 -41c0 -25.333 10 -53.333 30 -84h142v-112h-115z" />
    <glyph glyph-name="uni0909" unicode="&#x909;" horiz-adv-x="464" 
d="M494 671l-0.000976562 -112.001h-126c17.333 -22.667 26 -49 26 -79c0 -38 -11.667 -68.167 -35 -90.5s-55.666 -36.166 -96.999 -41.499c53.333 -5.33301 94.5 -20.833 123.5 -46.5s43.5 -59.834 43.5 -102.501c0 -60.667 -22.333 -107.334 -67 -140.001
s-106.667 -49 -186 -49c-55.333 0 -104 7.33301 -146 22v130c42.667 -22.667 89 -34 139 -34c42 0 72.167 6.83301 90.5 20.5s27.5 34.834 27.5 63.501c0 51.333 -45 77 -135 77h-41v118h31c36 0 63.333 5.5 82 16.5s28 32.5 28 64.5c0 26.667 -10.333 50.334 -31 71.001
h-251v112h524z" />
    <glyph glyph-name="uni090A" unicode="&#x90a;" horiz-adv-x="726" 
d="M756 671l-0.00292969 -112.002h-388c17.333 -22.667 26 -49 26 -79c0 -38 -11.667 -68.167 -35 -90.5s-55.666 -36.166 -96.999 -41.499c38 -4 70 -13 96 -27c20 70 71.333 105 154 105c60.667 0 108.334 -17.667 143.001 -53s52 -82.333 52 -141
c0 -63.333 -18.167 -115.166 -54.5 -155.499s-87.833 -60.5 -154.5 -60.5c-10.667 0 -21.667 1 -33 3v111c5.33301 -1.33301 11 -2 17 -2c30 0 51.5 8 64.5 24s19.5 41.333 19.5 76c0 25.333 -5.66699 45.833 -17 61.5s-27.666 23.5 -48.999 23.5
c-22.667 0 -40.167 -10.333 -52.5 -31s-18.5 -47.334 -18.5 -80.001v-3c0 -60.667 -22.333 -107.334 -67 -140.001s-106.667 -49 -186 -49c-55.333 0 -104 7.33301 -146 22v130c42.667 -22.667 89 -34 139 -34c42 0 72.167 6.83301 90.5 20.5s27.5 34.834 27.5 63.501
c0 51.333 -45 77 -135 77h-41v118h31c36 0 63.333 5.5 82 16.5s28 32.5 28 64.5c0 26.667 -10.333 50.334 -31 71.001h-251v112h786z" />
    <glyph glyph-name="uni090B" unicode="&#x90b;" horiz-adv-x="913" 
d="M521 559l-0.00292969 -166.999l85 49v64h135v-85c0 -25.333 5.5 -45.5 16.5 -60.5s27.5 -22.5 49.5 -22.5h34v-112h-46c-57.333 0 -86 -17 -86 -51c0 -12 4.83301 -21.5 14.5 -28.5s21.5 -10.5 35.5 -10.5c42.667 0 77.334 9 104.001 27v-118
c-23.333 -13.333 -57.333 -20 -102 -20c-52 0 -96.5 11.5 -133.5 34.5s-55.5 57.833 -55.5 104.5c0 59.333 32.667 98.666 98 117.999c-18 11.333 -32.667 26 -44 44l-105 -60v-265h-143v195l-303 -169v133l165 90c-1.33301 78 -34.666 117 -99.999 117
c-22 0 -44 -4.66699 -66 -14v123c24 8 50.667 12 80 12c114.667 0 180.334 -59 197.001 -177l27 15v234h-408v112h973v-112h-422z" />
    <glyph glyph-name="uni090C" unicode="&#x90c;" horiz-adv-x="823" 
d="M732 559v-377c-34.667 0 -61.834 -6.33301 -81.501 -19s-29.5 -30 -29.5 -52c0 -37.333 24 -56 72 -56c36 0 69.333 7.66699 100 23v-109c-32.667 -14.667 -71.667 -22 -117 -22c-58 0 -105.167 13.5 -141.5 40.5s-54.5 65.5 -54.5 115.5c0 30 9.5 57.5 28.5 82.5
s45.833 42.5 80.5 52.5v132c-15.333 4.66699 -31 7 -47 7c-32 0 -55.167 -8 -69.5 -24s-21.5 -41.667 -21.5 -77v-65h-143v67c0 56.667 -22.333 85 -67 85c-44 0 -66 -33 -66 -99c0 -98 52 -147 156 -147c14 0 28.333 1 43 3v-115c-18 -2.66699 -37.667 -4 -59 -4
c-85.333 0 -153.333 24 -204 72s-76 112.333 -76 193c0 65.333 16.833 117.333 50.5 156s80.5 58 140.5 58c40.667 0 74.834 -8.66699 102.501 -26s44.5 -38.333 50.5 -63c18.667 64.667 70.334 97 155.001 97c15.333 0 33.666 -3.33301 54.999 -10v81h-619v112h883v-112
h-121z" />
    <glyph glyph-name="uni090D" unicode="&#x90d;" horiz-adv-x="577" 
d="M398 922h135.999c0 -58 -21.167 -104 -63.5 -138s-95.5 -51 -159.5 -51c-71.333 0 -127 16 -167 48s-60 79 -60 141h136c0 -27.333 7.66699 -49 23 -65s38 -24 68 -24c28.667 0 50.334 8 65.001 24s22 37.667 22 65zM606.999 671v-111.999h-75v-121
c0 -56.667 -15.833 -99.167 -47.5 -127.5s-71.834 -42.5 -120.501 -42.5c-26 0 -48.333 2.33301 -67 7v110c18.667 -2.66699 30.334 -4 35.001 -4c20.667 0 36 5.16699 46 15.5s15 28.166 15 53.499v109h-187v-296c0 -38 13.167 -67 39.5 -87s62.5 -30 108.5 -30
c54.667 0 107 11 157 33v-127c-51.333 -18 -107.333 -27 -168 -27c-83.333 0 -150.5 20 -201.5 60s-76.5 99.667 -76.5 179v295h-95v112h637z" />
    <glyph glyph-name="uni090E" unicode="&#x90e;" horiz-adv-x="577" 
d="M607 671l-0.000976562 -111.999h-75v-121c0 -56.667 -15.833 -99.167 -47.5 -127.5s-71.834 -42.5 -120.501 -42.5c-26 0 -48.333 2.33301 -67 7v110c18.667 -2.66699 30.334 -4 35.001 -4c20.667 0 36 5.16699 46 15.5s15 28.166 15 53.499v109h-187v-296
c0 -38 13.167 -67 39.5 -87s62.5 -30 108.5 -30c54.667 0 107 11 157 33v-127c-51.333 -18 -107.333 -27 -168 -27c-83.333 0 -150.5 20 -201.5 60s-76.5 99.667 -76.5 179v295h-95v112h422c-1.33301 23.333 -5.66602 39.166 -12.999 47.499s-21 12.5 -41 12.5h-27
c-20 0 -36.833 0.5 -50.5 1.5s-31 4.83301 -52 11.5s-38 15.834 -51 27.501s-24.5 29.167 -34.5 52.5s-15 51.333 -15 84h143c0 -26.667 5.5 -44 16.5 -52s31.5 -12 61.5 -12h25c118 0 177.667 -57.667 179 -173h74z" />
    <glyph glyph-name="uni090F" unicode="&#x90f;" horiz-adv-x="577" 
d="M607 671v-111.999h-75v-121c0 -56.667 -15.833 -99.167 -47.5 -127.5s-71.834 -42.5 -120.501 -42.5c-26 0 -48.333 2.33301 -67 7v110c18.667 -2.66699 30.334 -4 35.001 -4c20.667 0 36 5.16699 46 15.5s15 28.166 15 53.499v109h-187v-296c0 -38 13.167 -67 39.5 -87
s62.5 -30 108.5 -30c54.667 0 107 11 157 33v-127c-51.333 -18 -107.333 -27 -168 -27c-83.333 0 -150.5 20 -201.5 60s-76.5 99.667 -76.5 179v295h-95v112h637z" />
    <glyph glyph-name="uni0910" unicode="&#x910;" horiz-adv-x="577" 
d="M607 671v-111.999h-75v-121c0 -56.667 -15.833 -99.167 -47.5 -127.5s-71.834 -42.5 -120.501 -42.5c-26 0 -48.333 2.33301 -67 7v110c18.667 -2.66699 30.334 -4 35.001 -4c20.667 0 36 5.16699 46 15.5s15 28.166 15 53.499v109h-187v-296c0 -38 13.167 -67 39.5 -87
s62.5 -30 108.5 -30c54.667 0 107 11 157 33v-127c-51.333 -18 -107.333 -27 -168 -27c-83.333 0 -150.5 20 -201.5 60s-76.5 99.667 -76.5 179v295h-95v112h411l-67 98c-18 27.333 -43.333 41 -76 41c-20.667 0 -42 -3.33301 -64 -10v118c24 4.66699 49.333 7 76 7
c40.667 -0.666992 75 -8 103 -22s52.667 -37.333 74 -70l105 -162h75z" />
    <glyph glyph-name="uni0911" unicode="&#x911;" horiz-adv-x="983" 
d="M802 922h135.999c0 -58 -21.167 -104 -63.5 -138s-95.5 -51 -159.5 -51c-71.333 0 -127 16 -167 48s-60 79 -60 141h136c0 -27.333 7.66699 -49 23 -65s38 -24 68 -24c28.667 0 50.334 8 65.001 24s22 37.667 22 65zM1013 671l-0.000976562 -112h-100v-559h-141v559h-140
v-559h-142v232h-107v-7c0 -53.333 -18.167 -96.666 -54.5 -129.999s-90.5 -50 -162.5 -50c-48.667 0 -94 7.33301 -136 22v130c42.667 -22.667 85.667 -34 129 -34c58.667 0 88 28 88 84c0 21.333 -6.83301 38.333 -20.5 51s-38.5 19 -74.5 19h-41v118h31
c55.333 0 83 20.667 83 62c0 40 -23.333 60 -70 60c-34 0 -69 -8.33301 -105 -25v127c32.667 12.667 71.334 19 116.001 19c64 0 113.333 -14.5 148 -43.5s52 -68.833 52 -119.5c0 -34.667 -9 -64.334 -27 -89.001s-43.667 -41.667 -77 -51c28 -4 51.667 -13.667 71 -29h157
v213h-77v112h600z" />
    <glyph glyph-name="uni0912" unicode="&#x912;" horiz-adv-x="983" 
d="M913 671h99.998v-112h-100v-559h-141v559h-140v-559h-142v232h-107v-7c0 -53.333 -18.167 -96.666 -54.5 -129.999s-90.5 -50 -162.5 -50c-48.667 0 -94 7.33301 -136 22v130c42.667 -22.667 85.667 -34 129 -34c58.667 0 88 28 88 84c0 21.333 -6.83301 38.333 -20.5 51
s-38.5 19 -74.5 19h-41v118h31c55.333 0 83 20.667 83 62c0 40 -23.333 60 -70 60c-34 0 -69 -8.33301 -105 -25v127c32.667 12.667 71.334 19 116.001 19c64 0 113.333 -14.5 148 -43.5s52 -68.833 52 -119.5c0 -34.667 -9 -64.334 -27 -89.001s-43.667 -41.667 -77 -51
c28 -4 51.667 -13.667 71 -29h157v213h-77v112h359c-1.33301 23.333 -5.66602 39.166 -12.999 47.499s-21 12.5 -41 12.5h-27c-20 0 -36.833 0.5 -50.5 1.5s-31 4.83301 -52 11.5s-38 15.834 -51 27.501s-24.5 29.167 -34.5 52.5s-15 51.333 -15 84h143
c0 -26.667 5.5 -44 16.5 -52s31.5 -12 61.5 -12h25c118 0 177.667 -57.667 179 -173z" />
    <glyph glyph-name="uni0913" unicode="&#x913;" horiz-adv-x="983" 
d="M914 671h98.999v-112h-100v-559h-141v559h-140v-559h-142v232h-107v-7c0 -53.333 -18.167 -96.666 -54.5 -129.999s-90.5 -50 -162.5 -50c-48.667 0 -94 7.33301 -136 22v130c42.667 -22.667 85.667 -34 129 -34c58.667 0 88 28 88 84c0 21.333 -6.83301 38.333 -20.5 51
s-38.5 19 -74.5 19h-41v118h31c55.333 0 83 20.667 83 62c0 40 -23.333 60 -70 60c-34 0 -69 -8.33301 -105 -25v127c32.667 12.667 71.334 19 116.001 19c64 0 113.333 -14.5 148 -43.5s52 -68.833 52 -119.5c0 -34.667 -9 -64.334 -27 -89.001s-43.667 -41.667 -77 -51
c28 -4 51.667 -13.667 71 -29h157v213h-77v112h350l-67 98c-18 27.333 -43.333 41 -76 41c-20.667 0 -42 -3.33301 -64 -10v118c24 4.66699 49.333 7 76 7c40.667 -0.666992 75 -8 103 -22s52.667 -37.333 74 -70z" />
    <glyph glyph-name="uni0914" unicode="&#x914;" horiz-adv-x="983" 
d="M906 671h106.999v-112h-100v-559h-141v559h-140v-559h-142v232h-107v-7c0 -53.333 -18.167 -96.666 -54.5 -129.999s-90.5 -50 -162.5 -50c-48.667 0 -94 7.33301 -136 22v130c42.667 -22.667 85.667 -34 129 -34c58.667 0 88 28 88 84
c0 21.333 -6.83301 38.333 -20.5 51s-38.5 19 -74.5 19h-41v118h31c55.333 0 83 20.667 83 62c0 40 -23.333 60 -70 60c-34 0 -69 -8.33301 -105 -25v127c32.667 12.667 71.334 19 116.001 19c64 0 113.333 -14.5 148 -43.5s52 -68.833 52 -119.5
c0 -34.667 -9 -64.334 -27 -89.001s-43.667 -41.667 -77 -51c28 -4 51.667 -13.667 71 -29h157v213h-77v112h323c-70.667 36.667 -128.334 55 -173.001 55c-20 0 -38.667 -2.33301 -56 -7v100c20.667 6 40.334 9 59.001 9c36 0 69.167 -7.83301 99.5 -23.5
s76.833 -50.167 139.5 -103.5l-95 112c-20 23.333 -39.5 40.333 -58.5 51s-42.5 16 -70.5 16c-27.333 0 -52 -3.33301 -74 -10v105c18 6 45.667 9 83 9c84 0 150.667 -40.667 200 -122z" />
    <glyph glyph-name="uni0915" unicode="&#x915;" horiz-adv-x="809" 
d="M839 559h-363.999v-109c29.333 26 64.666 39 105.999 39c59.333 0 107.166 -18.5 143.499 -55.5s54.5 -84.167 54.5 -141.5c0 -62 -20.667 -111.5 -62 -148.5s-94.333 -55.5 -159 -55.5c-10 0 -17.667 0.333008 -23 1v113c4 -0.666992 9.33301 -1 16 -1
c27.333 0 48.5 8.33301 63.5 25s22.5 38 22.5 64c0 24 -7 44.5 -21 61.5s-34.333 25.5 -61 25.5c-23.333 0 -42.5 -8.5 -57.5 -25.5s-22.5 -39.5 -22.5 -67.5v-284h-142v116c-28.667 -25.333 -64 -38 -106 -38c-59.333 0 -107.166 18.5 -143.499 55.5
s-54.5 84.167 -54.5 141.5c0 62 20.667 111.5 62 148.5s94.333 55.5 159 55.5c9.33301 0 17 -0.333008 23 -1v-113c-4 0.666992 -9.33301 1 -16 1c-27.333 0 -48.5 -8.33301 -63.5 -25s-22.5 -38 -22.5 -64c0 -24 7 -44.5 21 -61.5s34.333 -25.5 61 -25.5
c23.333 0 42.5 8.5 57.5 25.5s22.5 39.5 22.5 67.5v276h-363v112h869v-112z" />
    <glyph glyph-name="uni0916" unicode="&#x916;" horiz-adv-x="841" 
d="M871 671l0.00488281 -111.999h-100v-559h-142v132c-26.667 -17.333 -58.334 -26 -95.001 -26c-52.667 0 -96.5 17.5 -131.5 52.5s-52.5 80.833 -52.5 137.5c0 52.667 18.667 96.5 56 131.5s83.666 52.5 138.999 52.5c9.33301 0 18.666 -0.666992 27.999 -2v-103h-10
c-24.667 0 -44.334 -8 -59.001 -24s-22 -36 -22 -60c0 -24.667 7.16699 -44.334 21.5 -59.001s32.166 -22 53.499 -22c48 0 72 24.333 72 73v276h-286v-124c0 -45.333 -11.5 -83 -34.5 -113s-55.5 -50 -97.5 -60l-11 -2l203 -260h-170l-198 256v110h76
c61.333 0 92 25.667 92 77v116h-233v112h901z" />
    <glyph glyph-name="uni0917" unicode="&#x917;" horiz-adv-x="585" 
d="M-30 671h645v-112h-100v-559h-140v559h-111v-214c0 -48 -13.5 -83.667 -40.5 -107s-61.833 -35 -104.5 -35c-32 0 -61.667 4.66699 -89 14v110c14.667 -8 31 -12 49 -12c29.333 0 44 15.333 44 46v198h-153v112z" />
    <glyph glyph-name="uni0918" unicode="&#x918;" horiz-adv-x="638" 
d="M428 341v217.999h-207c-20.667 -17.333 -31 -37.666 -31 -60.999c0 -40.667 29.667 -61 89 -61h40v-118h-48c-29.333 0 -52.5 -6.16699 -69.5 -18.5s-25.5 -28.833 -25.5 -49.5c0 -21.333 8.5 -37.5 25.5 -48.5s39.167 -16.5 66.5 -16.5c48 0 86.667 13.167 116 39.5
s44 64.833 44 115.5zM668 670.999l0.000976562 -111.997h-100v-559h-140v140c-16.667 -23.333 -41.334 -41 -74.001 -53s-66.667 -18 -102 -18c-62 0 -113.833 15 -155.5 45s-62.5 71 -62.5 123c0 40 14.167 72.667 42.5 98s66.5 39.666 114.5 42.999
c-45.333 1.33301 -80.5 11.166 -105.5 29.499s-37.5 44.166 -37.5 77.499c0 28 10 52.667 30 74h-108v112h698z" />
    <glyph glyph-name="uni0919" unicode="&#x919;" horiz-adv-x="655" 
d="M552 435c21.333 0 39.333 -7.5 54 -22.5s22 -32.833 22 -53.5s-7.33301 -38.5 -22 -53.5s-32.667 -22.5 -54 -22.5s-39.333 7.5 -54 22.5s-22 32.833 -22 53.5s7.33301 38.5 22 53.5s32.667 22.5 54 22.5zM-30 671l714.999 -0.00292969v-112h-252v-152h-1l1 -3h-209
c-34 0 -51 -13 -51 -39c0 -16 9 -26.167 27 -30.5s47.667 -6.5 89 -6.5c133.333 0 200 -51 200 -153c-1.33301 -50.667 -23.166 -92.5 -65.499 -125.5s-99.833 -49.5 -172.5 -49.5c-81.333 0 -153.333 17.333 -216 52v130c70.667 -43.333 143 -65 217 -65
c31.333 0 55.333 4.66699 72 14s25 21.333 25 36c0 18 -7.66699 29.833 -23 35.5s-43 8.5 -83 8.5c-26.667 0 -51.5 2.33301 -74.5 7s-45 12.334 -66 23.001s-37.667 26.334 -50 47.001s-18.5 45.334 -18.5 74.001c0 51.333 18.833 89.833 56.5 115.5s82.5 38.5 134.5 38.5
h68v43h-323v112z" />
    <glyph glyph-name="uni091A" unicode="&#x91a;" horiz-adv-x="660" 
d="M690 671l-0.000976562 -111.999h-100v-559h-140v168c-36.667 -51.333 -97 -77 -181 -77c-58 0 -104.167 15.667 -138.5 47s-51.5 69.666 -51.5 114.999c0 48 17.667 83.333 53 106h-112v115h359v-115c-110 0 -165 -28.667 -165 -86c0 -22 8.33301 -39 25 -51
s39.334 -18 68.001 -18c43.333 0 78 13.667 104 41s39 53.333 39 78v236h-480v112h720z" />
    <glyph glyph-name="uni091B" unicode="&#x91b;" horiz-adv-x="657" 
d="M414 508v51.001h-176c-28 -22 -42 -49.333 -42 -82c0 -20 6.33301 -36.667 19 -50s30.334 -20 53.001 -20h37v-118h-37c-54 0 -81 -20 -81 -60c0 -19.333 10.5 -34.833 31.5 -46.5s48.167 -17.5 81.5 -17.5c54 0 97.333 13.167 130 39.5s49 61.5 49 105.5
c0 27.333 -7.33301 48.166 -22 62.499s-33.334 21.5 -56.001 21.5c-20.667 0 -37 -1.66699 -49 -5v111c15.333 4 36 6.66699 62 8zM687 559.001l-139 0.00195312v-85c49.333 -33.333 74 -84 74 -152c0 -82.667 -30.333 -148.834 -91 -198.501s-138 -74.5 -232 -74.5
c-70.667 0 -130.667 15.167 -180 45.5s-74 72.833 -74 127.5c0 37.333 12.5 67 37.5 89s60.167 34.333 105.5 37c-42.667 0.666992 -75.5 13.167 -98.5 37.5s-34.5 54.166 -34.5 89.499c0 32.667 11 60.667 33 84h-118v112h717v-112z" />
    <glyph glyph-name="uni091C" unicode="&#x91c;" horiz-adv-x="658" 
d="M-30 671l719 -0.000976562v-112h-101v-559h-142v348h-141c38.667 -25.333 58 -64.666 58 -117.999c0 -54.667 -18.667 -97.5 -56 -128.5s-86.333 -46.5 -147 -46.5c-48.667 0 -92 7 -130 21v124c31.333 -16.667 65 -25 101 -25c66 0 99 27.333 99 82
c0 28.667 -12 51 -36 67s-59.667 24 -107 24v115h359v96h-476v112z" />
    <glyph glyph-name="uni091D" unicode="&#x91d;" horiz-adv-x="781" 
d="M279 336h290v223h-115v-154h-1l1 -3h-190c-42 0 -63 -11.333 -63 -34c0 -21.333 21.333 -32 64 -32h14zM811 671l-0.000976562 -112h-100v-559h-142v229h-86c5.33301 -15.333 8 -34.666 8 -57.999c0 -50.667 -17.167 -91.5 -51.5 -122.5s-79.833 -46.5 -136.5 -46.5
c-43.333 0 -83 10.333 -119 31v-84h-140v238h130c11.333 -24.667 27 -44.167 47 -58.5s41.333 -21.5 64 -21.5c20.667 0 37 4.83301 49 14.5s18 23.5 18 41.5c0 21.333 -7.66699 35.666 -23 42.999s-36.666 11 -63.999 11c-138 0 -207 47.667 -207 143
c0 52.667 18.5 91.5 55.5 116.5s85.167 37.5 144.5 37.5h56v45h-344v112h841z" />
    <glyph glyph-name="uni091E" unicode="&#x91e;" horiz-adv-x="690" 
d="M720 671l0.000976562 -112h-100v-559h-142v234h-59c-9.33301 -52 -34.333 -94.167 -75 -126.5s-92.667 -50.5 -156 -54.5c-58.667 0 -111.334 12.333 -158.001 37v127c48 -28.667 97 -43 147 -43c34 0 59.833 9.16699 77.5 27.5s26.5 42.833 26.5 73.5
c0 27.333 -8.16699 49.333 -24.5 66s-38.833 25 -67.5 25c-30.667 0 -60.667 -6.33301 -90 -19v119c28 11.333 62.333 17 103 17c54.667 0 100.167 -12 136.5 -36s60.833 -57.667 73.5 -101h66v213h-508v112h750z" />
    <glyph glyph-name="uni091F" unicode="&#x91f;" horiz-adv-x="520" 
d="M453 559v-202c-21.333 4.66699 -53 7 -95 7c-56 0 -98.5 -10.667 -127.5 -32s-43.5 -50.333 -43.5 -87c0 -37.333 14.167 -65.833 42.5 -85.5s65.833 -29.5 112.5 -29.5c26 0 53 4.16699 81 12.5s50 17.833 66 28.5v-127c-45.333 -23.333 -98 -35 -158 -35
c-90 0 -160.333 21.333 -211 64s-76 101.667 -76 177c0 62 22.667 114.5 68 157.5s109 65.833 191 68.5h10v83h-343v112h580v-112h-97z" />
    <glyph glyph-name="uni0920" unicode="&#x920;" horiz-adv-x="575" 
d="M291 169c33.333 0 59.667 8.99707 79 26.9971s29 42.333 29 73c0 32.667 -9.83301 57.334 -29.5 74.001s-46.834 25.334 -81.501 26.001c-32 0 -58.5 -8.16699 -79.5 -24.5s-31.5 -41.166 -31.5 -74.499c0 -31.333 10.833 -56 32.5 -74s48.834 -27 81.501 -27z
M605.001 558.997h-223.001v-91c48.667 -13.333 87.334 -37.166 116.001 -71.499s43 -76.833 43 -127.5c0 -62.667 -22.5 -113.334 -67.5 -152.001s-105.833 -58.667 -182.5 -60c-76 0 -137.667 19.167 -185 57.5s-71 90.5 -71 156.5c0 60 19.667 107.5 59 142.5
s88.333 56.167 147 63.5v82h-271v112h635v-112z" />
    <glyph glyph-name="uni0921" unicode="&#x921;" horiz-adv-x="534" 
d="M433 559l-0.000976562 -152.003h-1l1 -3h-209c-34 0 -51 -13 -51 -39c0 -16 9 -26.167 27 -30.5s47.667 -6.5 89 -6.5c133.333 0 200 -51 200 -153c-1.33301 -50.667 -23.166 -92.5 -65.499 -125.5s-99.833 -49.5 -172.5 -49.5c-81.333 0 -153.333 17.333 -216 52v130
c70.667 -43.333 143 -65 217 -65c31.333 0 55.333 4.66699 72 14s25 21.333 25 36c0 18 -7.66699 29.833 -23 35.5s-43 8.5 -83 8.5c-26.667 0 -51.5 2.33301 -74.5 7s-45 12.334 -66 23.001s-37.667 26.334 -50 47.001s-18.5 45.334 -18.5 74.001
c0 51.333 18.833 89.833 56.5 115.5s82.5 38.5 134.5 38.5h68v43h-323v112h594v-112h-131z" />
    <glyph glyph-name="uni0922" unicode="&#x922;" horiz-adv-x="564" 
d="M266 200v98.999c29.333 15.333 63.666 23 102.999 23c47.333 0 85.833 -12.333 115.5 -37s44.5 -58.667 44.5 -102c0 -52 -20.5 -94 -61.5 -126s-97.5 -48 -169.5 -48c-79.333 0 -143.833 23.167 -193.5 69.5s-74.5 103.833 -74.5 172.5c0 78 26.333 136.333 79 175
s121.334 58.667 206.001 60h9v73h-354v112h624v-112h-130v-192c-31.333 7.33301 -65 11 -101 11c-34 0 -64.5 -3.66699 -91.5 -11s-50.167 -21 -69.5 -41s-29 -45.333 -29 -76c0 -34 12.333 -63.833 37 -89.5s56.667 -38.5 96 -38.5c25.333 0 46.5 5 63.5 15
s25.5 24.333 25.5 43c0 12.667 -5 22.834 -15 30.501s-24 11.5 -42 11.5c-28 0 -52 -7.33301 -72 -22z" />
    <glyph glyph-name="uni0923" unicode="&#x923;" horiz-adv-x="754" 
d="M287 342v217h-117v-218c0 -44 19.667 -66 59 -66c38.667 0 58 22.333 58 67zM784 671v-112h-100v-559h-141v559h-117v-205c0 -64 -17.667 -112.833 -53 -146.5s-84.333 -50.5 -147 -50.5c-63.333 0 -111.833 16.333 -145.5 49s-50.5 81 -50.5 145v208h-60v112h814z" />
    <glyph glyph-name="uni0924" unicode="&#x924;" horiz-adv-x="608" 
d="M638 671v-112h-100v-559h-142v360h-70c-45.333 0 -79.833 -10.167 -103.5 -30.5s-35.5 -49.833 -35.5 -88.5c0 -81.333 35 -122 105 -122c7.33301 0 13 0.333008 17 1v-117c-16 -1.33301 -29.333 -2 -40 -2c-70.667 0 -125.667 22.167 -165 66.5s-59 102.5 -59 174.5
c0 70.667 23.333 127 70 169s115.667 63 207 63h74v85h-426v112h668z" />
    <glyph glyph-name="uni0925" unicode="&#x925;" horiz-adv-x="674" 
d="M409 507c0 -98 -75.666 -170.665 -226.999 -217.998c10 -24 26.5 -43 49.5 -57s48.833 -21 77.5 -21c40 0 75.5 10.833 106.5 32.5s46.5 57.5 46.5 107.5v320h232v-112h-90v-559h-142v150c-14 -18 -36.5 -32.5 -67.5 -43.5s-64.5 -16.5 -100.5 -16.5
c-71.333 0 -133.5 25.5 -186.5 76.5s-82.167 117.5 -87.5 199.5c94 24 160.5 46.167 199.5 66.5s58.5 46.833 58.5 79.5c0 34.667 -14.333 52 -43 52c-30 0 -45 -17.333 -45 -52c0 -18.667 4 -37 12 -55h-134c-7.33301 21.333 -11 43.666 -11 66.999
c0 45.333 15.5 82.833 46.5 112.5s74.833 44.5 131.5 44.5c51.333 0 93.166 -15.333 125.499 -46s48.5 -73.334 48.5 -128.001z" />
    <glyph glyph-name="uni0926" unicode="&#x926;" horiz-adv-x="579" 
d="M-30 671h638.998v-112h-112v-176h-208c-35.333 0 -63.5 -9.33301 -84.5 -28s-31.5 -43.667 -31.5 -75c0 -32 9 -56.833 27 -74.5s41.667 -26.5 71 -26.5c62.667 0 99.334 33.333 110.001 100h138v-289h-140v125c-12 -17.333 -31.167 -30.5 -57.5 -39.5
s-51.5 -13.5 -75.5 -13.5c-65.333 0 -117.666 20.5 -156.999 61.5s-59 92.5 -59 154.5c0 64.667 21.833 117 65.5 157s106.167 60 187.5 60h71v64h-384v112z" />
    <glyph glyph-name="uni0927" unicode="&#x927;" horiz-adv-x="643" 
d="M673 671v-111.996h-100v-559h-140v136c-38 -44.667 -96.667 -67 -176 -67c-62 0 -113.833 15 -155.5 45s-62.5 71 -62.5 123c0 39.333 13.833 70.166 41.5 92.499s66.167 35.166 115.5 38.499c-45.333 1.33301 -80.5 11.166 -105.5 29.499s-37.5 44.166 -37.5 77.499
c0 39.333 14.667 67.333 44 84h-127v112h325v-112h-3c-64.667 0 -97 -23.667 -97 -71c0 -40.667 29.667 -61 89 -61h40v-118h-48c-63.333 0 -95 -19.333 -95 -58c0 -21.333 8.5 -37.5 25.5 -48.5s39.167 -16.5 66.5 -16.5c48.667 0 87.5 12 116.5 36s43.5 60.667 43.5 110
v339h240z" />
    <glyph glyph-name="uni0928" unicode="&#x928;" horiz-adv-x="529" 
d="M-30 671h589v-112h-100v-559h-142v316h-125c-12 0 -20.667 -3 -26 -9s-8 -18 -8 -36c0 -19.333 2.66699 -42.333 8 -69h-112c-22.667 38 -34 81.333 -34 130c0 30 9.33301 53.5 28 70.5s46 25.5 82 25.5h187v131h-347v112z" />
    <glyph glyph-name="uni0928093C" unicode="&#x929;" horiz-adv-x="529" 
d="M148 139c21.333 0 39.333 -7.5 54 -22.5s22 -32.833 22 -53.5s-7.33301 -38.5 -22 -53.5s-32.667 -22.5 -54 -22.5s-39.333 7.5 -54 22.5s-22 32.833 -22 53.5s7.33301 38.5 22 53.5s32.667 22.5 54 22.5zM-30 671h589v-112h-100v-559h-142v316h-125
c-12 0 -20.667 -3 -26 -9s-8 -18 -8 -36c0 -19.333 2.66699 -42.333 8 -69h-112c-22.667 38 -34 81.333 -34 130c0 30 9.33301 53.5 28 70.5s46 25.5 82 25.5h187v131h-347v112z" />
    <glyph glyph-name="uni092A" unicode="&#x92a;" horiz-adv-x="577" 
d="M365 376v183.001h-163v-190c0 -57.333 24.667 -86 74 -86c26 0 47.333 8.16699 64 24.5s25 39.166 25 68.499zM607 671.001v-111.999h-100v-559h-142v212c-32 -27.333 -71 -41 -117 -41c-59.333 0 -105.5 16.667 -138.5 50s-49.5 84.666 -49.5 153.999v184h-90v112h637z
" />
    <glyph glyph-name="uni092B" unicode="&#x92b;" horiz-adv-x="844" 
d="M365 376v183.001h-163v-190c0 -57.333 24.667 -86 74 -86c26 0 47.333 8.16699 64 24.5s25 39.166 25 68.499zM874 559.001l-367.001 0.00195312v-100c32 27.333 71 41 117 41c58 0 103.333 -18.833 136 -56.5s49 -83.834 49 -138.501
c0 -66.667 -20.667 -117.5 -62 -152.5s-93.333 -52.5 -156 -52.5c-11.333 0 -19.666 0.333008 -24.999 1v113c4 -0.666992 9.33301 -1 16 -1c57.333 0 86 30.333 86 91c0 23.333 -6.5 43.166 -19.5 59.499s-30.5 24.5 -52.5 24.5c-26 0 -47.333 -8.16699 -64 -24.5
s-25 -39.166 -25 -68.499v-295h-142v212c-32 -27.333 -71 -41 -117 -41c-59.333 0 -105.5 16.667 -138.5 50s-49.5 84.666 -49.5 153.999v184h-90v112h904v-112z" />
    <glyph glyph-name="uni092C" unicode="&#x92c;" horiz-adv-x="632" 
d="M363 204l-170 142c-10 -16 -15 -35.333 -15 -58c0 -31.333 10 -56.5 30 -75.5s45.667 -28.5 77 -28.5c27.333 0 53.333 6.66699 78 20zM662 671v-112.001h-100v-559h-142v132c-42 -38.667 -93.667 -58 -155 -58c-62 0 -115.833 20.667 -161.5 62s-68.5 93.333 -68.5 156
s21.167 114.834 63.5 156.501s98.5 62.5 168.5 62.5c30.667 0 57.667 -2.66699 81 -8v-122c-20 6.66699 -43 10 -69 10c-12 0 -23.667 -1.66699 -35 -5l166 -137c6.66699 14.667 10 28.667 10 42v268h-450v112h692z" />
    <glyph glyph-name="uni092D" unicode="&#x92d;" horiz-adv-x="591" 
d="M383 378v292.999h238v-112h-100v-559h-138v266h-153v-125h-122l-36 77c-18 38 -27 67.333 -27 88c0 34.667 15.333 56.334 46 65.001v143c0 31.333 -15.333 47 -46 47c-17.333 0 -35.333 -4.66699 -54 -14v109c25.333 13.333 54 20 86 20c102 0 153 -48.333 153 -145
v-153h153z" />
    <glyph glyph-name="uni092E" unicode="&#x92e;" horiz-adv-x="585" 
d="M-30 559v112h645v-112h-100v-559h-138v261h-158v-122h-119l-36 80c-19.333 44 -29 74.667 -29 92c0 28.667 15 47 45 55v193h-110zM377 559h-158v-186h158v186z" />
    <glyph glyph-name="uni092F" unicode="&#x92f;" horiz-adv-x="634" 
d="M276 106c-66 0 -122.833 24 -170.5 72s-76.5 114 -86.5 198c104 14.667 156 49.334 156 104.001c0 33.333 -9.66699 59.666 -29 78.999h-176v112h694v-112h-100v-559h-141v170c-11.333 -19.333 -30.333 -34.833 -57 -46.5s-56.667 -17.5 -90 -17.5zM300 230
c38 0 68 11.001 90 33.001s33 55 33 99v197h-130c14 -21.333 21 -50 21 -86c0 -43.333 -12.167 -78.833 -36.5 -106.5s-55.833 -47.834 -94.5 -60.501c15.333 -50.667 54.333 -76 117 -76z" />
    <glyph glyph-name="uni0930" unicode="&#x930;" horiz-adv-x="417" 
d="M35 256v110h76c61.333 0 92 25.333 92 76v117h-233v112h477v-112h-104v-125c0 -44.667 -11.167 -82.167 -33.5 -112.5s-54.5 -49.5 -96.5 -57.5c-5.33301 -1.33301 -10.333 -2 -15 -2l205 -262h-170z" />
    <glyph glyph-name="uni0930093C" unicode="&#x931;" horiz-adv-x="417" 
d="M-40 30c0 21.333 7.33301 39.333 22 54s32.667 22 54 22s39.333 -7.33301 54 -22s22 -32.667 22 -54s-7.33301 -39.333 -22 -54s-32.667 -22 -54 -22s-39.333 7.33301 -54 22s-22 32.667 -22 54zM35 256v110h76c61.333 0 92 25.333 92 76v117h-233v112h477v-112h-104
v-125c0 -44.667 -11.167 -82.167 -33.5 -112.5s-54.5 -49.5 -96.5 -57.5c-5.33301 -1.33301 -10.333 -2 -15 -2l205 -262h-170z" />
    <glyph glyph-name="uni0932" unicode="&#x932;" horiz-adv-x="761" 
d="M791 671l0.000976562 -112h-100v-559h-143v376c-4 0.666992 -9.66699 1 -17 1c-32 0 -55 -8 -69 -24s-21 -41.667 -21 -77v-65h-143v67c0 56.667 -19.333 85 -58 85c-44 0 -66 -33 -66 -99c0 -98 52 -147 156 -147c13.333 0 27.666 1 42.999 3v-115
c-18 -2.66699 -37.667 -4 -59 -4c-85.333 0 -153.333 24 -204 72s-76 112.333 -76 193c0 65.333 16.833 117.333 50.5 156s80.5 58 140.5 58c40 0 72.5 -8.5 97.5 -25.5s40.5 -38.167 46.5 -63.5c18.667 64.667 70 97 154 97c6 0 14.333 -0.666992 25 -2v73h-578v112h821z
" />
    <glyph glyph-name="uni0933" unicode="&#x933;" horiz-adv-x="802" 
d="M550 199c24 0 43.166 8.5 57.499 25.5s21.5 39.167 21.5 66.5s-7.16699 49.5 -21.5 66.5s-34.166 25.5 -59.499 25.5c-48.667 0 -79 -46.667 -91 -140c32 -29.333 63 -44 93 -44zM252.999 199c9.33301 0 18.168 2.66699 26.501 8s15 11.5 20 18.5s10.167 16.667 15.5 29
s9.16602 22.333 11.499 30s5.33301 18.5 9 32.5s5.83398 22.667 6.50098 26c-30 28 -60.333 42 -91 42c-24.667 0 -43.834 -8.66699 -57.501 -26s-20.5 -40 -20.5 -68s7 -50.333 21 -67s33.667 -25 59 -25zM832.001 559h-205v-75c44 -12.667 79.167 -36.167 105.5 -70.5
s39.5 -75.5 39.5 -123.5c0 -60.667 -20.833 -109.667 -62.5 -147s-94.167 -56 -157.5 -56c-56 0 -108.667 19.667 -158 59c-38 -39.333 -85.333 -59 -142 -59c-65.333 0 -118.666 18.833 -159.999 56.5s-62 87.167 -62 148.5c0 60.667 20.333 110 61 148s92.667 57 156 57
c59.333 0 110.666 -19 153.999 -57c30 26.667 61 43 93 49v70h-524v112h862v-112z" />
    <glyph glyph-name="uni0933093C" unicode="&#x934;" horiz-adv-x="802" 
d="M220 4c21.333 0 39.333 -7.33301 54 -22s22 -32.667 22 -54s-7.33301 -39.333 -22 -54s-32.667 -22 -54 -22s-39.333 7.33301 -54 22s-22 32.667 -22 54s7.33301 39.333 22 54s32.667 22 54 22zM550 199c24 0 43.166 8.5 57.499 25.5s21.5 39.167 21.5 66.5
s-7.16699 49.5 -21.5 66.5s-34.166 25.5 -59.499 25.5c-48.667 0 -79 -46.667 -91 -140c32 -29.333 63 -44 93 -44zM252.999 199c9.33301 0 18.168 2.66699 26.501 8s15 11.5 20 18.5s10.167 16.667 15.5 29s9.16602 22.333 11.499 30s5.33301 18.5 9 32.5
s5.83398 22.667 6.50098 26c-30 28 -60.333 42 -91 42c-24.667 0 -43.834 -8.66699 -57.501 -26s-20.5 -40 -20.5 -68s7 -50.333 21 -67s33.667 -25 59 -25zM832.001 559h-205v-75c44 -12.667 79.167 -36.167 105.5 -70.5s39.5 -75.5 39.5 -123.5
c0 -60.667 -20.833 -109.667 -62.5 -147s-94.167 -56 -157.5 -56c-56 0 -108.667 19.667 -158 59c-38 -39.333 -85.333 -59 -142 -59c-65.333 0 -118.666 18.833 -159.999 56.5s-62 87.167 -62 148.5c0 60.667 20.333 110 61 148s92.667 57 156 57
c59.333 0 110.666 -19 153.999 -57c30 26.667 61 43 93 49v70h-524v112h862v-112z" />
    <glyph glyph-name="uni0935" unicode="&#x935;" horiz-adv-x="603" 
d="M633 671l0.000976562 -112h-100v-559h-142v135c-36.667 -32.667 -83 -49 -139 -49c-61.333 0 -112.833 18.333 -154.5 55s-62.5 87 -62.5 151c0 61.333 20.5 112.166 61.5 152.499s94.833 60.5 161.5 60.5c26.667 0 50 -2.66699 70 -8v-122
c-22.667 6 -42.334 9 -59.001 9c-26 0 -47.667 -8 -65 -24s-26 -37.333 -26 -64c0 -31.333 8.83301 -55.5 26.5 -72.5s43.167 -25.5 76.5 -25.5c26.667 0 51.667 8.83301 75 26.5s35 39.834 35 66.501v268h-421v112h663z" />
    <glyph glyph-name="uni0936" unicode="&#x936;" horiz-adv-x="720" 
d="M210 439h-135.001c-12 23.333 -18 48 -18 74c0 45.333 16.833 84 50.5 116s77.834 48 132.501 48c61.333 0 110.333 -18.5 147 -55.5s55 -84.5 55 -142.5c0 -74.667 -24.333 -132.334 -73 -173.001s-107 -63 -175 -67l237 -239h-180l-221 234v117h112
c51.333 0 91 11.333 119 34s42 54.334 42 95.001c0 53.333 -20.333 80 -61 80c-16 0 -28.167 -5.66699 -36.5 -17s-12.5 -25.333 -12.5 -42c0 -20 5.66699 -40.667 17 -62zM507.999 671h242v-112h-100v-559h-142v671z" />
    <glyph glyph-name="uni0937" unicode="&#x937;" horiz-adv-x="610" 
d="M401 380v179h-172zM195 483l0.00195312 -114c0 -30.667 9.16699 -53.667 27.5 -69s42.166 -23 71.499 -23c27.333 0 52.666 9.66699 75.999 29zM640.002 671v-112h-100v-559h-139v211c-36 -30 -81.667 -45 -137 -45c-60 0 -109 17.667 -147 53s-57 87.333 -57 156v184
h-90v112h670z" />
    <glyph glyph-name="uni0938" unicode="&#x938;" horiz-adv-x="682" 
d="M302 354l169 -0.000976562v205h-148v-114c0 -35.333 -7 -65.666 -21 -90.999zM712 670.999v-112h-100v-559h-141v243h-150c-38 0 -79.667 2.66699 -125 8l187 -251h-170l-193 269v98h71c61.333 0 92 25.667 92 77v115h-213v112h742z" />
    <glyph glyph-name="uni0939" unicode="&#x939;" horiz-adv-x="551" 
d="M483 401l-254.999 -0.00195312c-24.667 0 -37 -9 -37 -27c0 -17.333 9.33301 -33.333 28 -48c25.333 5.33301 52.666 8 81.999 8c60.667 0 110 -14.333 148 -43s57 -64.667 57 -108c0 -25.333 -3 -44.666 -9 -57.999h-138c6.66699 12.667 10 29.334 10 50.001
c0 12.667 -6.66699 23.167 -20 31.5s-31 12.5 -53 12.5c-34 0 -60 -6.33301 -78 -19s-27 -29.334 -27 -50.001c0 -54 45.333 -81 136 -81c34 0 80 6.33301 138 19v-115c-53.333 -11.333 -101.333 -17 -144 -17c-88 0 -155.333 19.5 -202 58.5s-70 84.5 -70 136.5
c0 52.667 22 96 66 130c-46.667 27.333 -70 64 -70 110c0 38.667 14.333 68.334 43 89.001s65.667 31 111 31h144v48h-373v112h611v-112h-98v-158z" />
    <glyph glyph-name="uni093C" unicode="&#x93c;" horiz-adv-x="0" 
d="M-361 -132c0 21.333 7.5 39.333 22.5 54s32.833 22 53.5 22s38.5 -7.33301 53.5 -22s22.5 -32.667 22.5 -54s-7.5 -39.333 -22.5 -54s-32.833 -22 -53.5 -22s-38.5 7.33301 -53.5 22s-22.5 32.667 -22.5 54z" />
    <glyph glyph-name="uni093D" unicode="&#x93d;" horiz-adv-x="583" 
d="M296 -3c-80.667 0 -156.998 20.333 -228.998 61v145c29.333 -19.333 65.5 -37 108.5 -53s82.833 -24 119.5 -24c54.667 0 82 18.667 82 56c0 13.333 -7.5 27.5 -22.5 42.5s-33.833 28.833 -56.5 41.5s-47.334 27.834 -74.001 45.501s-51.334 35.5 -74.001 53.5
s-41.5 40.333 -56.5 67s-22.5 55 -22.5 85c0 47.333 16.667 84.833 50 112.5s79.333 41.5 138 41.5h229v-129h-213c-32 0 -48 -12 -48 -36c0 -16 10.167 -32.5 30.5 -49.5s45 -33.833 74 -50.5s58 -34.834 87 -54.501s53.667 -44.5 74 -74.5s30.5 -62.667 30.5 -98
c0 -54 -19.167 -97.833 -57.5 -131.5s-94.833 -50.5 -169.5 -50.5z" />
    <glyph glyph-name="uni093E" unicode="&#x93e;" 
d="M-30 559v112h341v-112h-100v-559h-141v559h-100z" />
    <glyph glyph-name="uni093F" unicode="&#x93f;" 
d="M671 854l0.00195312 -123.997c-70 25.333 -140 45.666 -210 60.999s-125.667 23 -167 23c-26.667 0 -47.167 -7.16699 -61.5 -21.5s-21.5 -33.833 -21.5 -58.5v-63h100v-112h-100v-559h-141v559h-100v112h100v64c0 58.667 19.5 106 58.5 142s93.167 54 162.5 54
c41.333 0 84.166 -3.83301 128.499 -11.5s82.166 -15.834 113.499 -24.501s77.333 -22.334 138 -41.001z" />
    <glyph glyph-name="uni0940" unicode="&#x940;" 
d="M210 671l101 0.000976562v-112h-100v-559h-141v559h-100v112h99v60c0 24.667 -6.5 43.667 -19.5 57s-31.5 20 -55.5 20c-46.667 0 -70 -25.667 -70 -77v-25h-142v30c0 62.667 20 110 60 142s90.667 48 152 48c62 0 113.5 -15.833 154.5 -47.5s61.5 -78.834 61.5 -141.501
v-66z" />
    <glyph glyph-name="uni0941" unicode="&#x941;" horiz-adv-x="0" 
d="M-438 -190l-0.00390625 154.001c37.333 -38.667 82.333 -74.334 135 -107.001s102.334 -49 149.001 -49c20.667 0 36.667 4.5 48 13.5s17 21.167 17 36.5c0 12.667 -5.66699 22.667 -17 30s-26.333 11 -45 11c-33.333 0 -68.666 -9 -105.999 -27v122
c34.667 12 71 18 109 18c60.667 0 108.334 -13.833 143.001 -41.5s52 -65.167 52 -112.5s-17.333 -86.666 -52 -117.999s-82.667 -47 -144 -47c-55.333 0 -108.666 12.167 -159.999 36.5s-94.333 51.166 -129 80.499z" />
    <glyph glyph-name="uni0942" unicode="&#x942;" horiz-adv-x="0" 
d="M-83 -173l0.000976562 -106c-18 -7.33301 -38.333 -11 -61 -11c-53.333 0 -97 13.167 -131 39.5s-51 65.5 -51 117.5c0 42 16.167 77.667 48.5 107s74.5 44 126.5 44c45.333 0 86.166 -9.83301 122.499 -29.5s65 -45 86 -76s36.833 -64.167 47.5 -99.5
s16 -70.333 16 -105h-131c0 54.667 -12.667 101.167 -38 139.5s-58 57.5 -98 57.5c-14 0 -25.333 -4 -34 -12s-13 -18 -13 -30c0 -13.333 5.33301 -24.5 16 -33.5s25 -13.5 43 -13.5c17.333 0 34.333 3.66699 51 11z" />
    <glyph glyph-name="uni0943" unicode="&#x943;" horiz-adv-x="0" 
d="M-352 -161c0 40.667 12.499 73.832 37.499 99.499s59.5 41.834 103.5 48.501v25h141v-127h-49c-33.333 0 -57.666 -4 -72.999 -12s-23 -21.667 -23 -41c0 -14 5.16699 -25 15.5 -33s24.833 -12 43.5 -12c32.667 0 63.667 9 93 27v-107
c-31.333 -17.333 -66.333 -26 -105 -26c-54 0 -98.167 15 -132.5 45s-51.5 67.667 -51.5 113z" />
    <glyph glyph-name="uni0945" unicode="&#x945;" horiz-adv-x="0" 
d="M-139 733c-71.333 0 -127.001 16 -167.001 48s-60 79 -60 141h136c0 -27.333 7.66699 -49 23 -65s38 -24 68 -24c28.667 0 50.334 8 65.001 24s22 37.667 22 65h136c0 -58 -21.167 -104 -63.5 -138s-95.5 -51 -159.5 -51z" />
    <glyph glyph-name="uni0946" unicode="&#x946;" horiz-adv-x="0" 
d="M-274 844l25 -0.000976562c119.333 0 179 -59.333 179 -178h-141c-0.666992 25.333 -4.66699 42.5 -12 51.5s-21.333 13.5 -42 13.5h-27c-20 0 -36.833 0.5 -50.5 1.5s-31 4.83301 -52 11.5s-38 15.834 -51 27.501s-24.5 29.167 -34.5 52.5s-15 51.333 -15 84h143
c0 -26.667 5.5 -44 16.5 -52s31.5 -12 61.5 -12z" />
    <glyph glyph-name="uni0947" unicode="&#x947;" horiz-adv-x="0" 
d="M-427 800v118c24 4.66699 49.333 7 76 7c40.667 -0.666992 75 -8 103 -22s52.667 -37.333 74 -70l110 -169h-151l-72 105c-18 27.333 -43.333 41 -76 41c-20.667 0 -42 -3.33301 -64 -10z" />
    <glyph glyph-name="uni0948" unicode="&#x948;" horiz-adv-x="0" 
d="M-194 862l119.999 -198h-161c-77.333 41.333 -139.333 62 -186 62c-20 0 -38.667 -2.33301 -56 -7v100c20.667 6 40.334 9 59.001 9c36 0 69.167 -7.83301 99.5 -23.5s76.833 -50.167 139.5 -103.5l-95 112c-20 23.333 -39.5 40.333 -58.5 51s-42.5 16 -70.5 16
c-27.333 0 -52 -3.33301 -74 -10v105c18 6 45.667 9 83 9c84 0 150.667 -40.667 200 -122z" />
    <glyph glyph-name="uni0949" unicode="&#x949;" horiz-adv-x="280" 
d="M-30 559v112h340v-112h-100v-559h-140v559h-100zM137 733c-71.333 0 -127.001 16 -167.001 48s-60 79 -60 141h136c0 -27.333 7.66699 -49 23 -65s38 -24 68 -24c28.667 0 50.334 8 65.001 24s22 37.667 22 65h136c0 -58 -21.167 -104 -63.5 -138s-95.5 -51 -159.5 -51z
" />
    <glyph glyph-name="uni094A" unicode="&#x94a;" horiz-adv-x="280" 
d="M211 671h98.999v-112h-100v-559h-140v559h-100v112h100c-1.33301 23.333 -5.66602 39.166 -12.999 47.499s-21 12.5 -41 12.5h-27c-20 0 -36.833 0.5 -50.5 1.5s-31 4.83301 -52 11.5s-38 15.834 -51 27.501s-24.5 29.167 -34.5 52.5s-15 51.333 -15 84h143
c0 -26.667 5.5 -44 16.5 -52s31.5 -12 61.5 -12h25c118 0 177.667 -57.667 179 -173z" />
    <glyph glyph-name="uni094B" unicode="&#x94b;" horiz-adv-x="280" 
d="M211 671h99v-112h-100v-559h-140v559h-100v112h90l-67 98c-18 27.333 -43.333 41 -76 41c-20.667 0 -42 -3.33301 -64 -10v118c24 4.66699 49.333 7 76 7c40.667 -0.666992 75 -8 103 -22s52.667 -37.333 74 -70z" />
    <glyph glyph-name="uni094C" unicode="&#x94c;" 
d="M205 671h106v-112h-100v-559h-141v559h-100v112h65c-70.667 36.667 -128.334 55 -173.001 55c-20 0 -38.667 -2.33301 -56 -7v100c20.667 6 40.334 9 59.001 9c36 0 69.167 -7.83301 99.5 -23.5s76.833 -50.167 139.5 -103.5l-95 112c-20 23.333 -39.5 40.333 -58.5 51
s-42.5 16 -70.5 16c-27.333 0 -52 -3.33301 -74 -10v105c18 6 45.667 9 83 9c84 0 150.667 -40.667 200 -122z" />
    <glyph glyph-name="uni094D" unicode="&#x94d;" horiz-adv-x="0" 
d="M82 -241h-168l-120 176h143z" />
    <glyph glyph-name="uni0950" unicode="&#x950;" horiz-adv-x="1237" 
d="M782 159c-45.333 -66 -99.665 -99.001 -162.998 -99.001c-52 0 -92 23 -120 69c-14.667 -38 -41.5 -69.167 -80.5 -93.5s-82.833 -36.5 -131.5 -36.5c-71.333 0 -134.333 14 -189 42v130c60.667 -36 121.334 -54 182.001 -54c27.333 0 49.666 7 66.999 21s26 33 26 57
c0 44 -30.333 66 -91 66h-81v112h29c38.667 0 66.167 8.16699 82.5 24.5s24.5 35.833 24.5 58.5c0 20 -6.33301 36 -19 48s-30 18 -52 18c-55.333 0 -105 -16 -149 -48v118c18 13.333 42.333 24.166 73 32.499s61.667 12.5 93 12.5c59.333 0 106.666 -15.167 141.999 -45.5
s53 -71.166 53 -122.499c0 -28 -7 -53.333 -21 -76s-33 -39.667 -57 -51c50.667 -8 88.334 -32.333 113.001 -73c9.33301 -14.667 17.166 -26.5 23.499 -35.5s15.333 -18 27 -27s23.834 -13.5 36.501 -13.5c14.667 0 29.5 6.66699 44.5 20s34.833 37 59.5 71
c9.33301 12.667 24 34.167 44 64.5s35.5 52.5 46.5 66.5s25.833 30.333 44.5 49s38.167 32 58.5 40s42.5 12 66.5 12c61.333 0 110.666 -20.667 147.999 -62s56 -97 56 -167c0 -65.333 -19.333 -121.666 -58 -168.999s-90.334 -71 -155.001 -71
c-36.667 0 -70.334 6 -101.001 18v120c24.667 -15.333 53.334 -23 86.001 -23c28 0 49.833 11.5 65.5 34.5s23.5 54.167 23.5 93.5c0 28.667 -4.83301 51.667 -14.5 69s-23.5 26 -41.5 26s-34.5 -8.5 -49.5 -25.5s-47.5 -62.167 -97.5 -135.5zM637.001 754.999
c0 19.333 6.83301 35.833 20.5 49.5s30.167 20.5 49.5 20.5s35.833 -6.83301 49.5 -20.5s20.5 -30.167 20.5 -49.5s-6.83301 -35.833 -20.5 -49.5s-30.167 -20.5 -49.5 -20.5s-35.833 6.83301 -49.5 20.5s-20.5 30.167 -20.5 49.5zM708.001 510.999
c-72 0 -129.5 16.168 -172.5 48.501s-64.5 79.166 -64.5 140.499h136c0 -26 9.16699 -47.333 27.5 -64s42.833 -25 73.5 -25c29.333 0 52.833 8.33301 70.5 25s26.5 38 26.5 64h136c0 -58 -22.667 -104 -68 -138s-100.333 -51 -165 -51z" />
    <glyph glyph-name="uni0951" unicode="&#x951;" horiz-adv-x="0" 
d="M-187 971h109v-260h-109v260z" />
    <glyph glyph-name="uni0952" unicode="&#x952;" horiz-adv-x="0" 
d="M-55 -240h-447v109h447v-109z" />
    <glyph glyph-name="uni0953" unicode="&#x953;" horiz-adv-x="0" 
d="M-318 906l84 70l167 -200l-84 -70z" />
    <glyph glyph-name="uni0954" unicode="&#x954;" horiz-adv-x="0" 
d="M-56 976l84 -70l-167 -200l-84 70z" />
    <glyph glyph-name="uni0915093C" unicode="&#x958;" horiz-adv-x="809" 
d="M175 24c20.667 0 38.5 -7.33301 53.5 -22s22.5 -32.667 22.5 -54s-7.5 -39.333 -22.5 -54s-32.833 -22 -53.5 -22s-38.5 7.33301 -53.5 22s-22.5 32.667 -22.5 54s7.5 39.333 22.5 54s32.833 22 53.5 22zM839 559h-363.999v-109c29.333 26 64.666 39 105.999 39
c59.333 0 107.166 -18.5 143.499 -55.5s54.5 -84.167 54.5 -141.5c0 -62 -20.667 -111.5 -62 -148.5s-94.333 -55.5 -159 -55.5c-10 0 -17.667 0.333008 -23 1v113c4 -0.666992 9.33301 -1 16 -1c27.333 0 48.5 8.33301 63.5 25s22.5 38 22.5 64c0 24 -7 44.5 -21 61.5
s-34.333 25.5 -61 25.5c-23.333 0 -42.5 -8.5 -57.5 -25.5s-22.5 -39.5 -22.5 -67.5v-284h-142v116c-28.667 -25.333 -64 -38 -106 -38c-59.333 0 -107.166 18.5 -143.499 55.5s-54.5 84.167 -54.5 141.5c0 62 20.667 111.5 62 148.5s94.333 55.5 159 55.5
c9.33301 0 17 -0.333008 23 -1v-113c-4 0.666992 -9.33301 1 -16 1c-27.333 0 -48.5 -8.33301 -63.5 -25s-22.5 -38 -22.5 -64c0 -24 7 -44.5 21 -61.5s34.333 -25.5 61 -25.5c23.333 0 42.5 8.5 57.5 25.5s22.5 39.5 22.5 67.5v276h-363v112h869v-112z" />
    <glyph glyph-name="uni0916093C" unicode="&#x959;" horiz-adv-x="841" 
d="M95 14c20.667 0 38.5 -7.33301 53.5 -22s22.5 -32.667 22.5 -54s-7.5 -39.333 -22.5 -54s-32.833 -22 -53.5 -22s-38.5 7.33301 -53.5 22s-22.5 32.667 -22.5 54s7.5 39.333 22.5 54s32.833 22 53.5 22zM871 671l0.00488281 -111.999h-100v-559h-142v132
c-26.667 -17.333 -58.334 -26 -95.001 -26c-52.667 0 -96.5 17.5 -131.5 52.5s-52.5 80.833 -52.5 137.5c0 52.667 18.667 96.5 56 131.5s83.666 52.5 138.999 52.5c9.33301 0 18.666 -0.666992 27.999 -2v-103h-10c-24.667 0 -44.334 -8 -59.001 -24s-22 -36 -22 -60
c0 -24.667 7.16699 -44.334 21.5 -59.001s32.166 -22 53.499 -22c48 0 72 24.333 72 73v276h-286v-124c0 -45.333 -11.5 -83 -34.5 -113s-55.5 -50 -97.5 -60l-11 -2l203 -260h-170l-198 256v110h76c61.333 0 92 25.667 92 77v116h-233v112h901z" />
    <glyph glyph-name="uni0917093C" unicode="&#x95a;" horiz-adv-x="585" 
d="M165 94c20.667 0 38.5 -7.33301 53.5 -22s22.5 -32.667 22.5 -54s-7.5 -39.333 -22.5 -54s-32.833 -22 -53.5 -22s-38.5 7.33301 -53.5 22s-22.5 32.667 -22.5 54s7.5 39.333 22.5 54s32.833 22 53.5 22zM-30 671h645v-112h-100v-559h-140v559h-111v-214
c0 -48 -13.5 -83.667 -40.5 -107s-61.833 -35 -104.5 -35c-32 0 -61.667 4.66699 -89 14v110c14.667 -8 31 -12 49 -12c29.333 0 44 15.333 44 46v198h-153v112z" />
    <glyph glyph-name="uni091C093C" unicode="&#x95b;" horiz-adv-x="658" 
d="M173 -6c20.667 0 38.5 -7.33301 53.5 -22s22.5 -32.667 22.5 -54s-7.5 -39.333 -22.5 -54s-32.833 -22 -53.5 -22s-38.5 7.33301 -53.5 22s-22.5 32.667 -22.5 54s7.5 39.333 22.5 54s32.833 22 53.5 22zM-30 671l719 -0.000976562v-112h-101v-559h-142v348h-141
c38.667 -25.333 58 -64.666 58 -117.999c0 -54.667 -18.667 -97.5 -56 -128.5s-86.333 -46.5 -147 -46.5c-48.667 0 -92 7 -130 21v124c31.333 -16.667 65 -25 101 -25c66 0 99 27.333 99 82c0 28.667 -12 51 -36 67s-59.667 24 -107 24v115h359v96h-476v112z" />
    <glyph glyph-name="uni0921093C" unicode="&#x95c;" horiz-adv-x="534" 
d="M245 -56c20.667 0 38.5 -7.33301 53.5 -22s22.5 -32.667 22.5 -54s-7.5 -39.333 -22.5 -54s-32.833 -22 -53.5 -22s-38.5 7.33301 -53.5 22s-22.5 32.667 -22.5 54s7.5 39.333 22.5 54s32.833 22 53.5 22zM433 559l-0.000976562 -152.003h-1l1 -3h-209
c-34 0 -51 -13 -51 -39c0 -16 9 -26.167 27 -30.5s47.667 -6.5 89 -6.5c133.333 0 200 -51 200 -153c-1.33301 -50.667 -23.166 -92.5 -65.499 -125.5s-99.833 -49.5 -172.5 -49.5c-81.333 0 -153.333 17.333 -216 52v130c70.667 -43.333 143 -65 217 -65
c31.333 0 55.333 4.66699 72 14s25 21.333 25 36c0 18 -7.66699 29.833 -23 35.5s-43 8.5 -83 8.5c-26.667 0 -51.5 2.33301 -74.5 7s-45 12.334 -66 23.001s-37.667 26.334 -50 47.001s-18.5 45.334 -18.5 74.001c0 51.333 18.833 89.833 56.5 115.5s82.5 38.5 134.5 38.5
h68v43h-323v112h594v-112h-131z" />
    <glyph glyph-name="uni0922093C" unicode="&#x95d;" horiz-adv-x="564" 
d="M211 -132c0 21.333 7.5 39.333 22.5 54s32.833 22 53.5 22s38.5 -7.33301 53.5 -22s22.5 -32.667 22.5 -54s-7.5 -39.333 -22.5 -54s-32.833 -22 -53.5 -22s-38.5 7.33301 -53.5 22s-22.5 32.667 -22.5 54zM266 200v98.999c29.333 15.333 63.666 23 102.999 23
c47.333 0 85.833 -12.333 115.5 -37s44.5 -58.667 44.5 -102c0 -52 -20.5 -94 -61.5 -126s-97.5 -48 -169.5 -48c-79.333 0 -143.833 23.167 -193.5 69.5s-74.5 103.833 -74.5 172.5c0 78 26.333 136.333 79 175s121.334 58.667 206.001 60h9v73h-354v112h624v-112h-130
v-192c-31.333 7.33301 -65 11 -101 11c-34 0 -64.5 -3.66699 -91.5 -11s-50.167 -21 -69.5 -41s-29 -45.333 -29 -76c0 -34 12.333 -63.833 37 -89.5s56.667 -38.5 96 -38.5c25.333 0 46.5 5 63.5 15s25.5 24.333 25.5 43c0 12.667 -5 22.834 -15 30.501s-24 11.5 -42 11.5
c-28 0 -52 -7.33301 -72 -22z" />
    <glyph glyph-name="uni092B093C" unicode="&#x95e;" horiz-adv-x="844" 
d="M145 104c20.667 0 38.5 -7.33301 53.5 -22s22.5 -32.667 22.5 -54s-7.5 -39.333 -22.5 -54s-32.833 -22 -53.5 -22s-38.5 7.33301 -53.5 22s-22.5 32.667 -22.5 54s7.5 39.333 22.5 54s32.833 22 53.5 22zM365 376v183.001h-163v-190c0 -57.333 24.667 -86 74 -86
c26 0 47.333 8.16699 64 24.5s25 39.166 25 68.499zM874 559.001l-367.001 0.00195312v-100c32 27.333 71 41 117 41c58 0 103.333 -18.833 136 -56.5s49 -83.834 49 -138.501c0 -66.667 -20.667 -117.5 -62 -152.5s-93.333 -52.5 -156 -52.5
c-11.333 0 -19.666 0.333008 -24.999 1v113c4 -0.666992 9.33301 -1 16 -1c57.333 0 86 30.333 86 91c0 23.333 -6.5 43.166 -19.5 59.499s-30.5 24.5 -52.5 24.5c-26 0 -47.333 -8.16699 -64 -24.5s-25 -39.166 -25 -68.499v-295h-142v212c-32 -27.333 -71 -41 -117 -41
c-59.333 0 -105.5 16.667 -138.5 50s-49.5 84.666 -49.5 153.999v184h-90v112h904v-112z" />
    <glyph glyph-name="uni092F093C" unicode="&#x95f;" horiz-adv-x="634" 
d="M276 106c-66 0 -122.833 24 -170.5 72s-76.5 114 -86.5 198c104 14.667 156 49.334 156 104.001c0 33.333 -9.66699 59.666 -29 78.999h-176v112h694v-112h-100v-559h-141v170c-11.333 -19.333 -30.333 -34.833 -57 -46.5s-56.667 -17.5 -90 -17.5zM300 230
c38 0 68 11.001 90 33.001s33 55 33 99v197h-130c14 -21.333 21 -50 21 -86c0 -43.333 -12.167 -78.833 -36.5 -106.5s-55.833 -47.834 -94.5 -60.501c15.333 -50.667 54.333 -76 117 -76zM72 -18.999c0 20.667 7.33301 38.5 22 53.5s32.667 22.5 54 22.5
s39.333 -7.5 54 -22.5s22 -32.833 22 -53.5s-7.33301 -38.5 -22 -53.5s-32.667 -22.5 -54 -22.5s-39.333 7.5 -54 22.5s-22 32.833 -22 53.5z" />
    <glyph glyph-name="uni0960" unicode="&#x960;" horiz-adv-x="808" 
d="M482 559l-0.000976562 -180.002l69 35v84h135v-43c0 -23.333 2.83301 -45 8.5 -65s12.667 -36.667 21 -50s16.833 -26 25.5 -38s16.167 -25.167 22.5 -39.5s9.83301 -29.166 10.5 -44.499c2.66699 -56 -11.666 -96.833 -42.999 -122.5s-75.666 -38.5 -132.999 -38.5
c-19.333 0 -37.333 1.66699 -54 5l2 118c11.333 -3.33301 22.333 -5 33 -5c40.667 -1.33301 61 15.334 61 50.001c0 6 -1.5 12.333 -4.5 19s-6.33301 12.167 -10 16.5l-16 19.5l-16.5 20l-111 -54v-246h-137v204l-300 -146v138l166 77c-6 68 -39.667 102 -101 102
c-22 0 -44 -4.66699 -66 -14v123c24 8 50.667 12 80 12c113.333 0 178.666 -57.333 195.999 -172l25 12v223h-375v112h868v-112h-356z" />
    <glyph glyph-name="uni0961" unicode="&#x961;" horiz-adv-x="845" 
d="M727 559v-240.999c0 -26 -5.83301 -50 -17.5 -72s-24.667 -39.333 -39 -52s-27.333 -26.667 -39 -42s-17.5 -30 -17.5 -44c0 -11.333 4.83301 -20.333 14.5 -27s22.167 -10 37.5 -10h59v-108l2 -4h-85c-14.667 0 -25.834 -4.16699 -33.501 -12.5
s-11.5 -19.166 -11.5 -32.499s4.5 -24.833 13.5 -34.5s21.5 -14.5 37.5 -14.5c21.333 0 58 10.667 110 32v-123c-36.667 -14.667 -74 -22 -112 -22c-56.667 0 -102.834 15.167 -138.501 45.5s-53.5 69.166 -53.5 116.499c0 44.667 18 80.667 54 108
c-22.667 22.667 -34 51 -34 85c0 20.667 5.83301 40 17.5 58s24.334 32.667 38.001 44s26.334 26.5 38.001 45.5s17.5 40.167 17.5 63.5v91h-42c-30.667 0 -52.834 -8 -66.501 -24s-20.5 -43 -20.5 -81v-76h-141v76c0 71.333 -22 107 -66 107
c-25.333 0 -45.166 -9.83301 -59.499 -29.5s-21.5 -48.5 -21.5 -86.5c0 -104.667 54 -167.334 162 -188.001l-2 -116c-94 15.333 -168 49 -222 101s-81 120.333 -81 205c0 66 19.333 120 58 162s92 63 160 63c61.333 0 109 -16.333 143 -49c31.333 31.333 82 47 152 47h47
v39h-615v112h863v-112h-106z" />
    <glyph glyph-name="uni0964" unicode="&#x964;" horiz-adv-x="477" 
d="M215 0v671h142v-671h-142z" />
    <glyph glyph-name="uni0965" unicode="&#x965;" horiz-adv-x="727" 
d="M215 0v671h142v-671h-142zM465 0v671h142v-671h-142z" />
    <glyph glyph-name="uni0966" unicode="&#x966;" horiz-adv-x="547" 
d="M35 330c0 104 20 186.333 60 247s99.333 91 178 91s138.167 -30.333 178.5 -91s60.5 -143 60.5 -247c0 -102.667 -20.167 -184.667 -60.5 -246s-99.833 -92 -178.5 -92s-138 30.5 -178 91.5s-60 143.167 -60 246.5zM184 330c0 -138.667 29.667 -208 89 -208
c60 0 90 69.333 90 208s-30 208 -90 208c-59.333 0 -89 -69.333 -89 -208z" />
    <glyph glyph-name="uni0967" unicode="&#x967;" horiz-adv-x="410" 
d="M40 398v149l184 107h126v-654h-145v497z" />
    <glyph glyph-name="uni0968" unicode="&#x968;" horiz-adv-x="516" 
d="M244 124h232.001v-124h-436v113c72 49.333 135.5 104 190.5 164s82.5 113 82.5 159c0 28 -8.33301 50.167 -25 66.5s-42 24.5 -76 24.5c-56.667 0 -110.334 -21 -161.001 -63v141c22 16 50.667 29.667 86 41s70 17 104 17c68 0 122.167 -17.833 162.5 -53.5
s60.5 -85.5 60.5 -149.5c0 -115.333 -73.333 -227.333 -220 -336z" />
    <glyph glyph-name="uni0969" unicode="&#x969;" horiz-adv-x="493" 
d="M66 490v136c49.333 24.667 99 37 149 37c70.667 0 126.667 -16.833 168 -50.5s62 -77.5 62 -131.5c0 -74 -33.667 -125 -101 -153c76 -18 114 -67.333 114 -148c0 -56 -21.167 -100.833 -63.5 -134.5s-101.5 -50.5 -177.5 -50.5c-71.333 0 -130.333 11.333 -177 34v140
c53.333 -29.333 108.333 -44 165 -44c32.667 0 58.167 7 76.5 21s27.5 31.667 27.5 53c0 48.667 -45 73 -135 73h-35v120h35c35.333 0 64.333 6 87 18s34 30 34 54c0 46 -30 69 -90 69c-46 0 -92.333 -14.333 -139 -43z" />
    <glyph glyph-name="uni096A" unicode="&#x96a;" horiz-adv-x="577" 
d="M178 263h144v296zM547 263v-124h-80v-139h-145v139h-287v124l200 393h232v-393h80z" />
    <glyph glyph-name="uni096B" unicode="&#x96b;" horiz-adv-x="515" 
d="M215 532v-111c15.333 2 30 3 44 3c71.333 0 126 -18.333 164 -55s57 -86.667 57 -150c0 -68 -22.5 -122.5 -67.5 -163.5s-108.833 -61.5 -191.5 -61.5c-72.667 0 -131.334 11.667 -176.001 35v138c45.333 -28 96 -42 152 -42c89.333 0 134 32 134 96
c0 24 -9.16699 43 -27.5 57s-45.833 21 -82.5 21c-51.333 0 -100.666 -11 -147.999 -33v390h367v-124h-225z" />
    <glyph glyph-name="uni096C" unicode="&#x96c;" horiz-adv-x="557" 
d="M290 110c26 0 46.334 9.00098 61.001 27.001s22 42 22 72c0 27.333 -7.16699 49.166 -21.5 65.499s-34.5 24.5 -60.5 24.5c-36 0 -67.667 -14.333 -95 -43c7.33301 -97.333 38.666 -146 93.999 -146zM471.001 650.001v-135c-26 14 -56.333 21 -91 21
c-47.333 0 -86.166 -14.5 -116.499 -43.5s-50.833 -67.833 -61.5 -116.5c36 30.667 79 46 129 46c57.333 0 103.5 -19 138.5 -57s52.5 -89 52.5 -153c0 -66 -20.833 -121.167 -62.5 -165.5s-98.5 -66.5 -170.5 -66.5c-80.667 0 -141.5 28.833 -182.5 86.5
s-61.5 135.167 -61.5 232.5c0 111.333 30.5 200.333 91.5 267s138.167 100 231.5 100c35.333 0 69.666 -5.33301 102.999 -16z" />
    <glyph glyph-name="uni096D" unicode="&#x96d;" horiz-adv-x="490" 
d="M25 655h440v-124l-254 -531h-154l255 531h-287v124z" />
    <glyph glyph-name="uni096E" unicode="&#x96e;" horiz-adv-x="545" 
d="M271 106c30.667 0 53.833 7.50195 69.5 22.502s23.5 33.167 23.5 54.5c0 24 -8.16699 43.667 -24.5 59s-39.166 23 -68.499 23c-30 0 -52.5 -8.33301 -67.5 -25s-22.5 -36.334 -22.5 -59.001c0 -20.667 7.16699 -38.334 21.5 -53.001s37.166 -22 68.499 -22z
M269.999 550.002c-26.667 0 -46.332 -7.5 -58.999 -22.5s-19 -33.167 -19 -54.5c0 -25.333 7.66699 -45 23 -59s34.666 -21 57.999 -21c22.667 0 41.667 7 57 21s23 33.667 23 59c0 51.333 -27.667 77 -83 77zM417.001 333.002c62 -28.667 93 -78.999 93 -150.999
c0 -57.333 -22.167 -103.666 -66.5 -138.999s-102.166 -53 -173.499 -53c-72 0 -129.167 16.833 -171.5 50.5s-63.5 79.167 -63.5 136.5c0 70.667 31.667 121.667 95 153c-56.667 32.667 -85 79.667 -85 141s21.167 109.166 63.5 143.499s96.166 51.5 161.499 51.5
c68 0 123.167 -16.333 165.5 -49s63.5 -81.334 63.5 -146.001c0 -60 -27.333 -106 -82 -138z" />
    <glyph glyph-name="uni096F" unicode="&#x96f;" horiz-adv-x="553" 
d="M274 346c40 0 72.333 15 97 45c-8 94.667 -40 142 -96 142c-26 0 -46.833 -8.33301 -62.5 -25s-23.5 -40 -23.5 -70c0 -26.667 7.66699 -48.667 23 -66s36 -26 62 -26zM87 11v137.998c34.667 -16.667 69 -25 103 -25c52 0 92.333 11.833 121 35.5
s47.334 60.834 56.001 111.501c-28.667 -28.667 -72 -43 -130 -43c-58.667 0 -106.167 18.833 -142.5 56.5s-54.5 87.834 -54.5 150.501c0 65.333 20.5 119.666 61.5 162.999s96.5 65 166.5 65c78 0 139.167 -28.167 183.5 -84.5s66.5 -133.166 66.5 -230.499
c0 -119.333 -28.333 -208.5 -85 -267.5s-132.334 -88.5 -227.001 -88.5c-45.333 0 -85 6.33301 -119 19z" />
    <glyph glyph-name="uni0970" unicode="&#x970;" horiz-adv-x="502" 
d="M63 320c0 52.667 18.5 97.5 55.5 134.5s81.833 55.5 134.5 55.5s97.5 -18.5 134.5 -55.5s55.5 -81.833 55.5 -134.5s-18.5 -97.5 -55.5 -134.5s-81.833 -55.5 -134.5 -55.5s-97.5 18.5 -134.5 55.5s-55.5 81.833 -55.5 134.5zM180 320c0 -20 7.16699 -37.167 21.5 -51.5
s31.5 -21.5 51.5 -21.5s37.167 7.16699 51.5 21.5s21.5 31.5 21.5 51.5s-7.16699 37.167 -21.5 51.5s-31.5 21.5 -51.5 21.5s-37.167 -7.16699 -51.5 -21.5s-21.5 -31.5 -21.5 -51.5z" />
    <glyph glyph-name="uni097D" unicode="&#x97d;" horiz-adv-x="617" 
d="M111 545v136.001c46 21.333 100.333 32 163 32c64.667 0 115.834 -16.5 153.501 -49.5s56.5 -77.833 56.5 -134.5c0 -26.667 -5.66699 -52.167 -17 -76.5s-25 -46.333 -41 -66l-47.5 -58.5c-15.667 -19.333 -29.167 -41.333 -40.5 -66s-17 -50 -17 -76v-186h-139v202
c0 30 5.33301 58.667 16 86s23.5 50.666 38.5 69.999s30 37.5 45 54.5s27.833 33.833 38.5 50.5s16 32.667 16 48c0 24 -7.16699 43.333 -21.5 58s-35.5 22 -63.5 22c-46.667 0 -93.334 -15.333 -140.001 -46z" />
    <glyph glyph-name="Wgrave" unicode="&#x1e80;" horiz-adv-x="971" 
d="M460 898l86 -177h-121l-111 177h146zM431 664l113.999 0.000976562l66 -238c14 -50 26.5 -96.5 37.5 -139.5s18.5 -73.5 22.5 -91.5l6 -27c8.66699 59.333 27.334 145.666 56.001 258.999l62 247h157l-180 -674h-172l-59 213l-34.5 130c-9 35.333 -14.5 58 -16.5 68
l-2 15c-2 -27.333 -20 -98.333 -54 -213l-62 -213h-172l-181 674h162l62 -248c13.333 -53.333 24.333 -101.5 33 -144.5s14 -72.833 16 -89.5l4 -24c11.333 52 34 138 68 258z" />
    <glyph glyph-name="wgrave" unicode="&#x1e81;" horiz-adv-x="806" 
d="M375 731l86 -177h-121l-111 177h146zM168 0l-163 507.006h151l44 -167c10.667 -42 19.667 -79.833 27 -113.5s11.666 -56.834 12.999 -69.501l3 -19c4.66699 40 21 107.333 49 202l49 167h126l48 -167c12 -42.667 22 -80.834 30 -114.501s13 -56.834 15 -69.501l3 -18
c4.66699 39.333 20.334 106.666 47.001 201.999l47 167h144l-162 -507h-150l-44 166c-9.33301 36 -17.5 69.667 -24.5 101s-11.5 53.666 -13.5 66.999l-3 20c-6.66699 -44.667 -20.667 -107.334 -42 -188.001l-44 -166h-150z" />
    <glyph glyph-name="Wacute" unicode="&#x1e82;" horiz-adv-x="971" 
d="M431 664l113.999 0.000976562l66 -238c14 -50 26.5 -96.5 37.5 -139.5s18.5 -73.5 22.5 -91.5l6 -27c8.66699 59.333 27.334 145.666 56.001 258.999l62 247h157l-180 -674h-172l-59 213l-34.5 130c-9 35.333 -14.5 58 -16.5 68l-2 15c-2 -27.333 -20 -98.333 -54 -213
l-62 -213h-172l-181 674h162l62 -248c13.333 -53.333 24.333 -101.5 33 -144.5s14 -72.833 16 -89.5l4 -24c11.333 52 34 138 68 258zM442.999 721.001l86 177h146l-111 -177h-121z" />
    <glyph glyph-name="wacute" unicode="&#x1e83;" horiz-adv-x="806" 
d="M168 0l-163 507.006h151l44 -167c10.667 -42 19.667 -79.833 27 -113.5s11.666 -56.834 12.999 -69.501l3 -19c4.66699 40 21 107.333 49 202l49 167h126l48 -167c12 -42.667 22 -80.834 30 -114.501s13 -56.834 15 -69.501l3 -18
c4.66699 39.333 20.334 106.666 47.001 201.999l47 167h144l-162 -507h-150l-44 166c-9.33301 36 -17.5 69.667 -24.5 101s-11.5 53.666 -13.5 66.999l-3 20c-6.66699 -44.667 -20.667 -107.334 -42 -188.001l-44 -166h-150zM354 553.006l86 177h146l-111 -177h-121z" />
    <glyph glyph-name="Wdieresis" unicode="&#x1e84;" horiz-adv-x="971" 
d="M431 664l113.999 0.000976562l66 -238c14 -50 26.5 -96.5 37.5 -139.5s18.5 -73.5 22.5 -91.5l6 -27c8.66699 59.333 27.334 145.666 56.001 258.999l62 247h157l-180 -674h-172l-59 213l-34.5 130c-9 35.333 -14.5 58 -16.5 68l-2 15c-2 -27.333 -20 -98.333 -54 -213
l-62 -213h-172l-181 674h162l62 -248c13.333 -53.333 24.333 -101.5 33 -144.5s14 -72.833 16 -89.5l4 -24c11.333 52 34 138 68 258zM539.999 810.001c0 22.667 7.83301 41.834 23.5 57.501s35.5 23.5 59.5 23.5c23.333 0 43 -7.83301 59 -23.5s24 -34.834 24 -57.501
c0 -23.333 -8 -42.833 -24 -58.5s-35.667 -23.5 -59 -23.5c-24 0 -43.833 7.83301 -59.5 23.5s-23.5 35.167 -23.5 58.5zM271.999 810.001c0 22.667 7.83301 41.834 23.5 57.501s35.5 23.5 59.5 23.5c23.333 0 42.833 -7.83301 58.5 -23.5s23.5 -34.834 23.5 -57.501
c0 -23.333 -7.83301 -42.833 -23.5 -58.5s-35.167 -23.5 -58.5 -23.5c-24 0 -43.833 7.83301 -59.5 23.5s-23.5 35.167 -23.5 58.5z" />
    <glyph glyph-name="wdieresis" unicode="&#x1e85;" horiz-adv-x="806" 
d="M168 0l-163 507.006h151l44 -167c10.667 -42 19.667 -79.833 27 -113.5s11.666 -56.834 12.999 -69.501l3 -19c4.66699 40 21 107.333 49 202l49 167h126l48 -167c12 -42.667 22 -80.834 30 -114.501s13 -56.834 15 -69.501l3 -18
c4.66699 39.333 20.334 106.666 47.001 201.999l47 167h144l-162 -507h-150l-44 166c-9.33301 36 -17.5 69.667 -24.5 101s-11.5 53.666 -13.5 66.999l-3 20c-6.66699 -44.667 -20.667 -107.334 -42 -188.001l-44 -166h-150zM455 642.006
c0 22.667 7.83301 41.834 23.5 57.501s35.5 23.5 59.5 23.5c23.333 0 43 -7.83301 59 -23.5s24 -34.834 24 -57.501c0 -23.333 -8 -42.833 -24 -58.5s-35.667 -23.5 -59 -23.5c-24 0 -43.833 7.83301 -59.5 23.5s-23.5 35.167 -23.5 58.5zM187 642.006
c0 22.667 7.83301 41.834 23.5 57.501s35.5 23.5 59.5 23.5c23.333 0 42.833 -7.83301 58.5 -23.5s23.5 -34.834 23.5 -57.501c0 -23.333 -7.83301 -42.833 -23.5 -58.5s-35.167 -23.5 -58.5 -23.5c-24 0 -43.833 7.83301 -59.5 23.5s-23.5 35.167 -23.5 58.5z" />
    </font>
</defs>
</svg>
